<!--Scalable Vector Graphic-->
<svg id="symbol-000202" data-svg-name="Create Menu 2" data-svg-color="3" version="1.1" xmlns="http://www.w3.org/2000/svg" x="0px" y="0px" width="400px" height="400px" viewBox="0 0 400 400">
  <g>
    <path class="st0" d="M359.16,119.7c-1.21-2.54-3.32-4.45-5.96-5.39L295.22,93.7l0.03-0.4c0.47-5.77-3.84-10.85-9.61-11.32
      l-30.32-2.47l-66-23.46c-5.46-1.94-11.47,0.92-13.41,6.38l-3.67,10.33l-59.96-4.88c-5.77-0.48-10.85,3.84-11.32,9.62l-1.87,22.99
      l-50.65,9.2c-5.7,1.03-9.49,6.51-8.46,12.21l38.86,214.02c0.92,5.07,5.35,8.63,10.33,8.63c0.62,0,1.25-0.06,1.88-0.17l130.55-23.7
      l51.74,18.39c1.16,0.41,2.34,0.61,3.51,0.61c4.32,0,8.38-2.69,9.9-6.98l72.85-204.96C360.52,125.09,360.37,122.24,359.16,119.7z"/>
    <path class="st1" d="M268.18,301.54c0.79,4.33-2.11,8.51-6.44,9.3L90.6,341.91c-4.33,0.79-8.51-2.11-9.3-6.44L42.44,121.45
      c-0.79-4.33,2.11-8.51,6.44-9.3l171.14-31.07c4.33-0.79,8.51,2.11,9.3,6.44L268.18,301.54z"/>
    <circle class="st2" cx="72.37" cy="132.35" r="5.02"/>
    <circle class="st2" cx="77.03" cy="157.99" r="5.02"/>
    <circle class="st2" cx="81.69" cy="183.64" r="5.02"/>
    <circle class="st2" cx="86.34" cy="209.28" r="5.02"/>
    <circle class="st2" cx="91" cy="234.93" r="5.02"/>
    <circle class="st2" cx="95.66" cy="260.57" r="5.02"/>
    <circle class="st2" cx="100.31" cy="286.22" r="5.02"/>
    <circle class="st2" cx="104.97" cy="311.87" r="5.02"/>
    <rect x="84.58" y="117.6" transform="matrix(0.9839 -0.1787 0.1787 0.9839 -18.9477 27.8932)" class="st2" width="121.49" height="3"/>
    <rect x="89.24" y="143.25" transform="matrix(0.9839 -0.1787 0.1787 0.9839 -23.4568 29.1386)" class="st2" width="121.49" height="3"/>
    <rect x="93.89" y="168.89" transform="matrix(0.9839 -0.1787 0.1787 0.9839 -27.9658 30.3839)" class="st2" width="121.49" height="3"/>
    <rect x="98.67" y="195.21" transform="matrix(0.9839 -0.1787 0.1787 0.9839 -32.5925 31.6618)" class="st2" width="121.49" height="3"/>
    <rect x="103.21" y="220.18" transform="matrix(0.9839 -0.1787 0.1787 0.9839 -36.9839 32.8746)" class="st2" width="121.49" height="3"/>
    <rect x="107.86" y="245.83" transform="matrix(0.9839 -0.1787 0.1787 0.9839 -41.4929 34.12)" class="st2" width="121.49" height="3"/>
    <rect x="112.52" y="271.48" transform="matrix(0.9839 -0.1787 0.1787 0.9839 -46.0019 35.3653)" class="st2" width="121.49" height="3"/>
    <rect x="117.18" y="297.12" transform="matrix(0.9839 -0.1787 0.1787 0.9839 -50.5109 36.6107)" class="st2" width="121.49" height="3"/>
    <path class="st1" d="M275.13,309.9c-0.36,4.39-4.24,7.68-8.62,7.33l-173.36-14.1c-4.39-0.36-7.68-4.24-7.33-8.62l17.63-216.8
      c0.36-4.39,4.24-7.68,8.62-7.33l173.36,14.1c4.39,0.36,7.68,4.24,7.33,8.62L275.13,309.9z"/>
    <circle class="st2" cx="129.56" cy="95.95" r="5.02"/>
    <circle class="st2" cx="127.45" cy="121.93" r="5.02"/>
    <circle class="st2" cx="125.34" cy="147.91" r="5.02"/>
    <circle class="st2" cx="123.22" cy="173.89" r="5.02"/>
    <circle class="st2" cx="121.11" cy="199.87" r="5.02"/>
    <circle class="st2" cx="119" cy="225.85" r="5.02"/>
    <circle class="st2" cx="116.89" cy="251.83" r="5.02"/>
    <circle class="st2" cx="114.77" cy="277.8" r="5.02"/>
    <rect x="201.96" y="41.21" transform="matrix(0.081 -0.9967 0.9967 0.081 85.3485 296.4838)" class="st2" width="3" height="121.49"/>
    <rect x="199.85" y="67.19" transform="matrix(0.081 -0.9967 0.9967 0.081 57.5131 318.2522)" class="st2" width="3" height="121.49"/>
    <rect x="197.73" y="93.17" transform="matrix(0.081 -0.9967 0.9967 0.081 29.678 340.0209)" class="st2" width="3" height="121.49"/>
    <rect x="195.57" y="119.83" transform="matrix(0.081 -0.9967 0.9967 0.081 1.1152 362.3578)" class="st2" width="3" height="121.49"/>
    <rect x="193.51" y="145.13" transform="matrix(0.0811 -0.9967 0.9967 0.0811 -25.9947 383.5565)" class="st2" width="3" height="121.49"/>
    <rect x="191.4" y="171.11" transform="matrix(0.0811 -0.9967 0.9967 0.0811 -53.8298 405.325)" class="st2" width="3" height="121.49"/>
    <rect x="189.28" y="197.09" transform="matrix(0.0811 -0.9967 0.9967 0.0811 -81.6654 427.0929)" class="st2" width="3" height="121.49"/>
    <rect x="187.17" y="223.07" transform="matrix(0.0811 -0.9967 0.9967 0.0811 -109.5005 448.8614)" class="st2" width="3" height="121.49"/>
    <path d="M284.38,331.84c-1.47,4.15-6.07,6.33-10.22,4.86l-163.89-58.25c-4.15-1.47-6.33-6.07-4.86-10.22l72.85-204.96
      c1.47-4.15,6.07-6.33,10.22-4.86l163.89,58.25c4.15,1.47,6.33,6.07,4.86,10.22L284.38,331.84z"/>
    <circle class="st2" cx="198.8" cy="87.63" r="5.02"/>
    <circle class="st2" cx="190.07" cy="112.19" r="5.02"/>
    <circle class="st2" cx="181.34" cy="136.75" r="5.02"/>
    <circle class="st2" cx="172.61" cy="161.31" r="5.02"/>
    <circle class="st2" cx="163.88" cy="185.87" r="5.02"/>
    <circle class="st2" cx="155.15" cy="210.43" r="5.02"/>
    <circle class="st2" cx="146.42" cy="234.99" r="5.02"/>
    <circle class="st2" cx="137.7" cy="259.55" r="5.02"/>
    <rect x="267.16" y="51.71" transform="matrix(0.3349 -0.9423 0.9423 0.3349 72.7252 327.942)" class="st2" width="3" height="121.49"/>
    <rect x="258.43" y="76.27" transform="matrix(0.3349 -0.9423 0.9423 0.3349 43.7762 336.0504)" class="st2" width="3" height="121.49"/>
    <rect x="249.7" y="100.83" transform="matrix(0.3349 -0.9423 0.9423 0.3349 14.8302 344.1622)" class="st2" width="3" height="121.49"/>
    <rect x="240.75" y="126.03" transform="matrix(0.3349 -0.9423 0.9423 0.3349 -14.8752 352.4816)" class="st2" width="3" height="121.49"/>
    <rect x="232.24" y="149.95" transform="matrix(0.3349 -0.9423 0.9423 0.3349 -43.0669 360.38)" class="st2" width="3" height="121.49"/>
    <rect x="223.51" y="174.51" transform="matrix(0.3349 -0.9423 0.9423 0.3349 -72.0136 368.4917)" class="st2" width="3" height="121.49"/>
    <rect x="214.79" y="199.07" transform="matrix(0.3349 -0.9423 0.9423 0.3349 -100.9621 376.5993)" class="st2" width="3" height="121.49"/>
    <rect x="206.06" y="223.63" transform="matrix(0.3349 -0.9423 0.9423 0.3349 -129.9091 384.7113)" class="st2" width="3" height="121.49"/>
    <path class="st2" d="M359.16,119.7c-1.21-2.54-3.32-4.45-5.96-5.39L295.22,93.7l0.03-0.4c0.47-5.77-3.84-10.85-9.61-11.32
      l-30.32-2.47l-66-23.46c-5.46-1.94-11.47,0.92-13.41,6.38l-3.67,10.33l-59.96-4.88c-5.77-0.48-10.85,3.84-11.32,9.62l-1.87,22.99
      l-50.65,9.2c-5.7,1.03-9.49,6.51-8.46,12.21l38.86,214.02c0.92,5.07,5.35,8.63,10.33,8.63c0.62,0,1.25-0.06,1.88-0.17l130.55-23.7
      l51.74,18.39c1.16,0.41,2.34,0.61,3.51,0.61c4.32,0,8.38-2.69,9.9-6.98l72.85-204.96C360.52,125.09,360.37,122.24,359.16,119.7z
       M285.23,86.97c2.7,0.22,4.78,2.36,5.03,4.97l-16.63-5.91L285.23,86.97z M105.94,77.91c0.23-2.87,2.65-5.05,5.48-5.05
      c0.15,0,0.3,0.01,0.45,0.02l58.64,4.77l-3.76,10.57l-1.93,5.43L103.06,267.4c-0.94,2.63-0.79,5.48,0.42,8.02
      c1.21,2.54,3.32,4.45,5.96,5.39l77.13,27.41l-93.22-7.58c-3.02-0.25-5.28-2.91-5.04-5.93l15.45-189.98l0.42-5.16L105.94,77.91z
       M90.15,339.45c-2.99,0.55-5.85-1.45-6.39-4.43L44.9,121.01c-0.54-2.98,1.44-5.85,4.43-6.39l49.34-8.96L83.32,294.31
      c-0.47,5.77,3.84,10.85,9.61,11.32l111.93,9.1l7.26,2.58L90.15,339.45z M354.87,126.05l-72.85,204.96
      c-1.02,2.86-4.17,4.36-7.02,3.34l-43.53-15.47l-7.25-2.58l-2.22-0.79l-16.09-5.72l-94.81-33.7c-1.38-0.49-2.48-1.49-3.12-2.82
      c-0.63-1.33-0.71-2.82-0.22-4.2l62.72-176.46l1.93-5.43l3.24-9.12l1.73-4.88l3.22-9.07c0.8-2.25,2.92-3.66,5.19-3.66
      c0.61,0,1.23,0.1,1.84,0.32l48.32,17.17l18.3,6.51l35.66,12.67l4.88,1.73l56.74,20.17c1.38,0.49,2.48,1.49,3.12,2.82
      C355.28,123.18,355.36,124.67,354.87,126.05z"/>
  </g>
</svg>