<!--Scalable Vector Graphic-->
<svg id="symbol-000201" data-svg-name="Create Menu 1" data-svg-color="3" version="1.1" xmlns="http://www.w3.org/2000/svg" x="0px" y="0px" width="400px" height="400px" viewBox="0 0 400 400">
  <g>
    <path class="st0" d="M337.43,105.5l-15.22-8.6c-4.08-2.3-9.25-0.87-11.55,3.21l-5.57,9.87l-4.85,8.58V63.5
      c0-5.79-4.71-10.5-10.5-10.5H119.76c-5.79,0-10.5,4.71-10.5,10.5V90h-40.5c-5.79,0-10.5,4.71-10.5,10.5v236
      c0,5.79,4.71,10.5,10.5,10.5h169.97c5.79,0,10.5-4.71,10.5-10.5V310h40.5c5.79,0,10.5-4.71,10.5-10.5V188.54l33.37-59.05l1.46-2.58
      l5.57-9.87l0,0C342.93,112.97,341.51,107.8,337.43,105.5z"/>
    <path class="st1" d="M246.74,336.5c0,4.4-3.6,8-8,8H68.76c-4.4,0-8-3.6-8-8v-236c0-4.4,3.6-8,8-8h169.97c4.4,0,8,3.6,8,8V336.5z"/>
    <circle class="st2" cx="87.42" cy="118.47" r="5.42"/>
    <circle class="st2" cx="87.42" cy="146.6" r="5.42"/>
    <circle class="st2" cx="87.42" cy="174.73" r="5.42"/>
    <circle class="st2" cx="87.42" cy="202.85" r="5.42"/>
    <circle class="st2" cx="87.42" cy="230.98" r="5.42"/>
    <circle class="st2" cx="87.42" cy="259.11" r="5.42"/>
    <circle class="st2" cx="87.42" cy="287.24" r="5.42"/>
    <circle class="st2" cx="87.42" cy="315.37" r="5.42"/>
    <path d="M297.74,299.5c0,4.4-3.6,8-8,8H119.76c-4.4,0-8-3.6-8-8v-236c0-4.4,3.6-8,8-8h169.97c4.4,0,8,3.6,8,8V299.5z"/>
    <rect x="126.98" y="98.28" class="st1" width="150.26" height="22.64"/>
    <rect x="127.87" y="154.53" class="st1" width="150.26" height="22.64"/>
    <rect x="128.76" y="210.79" class="st1" width="150.26" height="22.65"/>
    <rect x="129.66" y="267.05" class="st1" width="150.26" height="22.65"/>
    <circle class="st2" cx="138.42" cy="81.47" r="5.42"/>
    <circle class="st2" cx="138.42" cy="109.6" r="5.42"/>
    <circle class="st2" cx="138.42" cy="137.73" r="5.42"/>
    <circle class="st2" cx="138.42" cy="165.85" r="5.42"/>
    <circle class="st2" cx="138.42" cy="193.98" r="5.42"/>
    <circle class="st2" cx="138.42" cy="222.11" r="5.42"/>
    <circle class="st2" cx="138.42" cy="250.24" r="5.42"/>
    <circle class="st2" cx="138.42" cy="278.37" r="5.42"/>
    <rect x="152.88" y="79.97" class="st2" width="115.1" height="3"/>
    <rect x="152.88" y="108.1" class="st2" width="115.1" height="3"/>
    <rect x="152.88" y="136.23" class="st2" width="115.1" height="3"/>
    <rect x="152.88" y="164.35" class="st2" width="115.1" height="3"/>
    <rect x="152.88" y="192.48" class="st2" width="115.1" height="3"/>
    <rect x="152.88" y="220.61" class="st2" width="115.1" height="3"/>
    <rect x="152.88" y="248.74" class="st2" width="84.85" height="3"/>
    <path class="st2" d="M337.43,105.5l-15.22-8.6c-4.08-2.3-9.25-0.87-11.55,3.21l-5.57,9.87l-4.85,8.58V63.5
      c0-5.79-4.71-10.5-10.5-10.5H119.76c-5.79,0-10.5,4.71-10.5,10.5V90h-40.5c-5.79,0-10.5,4.71-10.5,10.5v236
      c0,5.79,4.71,10.5,10.5,10.5h169.97c5.79,0,10.5-4.71,10.5-10.5V310h40.5c5.79,0,10.5-4.71,10.5-10.5V188.54l33.37-59.05l1.46-2.58
      l5.57-9.87l0,0C342.93,112.97,341.51,107.8,337.43,105.5z M244.24,336.5c0,3.03-2.47,5.5-5.5,5.5H68.76c-3.03,0-5.5-2.47-5.5-5.5
      v-236c0-3.03,2.47-5.5,5.5-5.5h40.5v204.5c0,5.79,4.71,10.5,10.5,10.5h124.47V336.5z M295.24,299.5c0,3.03-2.47,5.5-5.5,5.5h-40.5
      h-5H119.76c-3.03,0-5.5-2.47-5.5-5.5V95v-5V63.5c0-3.03,2.47-5.5,5.5-5.5h169.97c3.03,0,5.5,2.47,5.5,5.5v63.9l-49.77,88.08
      c-1.13,2-1.8,4.22-1.97,6.51l-1.73,23.41c-0.18,2.44,1.06,4.77,3.2,5.98c2.13,1.21,4.77,1.07,6.77-0.35l19.16-13.57
      c1.87-1.33,3.43-3.05,4.56-5.05l19.8-35.03V299.5z"/>
    <path class="st1" d="M315.82,103.02c0.69-1.22,2.24-1.65,3.47-0.96l15.22,8.6c1.22,0.69,1.65,2.24,0.96,3.47l-4.11,7.28l-0.21,0.37
      l-19.66-11.11L315.82,103.02z"/>
    <path class="st1" d="M250.62,218.39l59.42-105.14l8.54,4.83l-59.84,105.87l-8.5-4.8C250.36,218.89,250.48,218.64,250.62,218.39z"/>
    <path class="st1" d="M270.27,229.5c-0.14,0.24-0.3,0.48-0.46,0.71l-8.5-4.8l59.83-105.87l8.54,4.82L270.27,229.5z"/>
    <polygon points="266.61,234.36 254.4,243.01 247.45,239.08 248.56,224.16 248.6,223.84 266.86,234.16 "/>
  </g>
</svg>