<!--Scalable Vector Graphic-->
<svg id="symbol-000011" data-svg-name="Basic Console" data-svg-color="2" version="1.1" xmlns="http://www.w3.org/2000/svg" x="0px" y="0px" width="400px" height="400px" viewBox="0 0 400 400">
  <g>
    <path class="st0" d="M227.08,176.79c0,8.59,3.85,16.28,9.91,21.45L222.45,218c-1.17-0.52-2.46-0.82-3.82-0.82
      c-0.7,0-1.39,0.08-2.05,0.23l-13.7-29.53c2.15-1.72,3.53-4.36,3.53-7.33c0-5.19-4.21-9.39-9.39-9.39c-3.18,0-5.99,1.59-7.69,4.01
      l-19.58-8.79c0.62-1.89,0.97-3.91,0.97-6.02c0-10.63-8.62-19.25-19.25-19.25c-10.63,0-19.25,8.62-19.25,19.25
      c0,10.63,8.62,19.25,19.25,19.25c0.46,0,0.91-0.04,1.35-0.07l3.32,18.84c-15.6,3.62-27.22,17.6-27.22,34.3
      c0,19.45,15.77,35.22,35.22,35.22s35.22-15.77,35.22-35.22s-15.77-35.22-35.22-35.22c-1.37,0-2.73,0.09-4.06,0.24l-3.32-18.84
      c4.83-1.38,8.87-4.59,11.34-8.84l19.68,8.84c-0.1,0.55-0.16,1.11-0.16,1.69c0,5.19,4.21,9.39,9.39,9.39c0.78,0,1.54-0.11,2.27-0.29
      l13.66,29.44c-2.26,1.72-3.72,4.42-3.72,7.47c0,5.19,4.2,9.39,9.39,9.39c5.19,0,9.39-4.21,9.39-9.39c0-2.38-0.89-4.54-2.35-6.2
      l14.54-19.76c3.04,1.92,6.47,3.28,10.15,3.93l-2.78,26.74c-9.78,0.09-17.69,8.03-17.69,17.84c0,9.86,7.99,17.84,17.84,17.84
      s17.84-7.99,17.84-17.84c0-8.54-6.01-15.67-14.02-17.42l2.78-26.74c0.3,0.01,0.61,0.02,0.91,0.02c15.56,0,28.18-12.61,28.18-28.18
      c0-15.56-12.61-28.18-28.18-28.18S227.08,161.23,227.08,176.79z"/>
    <path class="st0" d="M338.37,218.69l-20.18-5.41c0.99-8.83,0.99-17.74,0-26.57l20.18-5.41c1.89-0.51,3.02-2.46,2.51-4.35
      l-7.35-27.44c-0.51-1.89-2.45-3.02-4.35-2.51l-20.16,5.4c-3.51-8.04-7.92-15.77-13.28-23.03l14.75-14.75c1.39-1.39,1.39-3.63,0-5.02
      l-20.09-20.09c-1.39-1.39-3.63-1.39-5.02,0l-14.75,14.75c-7.26-5.37-14.99-9.78-23.03-13.28l5.4-20.16
      c0.51-1.89-0.62-3.84-2.51-4.35l-27.44-7.35c-1.89-0.51-3.84,0.62-4.35,2.51l-5.41,20.18c-8.83-0.99-17.74-0.99-26.57,0l-5.41-20.18
      c-0.51-1.89-2.46-3.02-4.35-2.51l-27.44,7.35c-1.89,0.51-3.02,2.45-2.51,4.35l5.4,20.16c-8.04,3.51-15.77,7.92-23.03,13.28
      l-14.75-14.75c-1.39-1.39-3.64-1.39-5.02,0l-20.09,20.09c-1.39,1.39-1.39,3.64,0,5.02l14.75,14.75
      c-5.37,7.26-9.78,14.99-13.28,23.03l-20.16-5.4c-1.89-0.51-3.84,0.62-4.35,2.51l-7.35,27.44c-0.51,1.89,0.62,3.84,2.51,4.35
      l20.18,5.41c-0.99,8.83-0.99,17.74,0,26.57l-20.18,5.41c-1.89,0.51-3.02,2.45-2.51,4.35l7.35,27.44c0.51,1.89,2.45,3.02,4.35,2.51
      l20.16-5.4c3.51,8.04,7.92,15.78,13.28,23.03l-14.75,14.75c-1.39,1.39-1.39,3.64,0,5.02l20.09,20.09c1.39,1.39,3.64,1.39,5.02,0
      l14.75-14.75c7.26,5.37,14.99,9.78,23.03,13.28l-5.4,20.16c-0.51,1.89,0.62,3.84,2.51,4.35l27.44,7.35
      c1.89,0.51,3.84-0.62,4.35-2.51l5.41-20.18c8.83,0.99,17.74,0.99,26.57,0l5.41,20.18c0.51,1.89,2.45,3.02,4.35,2.51l27.44-7.35
      c1.89-0.51,3.02-2.46,2.51-4.35l-5.4-20.16c8.04-3.51,15.78-7.92,23.03-13.28l14.75,14.75c1.39,1.39,3.64,1.39,5.02,0l20.09-20.09
      c1.39-1.39,1.39-3.64,0-5.02l-14.75-14.75c5.37-7.26,9.78-14.99,13.28-23.03l20.16,5.4c1.89,0.51,3.84-0.62,4.35-2.51l7.35-27.44
      C341.39,221.15,340.26,219.2,338.37,218.69z M200,301.2c-55.89,0-101.2-45.31-101.2-101.2S144.11,98.8,200,98.8
      c55.89,0,101.2,45.31,101.2,101.2S255.89,301.2,200,301.2z"/>
    <path class="st1" d="M255.25,204.97c15.56,0,28.18-12.61,28.18-28.18c0-15.56-12.61-28.18-28.18-28.18s-28.18,12.61-28.18,28.18
      c0,8.59,3.85,16.28,9.91,21.45L222.45,218c-1.17-0.52-2.46-0.82-3.82-0.82c-0.7,0-1.39,0.08-2.05,0.23l-13.7-29.53
      c2.15-1.72,3.53-4.36,3.53-7.33c0-5.19-4.21-9.39-9.39-9.39c-3.18,0-5.99,1.59-7.69,4.01l-19.58-8.79c0.62-1.89,0.97-3.91,0.97-6.02
      c0-10.63-8.62-19.25-19.25-19.25c-10.63,0-19.25,8.62-19.25,19.25c0,10.63,8.62,19.25,19.25,19.25c0.46,0,0.91-0.04,1.35-0.07
      l3.32,18.84c1.29-0.3,2.6-0.53,3.94-0.68l-3.32-18.84c4.83-1.38,8.87-4.59,11.34-8.84l19.68,8.84c-0.1,0.55-0.16,1.11-0.16,1.69
      c0,5.19,4.21,9.39,9.39,9.39c0.78,0,1.54-0.11,2.27-0.29l13.66,29.44c-2.26,1.72-3.72,4.42-3.72,7.47c0,5.19,4.2,9.39,9.39,9.39
      c5.19,0,9.39-4.21,9.39-9.39c0-2.38-0.89-4.54-2.35-6.2l14.54-19.76c3.04,1.92,6.47,3.28,10.15,3.93l-2.78,26.74
      c0.05,0,0.1-0.01,0.16-0.01c1.31,0,2.59,0.15,3.82,0.42l2.78-26.74C254.64,204.96,254.95,204.97,255.25,204.97z"/>
    <path d="M338.37,218.69l-20.18-5.41c0.99-8.83,0.99-17.74,0-26.57l20.18-5.41c1.89-0.51,3.02-2.46,2.51-4.35l-7.35-27.44
      c-0.51-1.89-2.45-3.02-4.35-2.51l-20.16,5.4c-3.51-8.04-7.92-15.77-13.28-23.03l14.75-14.75c1.39-1.39,1.39-3.63,0-5.02
      l-20.09-20.09c-1.39-1.39-3.63-1.39-5.02,0l-14.75,14.75c-7.26-5.37-14.99-9.78-23.03-13.28l5.4-20.16
      c0.51-1.89-0.62-3.84-2.51-4.35l-27.44-7.35c-1.89-0.51-3.84,0.62-4.35,2.51l-5.41,20.18c-8.83-0.99-17.74-0.99-26.57,0l-5.41-20.18
      c-0.51-1.89-2.46-3.02-4.35-2.51l-27.44,7.35c-1.89,0.51-3.02,2.45-2.51,4.35l5.4,20.16c-8.04,3.51-15.77,7.92-23.03,13.28
      l-14.75-14.75c-1.39-1.39-3.64-1.39-5.02,0l-20.09,20.09c-1.39,1.39-1.39,3.64,0,5.02l14.75,14.75
      c-5.37,7.26-9.78,14.99-13.28,23.03l-20.16-5.4c-1.89-0.51-3.84,0.62-4.35,2.51l-7.35,27.44c-0.51,1.89,0.62,3.84,2.51,4.35
      l20.18,5.41c-0.99,8.83-0.99,17.74,0,26.57l-20.18,5.41c-1.89,0.51-3.02,2.45-2.51,4.35l7.35,27.44c0.51,1.89,2.45,3.02,4.35,2.51
      l20.16-5.4c3.51,8.04,7.92,15.78,13.28,23.03l-14.75,14.75c-1.39,1.39-1.39,3.64,0,5.02l20.09,20.09c1.39,1.39,3.64,1.39,5.02,0
      l14.75-14.75c7.26,5.37,14.99,9.78,23.03,13.28l-5.4,20.16c-0.51,1.89,0.62,3.84,2.51,4.35l27.44,7.35
      c1.89,0.51,3.84-0.62,4.35-2.51l5.41-20.18c8.83,0.99,17.74,0.99,26.57,0l5.41,20.18c0.51,1.89,2.45,3.02,4.35,2.51l27.44-7.35
      c1.89-0.51,3.02-2.46,2.51-4.35l-5.4-20.16c8.04-3.51,15.78-7.92,23.03-13.28l14.75,14.75c1.39,1.39,3.64,1.39,5.02,0l20.09-20.09
      c1.39-1.39,1.39-3.64,0-5.02l-14.75-14.75c5.37-7.26,9.78-14.99,13.28-23.03l20.16,5.4c1.89,0.51,3.84-0.62,4.35-2.51l7.35-27.44
      C341.39,221.15,340.26,219.2,338.37,218.69z M200,301.2c-55.89,0-101.2-45.31-101.2-101.2c0-55.89,45.31-101.2,101.2-101.2
      c55.89,0,101.2,45.31,101.2,101.2C301.2,255.89,255.89,301.2,200,301.2z"/>
    <path d="M164.15,197.46c-1.37,0-2.73,0.09-4.06,0.24c-1.34,0.15-2.65,0.38-3.94,0.68c-15.6,3.62-27.22,17.6-27.22,34.3
      c0,19.45,15.77,35.22,35.22,35.22s35.22-15.77,35.22-35.22S183.6,197.46,164.15,197.46z"/>
    <path d="M251.56,231.69c-1.23-0.27-2.51-0.42-3.82-0.42c-0.05,0-0.1,0.01-0.16,0.01c-9.78,0.09-17.69,8.03-17.69,17.84
      c0,9.86,7.99,17.84,17.84,17.84c9.86,0,17.84-7.99,17.84-17.84C265.58,240.57,259.58,233.44,251.56,231.69z"/>
  </g>
</svg>