<!--Scalable Vector Graphic-->
<svg id="symbol-000203" data-svg-name="HostGroup Management" data-svg-color="3" version="1.1" xmlns="http://www.w3.org/2000/svg" x="0px" y="0px" width="400px" height="400px" viewBox="0 0 400 400">
  <g>
    <path class="st0" d="M355.09,179.24c-4.06-7.7-15.85-13.61-28.88-17.96V68.36h-81.49v66.65c-0.1,0-0.2-0.01-0.3-0.01
      c-1.22,0-2.42,0.25-3.58,0.75V68.36h-81.49v67.38l-0.13-0.05c-1.11-0.44-2.27-0.66-3.43-0.66c-0.1,0-0.21,0.01-0.31,0.01V68.36H74
      v92.92c-13.03,4.35-24.82,10.25-28.88,17.96c-0.97,1.84-1.51,3.78-1.51,5.83v32.61c0.24,1.26,0.68,2.48,1.3,3.66
      c4.09,7.75,15.98,13.67,29.1,18.03v92.27h81.49V253.3c1.28,0.09,2.58,0.17,3.87,0.26v78.08h81.49v-78.11
      c1.29-0.08,2.59-0.16,3.87-0.26v78.37h81.49v-92.41c12.95-4.34,24.62-10.22,28.66-17.88c0.97-1.84,1.51-3.78,1.51-5.83V182.9
      C356.15,181.64,355.72,180.42,355.09,179.24z M139.56,200.84H83.78c-0.61-0.17-1.22-0.34-1.81-0.51c1.35-0.39,2.75-0.78,4.17-1.16
      h50.45L139.56,200.84z M210.66,200.84h-21.09c0.37-0.56,0.73-1.12,1.07-1.67h18.94C209.93,199.72,210.29,200.27,210.66,200.84z
       M243.36,188.49c0.45,0.03,0.92,0.06,1.37,0.09v0.85C244.28,189.13,243.82,188.82,243.36,188.49z M156.86,188.49
      c-0.46,0.32-0.92,0.64-1.37,0.94v-0.85C155.95,188.55,156.41,188.52,156.86,188.49z M316,200.84h-55.34l2.98-1.67h50.44
      c1.35,0.36,2.67,0.72,3.96,1.1C317.37,200.45,316.69,200.65,316,200.84z"/>
    <path class="st1" d="M326.37,200.25c-2.59,0.89-5.34,1.75-8.24,2.58h-66.12l-5.28,2.97v8.53c-1.4,0.11-2.8,0.21-4.21,0.31
      l-0.79,11.42l-2.87-1.56l-0.55-0.3c-4.48-2.44-8.49-5.42-12.06-8.67c-4.39-4-8.11-8.4-11.2-12.69h-29.88
      c-3.09,4.3-6.81,8.71-11.21,12.71c-3.56,3.24-7.56,6.22-12.04,8.65l-0.55,0.3l-2.87,1.56l-0.79-11.39c-1.41-0.1-2.82-0.2-4.21-0.3
      v-8.56l-5.28-2.97H81.65c-2.82-0.81-5.5-1.64-8.02-2.51c-15.41,5.3-25.16,11.61-27.14,18.43c2.53,6.94,13.12,13.33,29.51,18.63
      v92.25h77.49v-79c2.6,0.2,5.22,0.38,7.87,0.54v78.46h77.49v-78.49c2.65-0.17,5.28-0.35,7.87-0.55v79.03h77.49v-92.39
      c16.66-5.44,27.22-12.01,29.29-19.15C351.1,211.5,341.41,205.4,326.37,200.25z"/>
    <path class="st1" d="M146.93,197.16c0.88-0.41,3.38-1.6,6.56-3.51v-7.42c-27.25,2.07-51.21,5.9-69.55,10.93H146.93z"/>
    <path class="st1" d="M147.51,146.15c0-2.62,1.18-5.05,3.24-6.66c0.9-0.71,1.81-1.22,2.74-1.54V70.36H76v92.9
      c17.87-5.81,42.68-10.31,71.51-12.82L147.51,146.15z"/>
    <path class="st1" d="M161.36,185.69v2.56c1.09-0.86,2.17-1.78,3.23-2.75C163.51,185.56,162.44,185.62,161.36,185.69z"/>
    <path class="st1" d="M200.11,184.51c-1.52,0-3.03,0.01-4.53,0.02c-1.33,3.06-3.51,7.58-6.63,12.63h22.32
      c-3.11-5.05-5.29-9.57-6.63-12.63C203.14,184.52,201.63,184.51,200.11,184.51z"/>
    <path class="st1" d="M238.85,185.69c-1.07-0.07-2.15-0.13-3.23-0.19c1.06,0.97,2.14,1.88,3.23,2.74V185.69z"/>
    <path class="st1" d="M189.95,148.33c1.15-1.05,2.68-1.69,4.36-1.69h11.62c1.68,0,3.2,0.65,4.36,1.69c3.65,0.06,7.26,0.14,10.84,0.26
      l17.74-9.03V70.36h-77.49v69.19l17.74,9.03C182.68,148.47,186.3,148.38,189.95,148.33z"/>
    <path class="st1" d="M316.27,197.16c-18.34-5.03-42.3-8.86-69.55-10.93v7.42c3.18,1.91,5.68,3.1,6.56,3.51H316.27z"/>
    <path class="st1" d="M252.71,146.15l0,4.3c28.83,2.51,53.64,7.01,71.51,12.82v-92.9h-77.49v67.55c0.91,0.33,1.82,0.85,2.74,1.58
      C251.49,141.08,252.71,143.57,252.71,146.15z"/>
    <path d="M353.51,181.83c-2.52-6.91-13.02-13.28-29.29-18.56c-17.87-5.81-42.68-10.31-71.51-12.82l0-4.3c0-2.58-1.21-5.07-3.24-6.66
      c-0.93-0.73-1.83-1.25-2.74-1.58c-0.76-0.28-1.53-0.42-2.3-0.42c-0.89,0-1.77,0.19-2.62,0.56l-0.07,0.03l-2.89,1.47l-17.74,9.03
      c-3.58-0.12-7.19-0.2-10.84-0.26c-1.15-1.05-2.68-1.69-4.36-1.69H194.3c-1.68,0-3.2,0.65-4.36,1.69c-3.65,0.06-7.26,0.14-10.84,0.26
      l-17.74-9.03l-2.93-1.49l-0.11-0.04c-0.82-0.32-1.67-0.49-2.52-0.49c-0.77,0-1.54,0.14-2.31,0.41c-0.92,0.32-1.84,0.84-2.74,1.54
      c-2.06,1.61-3.24,4.04-3.24,6.66l0,4.3c-28.83,2.51-53.64,7.01-71.51,12.82c-16.79,5.45-27.43,12.05-29.51,19.22
      c-0.25,0.85-0.38,1.72-0.38,2.58v32.4c0.09,0.43,0.23,0.86,0.38,1.28c1.98-6.82,11.72-13.13,27.14-18.43
      c3.2-1.1,6.64-2.16,10.32-3.17c18.34-5.03,42.3-8.86,69.55-10.93c2.6-0.2,5.22-0.38,7.87-0.54c1.07-0.07,2.15-0.13,3.23-0.19
      c-1.06,0.97-2.14,1.89-3.23,2.75c-2.74,2.17-5.5,3.99-7.87,5.41c-3.18,1.91-5.68,3.1-6.56,3.51c-0.21,0.1-0.33,0.15-0.35,0.16
      l-4.61,2.01l6.24,3.51l5.28,2.97l3.74,2.1l0.47,6.76l0.79,11.39l2.87-1.56l0.55-0.3c4.47-2.43,8.48-5.41,12.04-8.65
      c4.4-4,8.12-8.41,11.21-12.71c1.39-1.93,2.65-3.83,3.78-5.67c3.11-5.05,5.29-9.57,6.63-12.63c1.51-0.01,3.02-0.02,4.53-0.02
      c1.52,0,3.03,0.01,4.53,0.02c1.33,3.06,3.51,7.59,6.63,12.63c1.13,1.84,2.4,3.74,3.78,5.67c3.09,4.3,6.8,8.7,11.2,12.69
      c3.57,3.25,7.58,6.23,12.06,8.67l0.55,0.3l2.87,1.56l0.79-11.42l0.47-6.73l3.74-2.1l5.28-2.97l6.24-3.51l-4.61-2.01
      c-0.01-0.01-0.14-0.06-0.35-0.16c-0.88-0.41-3.38-1.6-6.56-3.51c-2.38-1.42-5.13-3.24-7.87-5.41c-1.09-0.86-2.17-1.77-3.23-2.74
      c1.08,0.06,2.16,0.12,3.23,0.19c2.65,0.16,5.28,0.35,7.87,0.54c27.25,2.07,51.21,5.9,69.55,10.93c3.59,0.99,6.96,2.02,10.1,3.09
      c15.04,5.14,24.73,11.24,27.14,17.84c0.25-0.85,0.38-1.72,0.38-2.58v-32.4C353.8,182.68,353.66,182.25,353.51,181.83z"/>
    <rect x="86.57" y="216.93" class="st2" width="56.36" height="14.56"/>
    <polygon class="st2" points="86.57,237.87 86.57,243.03 86.57,250.73 128.95,250.73 142.93,250.73 142.93,247.23 142.93,236.17 
      86.57,236.17 "/>
    <rect x="86.57" y="266.24" class="st2" width="56.36" height="7.04"/>
    <rect x="86.57" y="276.8" class="st2" width="56.36" height="7.04"/>
    <rect x="86.57" y="287.37" class="st2" width="56.36" height="7.04"/>
    <circle class="st2" cx="114.75" cy="312.03" r="7.04"/>
    <polygon class="st2" points="171.93,249.23 171.93,250.73 228.29,250.73 228.29,249.21 228.29,236.17 171.93,236.17 "/>
    <rect x="171.93" y="266.24" class="st2" width="56.36" height="7.04"/>
    <rect x="171.93" y="276.8" class="st2" width="56.36" height="7.04"/>
    <rect x="171.93" y="287.37" class="st2" width="56.36" height="7.04"/>
    <path class="st2" d="M200.11,304.98c-3.89,0-7.04,3.15-7.04,7.04c0,3.89,3.15,7.04,7.04,7.04c3.89,0,7.04-3.15,7.04-7.04
      C207.15,308.13,204,304.98,200.11,304.98z"/>
    <rect x="257.29" y="216.93" class="st2" width="56.36" height="14.56"/>
    <polygon class="st2" points="257.29,247.19 257.29,250.73 270.83,250.73 313.65,250.73 313.65,242.92 313.65,237.75 313.65,236.17 
      257.29,236.17 "/>
    <rect x="257.29" y="266.24" class="st2" width="56.36" height="7.04"/>
    <rect x="257.29" y="276.8" class="st2" width="56.36" height="7.04"/>
    <rect x="257.29" y="287.37" class="st2" width="56.36" height="7.04"/>
    <path class="st2" d="M285.47,304.98c-3.89,0-7.04,3.15-7.04,7.04c0,3.89,3.15,7.04,7.04,7.04c3.89,0,7.04-3.15,7.04-7.04
      C292.52,308.13,289.36,304.98,285.47,304.98z"/>
    <rect x="86.57" y="84.45" class="st2" width="56.36" height="14.56"/>
    <rect x="86.57" y="103.69" class="st2" width="56.36" height="14.56"/>
    <rect x="86.57" y="133.76" class="st2" width="56.36" height="7.04"/>
    <rect x="171.93" y="84.45" class="st2" width="56.36" height="14.56"/>
    <rect x="171.93" y="103.69" class="st2" width="56.36" height="14.56"/>
    <rect x="171.93" y="133.76" class="st2" width="56.36" height="7.04"/>
    <rect x="257.29" y="84.45" class="st2" width="56.36" height="14.56"/>
    <rect x="257.29" y="103.69" class="st2" width="56.36" height="14.56"/>
    <rect x="257.29" y="133.76" class="st2" width="56.36" height="7.04"/>
    <path class="st2" d="M355.09,179.24c-4.06-7.7-15.85-13.61-28.88-17.96V68.36h-81.49v66.65c-0.1,0-0.2-0.01-0.3-0.01
      c-1.22,0-2.42,0.25-3.58,0.75V68.36h-81.49v67.38l-0.13-0.05c-1.11-0.44-2.27-0.66-3.43-0.66c-0.1,0-0.21,0.01-0.31,0.01V68.36H74
      v92.92c-13.03,4.35-24.82,10.25-28.88,17.96c-0.97,1.84-1.51,3.78-1.51,5.83v32.61c0.24,1.26,0.68,2.48,1.3,3.66
      c4.09,7.75,15.98,13.67,29.1,18.03v92.27h81.49V253.3c1.28,0.09,2.58,0.17,3.87,0.26v78.08h81.49v-78.11
      c1.29-0.08,2.59-0.16,3.87-0.26v78.37h81.49v-92.41c12.95-4.34,24.62-10.22,28.66-17.88c0.97-1.84,1.51-3.78,1.51-5.83V182.9
      C356.15,181.64,355.72,180.42,355.09,179.24z M350.84,181.9c0.51,1.06,0.76,2.12,0.76,3.17v25.85c-0.07-0.07-0.15-0.13-0.22-0.2
      c-4.2-4.08-10.58-7.55-17.83-10.47c-2.33-0.94-4.75-1.81-7.21-2.64c-0.04-0.01-0.09-0.03-0.13-0.04c-2.57-0.86-5.19-1.66-7.8-2.4
      c-2.97-0.84-5.93-1.6-8.83-2.29c-17.39-4.16-38.19-7.2-60.86-8.99c-1.33-0.11-2.66-0.21-4-0.31c-1.28-0.09-2.58-0.17-3.87-0.26
      c-1.33-0.09-2.66-0.17-4-0.25c-0.06,0-0.13-0.01-0.19-0.01c-0.9-0.86-1.78-1.76-2.62-2.69l2.81-0.06l4-0.09l1.96-0.04
      c0.34,0.01,0.67,0.01,0.99,0.01c0.3,0,0.61-0.01,0.93-0.02c1.27-0.05,2.63-0.26,4-0.83c0.76-0.32,1.53-0.74,2.29-1.34
      c2.66-2.1,4.19-5.25,4.19-8.63l0-16.18c5.43,0.5,10.75,1.07,15.91,1.72c13.58,1.7,26.16,3.9,37.31,6.56
      c0.66,0.16,1.31,0.32,1.96,0.48c4.23,1.05,8.18,2.16,11.83,3.31c1.38,0.44,2.71,0.88,4,1.33
      C339.68,171.27,348.33,176.61,350.84,181.9z M260.67,200.84l2.98-1.67h50.44c1.35,0.36,2.67,0.72,3.96,1.1
      c-0.67,0.19-1.35,0.39-2.03,0.58H260.67z M244.73,204.06l-3.87,2.18l-0.27,0.15l-0.41,5.9l-0.35,5.03L239.5,222
      c-0.9-0.49-1.78-1.02-2.65-1.56c-1.36-0.85-2.69-1.76-3.98-2.72c-1.97-1.47-3.85-3.06-5.64-4.74c-2.71-2.54-5.2-5.29-7.49-8.15
      c-1.05-1.32-2.07-2.65-3.03-4c-0.4-0.56-0.77-1.11-1.15-1.67c-0.9-1.33-1.78-2.66-2.59-4c-1.67-2.73-3.14-5.46-4.41-8.09
      c-0.54-1.12-1.05-2.22-1.52-3.3c-0.19-0.43-0.36-0.85-0.54-1.27c0.07-0.15,0.13-0.29,0.19-0.45c0.07-0.18,0.13-0.35,0.18-0.54
      c0.18,0,0.37-0.01,0.6-0.01h4.48h16.55c0.31,0.4,0.63,0.79,0.95,1.18c1.6,1.91,3.35,3.66,5.16,5.27c0.74,0.66,1.49,1.29,2.25,1.9
      c1.34,1.08,2.69,2.08,4,2.99c1.34,0.94,2.65,1.78,3.87,2.53c3.07,1.88,5.62,3.16,6.94,3.79c0.62,0.3,0.98,0.45,0.98,0.45l-2.17,1.22
      L244.73,204.06z M160.72,222l-0.32-4.65l-0.35-5.03l-0.41-5.93l-0.27-0.15l-3.87-2.18l-5.74-3.23l-2.17-1.22
      c0,0,0.35-0.15,0.98-0.45c1.32-0.63,3.86-1.91,6.94-3.79c1.22-0.75,2.53-1.59,3.87-2.53c1.31-0.91,2.66-1.91,4-2.99
      c0.75-0.61,1.5-1.24,2.25-1.9c1.81-1.61,3.56-3.36,5.16-5.27c0.32-0.39,0.64-0.78,0.95-1.18h16.55h4.48c0.23,0,0.42,0.01,0.6,0.01
      c0.05,0.18,0.12,0.36,0.18,0.54c0.06,0.15,0.12,0.3,0.19,0.45c-0.18,0.42-0.35,0.84-0.54,1.27c-0.47,1.08-0.98,2.18-1.52,3.3
      c-1.28,2.63-2.75,5.36-4.42,8.09c-0.81,1.34-1.69,2.67-2.59,4c-0.38,0.56-0.75,1.12-1.15,1.67c-0.96,1.35-1.98,2.68-3.04,4
      c-2.29,2.86-4.79,5.62-7.51,8.16c-1.79,1.68-3.67,3.27-5.65,4.74c-1.28,0.95-2.59,1.86-3.95,2.7
      C162.5,220.99,161.62,221.51,160.72,222z M83.78,200.84c-0.61-0.17-1.22-0.34-1.81-0.51c1.35-0.39,2.75-0.78,4.17-1.16h50.45
      l2.97,1.67H83.78z M155.49,188.58c0.45-0.03,0.92-0.06,1.37-0.09c-0.46,0.32-0.92,0.64-1.37,0.94V188.58z M151.49,191.94
      c-3.41,1.99-5.85,3.07-5.91,3.09l-0.31,0.14h-41.55c14.34-2.78,30.49-4.89,47.76-6.27V191.94z M207.19,195.16h-14.16
      c1.75-3.09,3.14-5.88,4.17-8.13c0.97,0,1.94-0.02,2.91-0.02c0.98,0,1.94,0.01,2.91,0.02C204.05,189.28,205.44,192.07,207.19,195.16z
       M210.66,200.84h-21.09c0.37-0.56,0.73-1.12,1.07-1.67h18.94C209.93,199.72,210.29,200.27,210.66,200.84z M199.89,213.57
      c-6.77,0-13.45-0.11-20.05-0.32c2.59-2.75,4.91-5.6,6.96-8.41h26.62c2.05,2.81,4.36,5.65,6.95,8.4
      C213.63,213.45,206.8,213.57,199.89,213.57z M207.47,176.51h-0.04l-0.04,0c-0.39,0.01-0.7,0.01-0.92,0.01c-0.01,0-0.03,0-0.04,0
      l-4.63-0.62l-1.4-0.19l-1.94,0.24l-4.63,0.57c-0.02,0-0.05,0-0.07,0c-0.22,0-0.53-0.01-0.92-0.01l-0.04,0h-0.04h-2.07
      c-0.23-0.5-0.36-1.05-0.36-1.64v-12.92v-7.04v-1.78c0-0.63,0.16-1.21,0.42-1.74c0.1-0.2,0.2-0.39,0.33-0.56
      c0.72-1.01,1.9-1.68,3.24-1.68h11.62c1.34,0,2.52,0.67,3.24,1.68c0.13,0.18,0.23,0.37,0.33,0.56c0.26,0.53,0.42,1.12,0.42,1.74v1.78
      v7.04v12.92c0,0.59-0.13,1.14-0.36,1.64H207.47z M254.94,195.16l-0.32-0.14c-0.06-0.02-2.49-1.1-5.9-3.09v-3.04
      c17.27,1.38,33.43,3.48,47.76,6.27H254.94z M244.73,189.43c-0.45-0.3-0.91-0.62-1.37-0.94c0.45,0.03,0.92,0.06,1.37,0.09V189.43z
       M248.73,72.36h73.49v87.65c-2.85-0.87-5.73-1.67-8.57-2.4v-2.71h-11.72c-6.24-1.31-12.85-2.48-19.77-3.52h31.49v-7.04h-56.36v4.02
      c-0.69-0.07-1.39-0.13-2.09-0.19l0-2.01c0-3.34-1.57-6.57-4.2-8.63c-0.75-0.59-1.51-1.07-2.28-1.46V72.36z M242.81,140.35
      c0.56-0.24,1.1-0.35,1.62-0.35c0.1,0,0.2,0.01,0.3,0.02c1.17,0.09,2.25,0.69,3.2,1.44c0.3,0.23,0.56,0.5,0.8,0.78
      c0.94,1.08,1.48,2.47,1.48,3.92l0,1.58l0,5.01l0,16.62c0,1.46-0.54,2.84-1.48,3.92c-0.24,0.28-0.51,0.55-0.81,0.78
      c-0.97,0.77-1.98,1.02-3.19,1.09c-0.3,0.02-0.6,0.03-0.93,0.03c-0.31,0-0.64-0.01-0.99-0.01l-1.96,0.04l-4,0.09l-20.55,0.44l0-13.8
      l0-7.04l0-1.06l4.83-2.46l0.53-0.27l6.62-3.37l2.5-1.27l6.07-3.09l4-2.04L242.81,140.35z M163.36,72.36h73.49v65.41l-12.89,6.56
      h-16.17c-0.6-0.13-1.23-0.2-1.87-0.2H194.3c-0.64,0-1.27,0.07-1.87,0.2h-16.17l-12.89-6.56V72.36z M155.8,140.04
      c0.52,0,1.05,0.1,1.6,0.31l1.96,1l4,2.04l6.07,3.09l2.5,1.27l6.62,3.37l0.53,0.27l4.84,2.46v1.06v7.04v13.8l-20.55-0.44l-4-0.09
      l-1.96-0.04c-0.33,0.01-0.66,0.01-0.97,0.01c-0.33,0-0.64-0.01-0.95-0.03c-1.2-0.07-2.23-0.33-3.2-1.09c-0.3-0.23-0.56-0.5-0.8-0.78
      c-0.94-1.08-1.48-2.47-1.48-3.92l0-16.62l0-5.01l0-1.58c0-1.46,0.54-2.84,1.48-3.92c0.24-0.28,0.51-0.54,0.8-0.77
      c0.95-0.75,2.02-1.32,3.2-1.4C155.59,140.05,155.7,140.04,155.8,140.04z M78,72.36h73.49v63.71c-0.78,0.38-1.54,0.87-2.29,1.46
      c-2.65,2.08-4.18,5.23-4.18,8.62l0,2.01c-0.7,0.06-1.4,0.13-2.09,0.19v-4.02H86.57v7.04h31.49c-6.92,1.04-13.53,2.21-19.77,3.52
      H86.57v2.71c-2.84,0.73-5.72,1.53-8.57,2.4V72.36z M74,166.58c1.29-0.45,2.62-0.89,4-1.33c3.65-1.16,7.6-2.26,11.83-3.31
      c0.65-0.16,1.3-0.32,1.96-0.48c11.15-2.67,23.72-4.86,37.31-6.56c5.16-0.65,10.48-1.22,15.91-1.72l0,16.18
      c0,3.38,1.53,6.53,4.19,8.63c0.76,0.6,1.53,1.02,2.29,1.34c1.37,0.57,2.73,0.78,4,0.83c0.32,0.01,0.64,0.02,0.95,0.02
      c0.31,0,0.63-0.01,0.97-0.01l1.96,0.04l4,0.09l2.81,0.06c-0.83,0.94-1.71,1.84-2.62,2.69c-0.06,0-0.13,0.01-0.19,0.01
      c-1.34,0.08-2.67,0.16-4,0.25c-1.29,0.08-2.59,0.16-3.87,0.26c-1.34,0.1-2.67,0.2-4,0.31c-22.67,1.79-43.47,4.83-60.86,8.99
      c-2.89,0.69-5.86,1.46-8.83,2.29c-2.62,0.74-5.23,1.54-7.8,2.4c-0.12,0.04-0.24,0.08-0.35,0.12c-2.46,0.83-4.88,1.71-7.21,2.65
      c-7.28,2.95-13.68,6.45-17.83,10.58v-21.05v-4.8c0-0.88,0.19-1.77,0.55-2.65C51.34,176.96,60.1,171.42,74,166.58z M49.16,218.69
      c2.16-5.41,10.79-10.9,24.5-15.71c0.12,0.04,0.23,0.08,0.35,0.12v30.98C60.41,229.37,51.68,224,49.16,218.69z M151.49,327.64H78v-87
      v-5.24v-30.56h1.58h21.04h46.05l4.82,2.71v4.16v5.01v31.26v5.01V327.64z M155.49,248.29v-29.4l0.24,3.46l0.54,7.76l3.09-1.68v20.11
      C158.07,248.46,156.77,248.38,155.49,248.29z M236.85,327.64h-73.49V253.8v-5.01v-22.55c3.07-1.69,5.92-3.62,8.57-5.71v10.95h56.36
      v-10.96c2.65,2.09,5.5,4.03,8.57,5.71v22.53v5.01V327.64z M240.85,248.51v-20.09l3.1,1.68l0.54-7.76l0.24-3.43v29.34
      C243.45,248.35,242.15,248.43,240.85,248.51z M322.21,327.64h-73.49v-74.68v-5.01v-31.26v-5.01v-4.12l4.82-2.71h45.61h21.04h2.01
      v30.42v5.24V327.64z M326.21,233.93v-30.98c0.05-0.02,0.09-0.03,0.14-0.05c13.39,4.68,21.99,10,24.49,15.27
      C348.67,223.59,340,229.1,326.21,233.93z"/>
  </g>
</svg>