<!--Scalable Vector Graphic-->
<svg id="symbol-000101" data-svg-name="Ansible Common" data-svg-color="2" version="1.1" xmlns="http://www.w3.org/2000/svg" x="0px" y="0px" width="400px" height="400px" viewBox="0 0 400 400">
  <g>
    <path class="st0" d="M233.47,107.15c-3.68-8.68-8.22-14.52-12.83-18.47c-5.76-4.94-11.61-6.88-16.05-7.6
      c-1.79-0.29-3.37-0.4-4.59-0.4c-6.69,0-23.34,2.58-33.47,26.47L76.6,319.32h19.1h27.18L200,137.36l60.08,141.76l-48.45-30.76
      c5.65-4.66,13.02-7.39,21.29-7.39c-18.81,0-32.92-14.11-32.92-32.92c0,18.81-14.11,32.92-32.92,32.92
      c18.81,0,32.92,14.11,32.92,32.92c0-9.37,3.5-17.57,9.33-23.44l67.79,68.87h46.27L233.47,107.15z"/>
    <path class="st1" d="M233.47,107.15c-3.68-8.68-8.22-14.52-12.83-18.47L200,137.36l60.08,141.76l63.31,40.2L233.47,107.15z"/>
    <path d="M220.64,88.68c-5.76-4.94-11.61-6.88-16.05-7.6c-1.79-0.29-3.37-0.4-4.59-0.4c-6.69,0-23.34,2.58-33.47,26.47L76.6,319.32
      h19.1h27.18L200,137.36L220.64,88.68z"/>
    <path d="M323.4,319.32l-63.31-40.2l-48.45-30.76c5.65-4.66,13.02-7.39,21.29-7.39c-18.81,0-32.92-14.11-32.92-32.92
      c0,18.81-14.11,32.92-32.92,32.92c18.81,0,32.92,14.11,32.92,32.92c0-9.37,3.5-17.57,9.33-23.44l67.79,68.87H323.4z"/>
  </g>
</svg>