<!--Scalable Vector Graphic-->
<svg id="symbol-000015" data-svg-name="Conductor" data-svg-color="2" version="1.1" xmlns="http://www.w3.org/2000/svg" x="0px" y="0px" width="400px" height="400px" viewBox="0 0 400 400">
  <g>
<path class="st0" d="M271.72,86.09c0.2,17.88,14.65,32.33,32.53,32.53C301.93,101.31,289.03,88.41,271.72,86.09z"/>
<path class="st0" d="M304.25,52.8c-17.88,0.2-32.33,14.65-32.53,32.53C289.03,83.02,301.93,70.11,304.25,52.8z"/>
<path class="st0" d="M324.14,85.71c-3.65,0-7-0.89-9.85-2.49c-3.02-1.69-5.49-4.15-7.17-7.17c-1.59-2.86-2.49-6.2-2.49-9.85
	c0,3.65-0.89,7-2.49,9.85c-1.69,3.02-4.15,5.49-7.17,7.17c-2.86,1.59-6.2,2.49-9.85,2.49c3.65,0,7,0.89,9.85,2.49
	c3.02,1.69,5.49,4.15,7.17,7.17c1.59,2.86,2.49,6.2,2.49,9.85c0-3.65,0.89-7,2.49-9.85c1.69-3.02,4.15-5.49,7.17-7.17
	C317.15,86.61,320.49,85.71,324.14,85.71z"/>
<path class="st0" d="M305.01,52.8c2.32,17.31,15.22,30.22,32.53,32.53C337.34,67.45,322.89,53,305.01,52.8z"/>
<path class="st0" d="M305.01,118.63c17.88-0.2,32.33-14.65,32.53-32.53C320.23,88.41,307.32,101.31,305.01,118.63z"/>
<path class="st0" d="M356.1,80.61c-2.57-26.21-24.67-46.75-51.47-46.75c-28.52,0-51.72,23.26-51.72,51.86
	c0,28.59,23.2,51.86,51.72,51.86c26.8,0,48.91-20.55,51.47-46.75H400V80.61H356.1z M304.63,127.36c-22.89,0-41.52-18.68-41.52-41.65
	c0-22.97,18.63-41.65,41.52-41.65s41.52,18.68,41.52,41.65C346.15,108.68,327.52,127.36,304.63,127.36z"/>
<path class="st0" d="M305.01,232.91c17.88-0.2,32.33-14.65,32.53-32.53C320.23,202.69,307.32,215.6,305.01,232.91z"/>
<path class="st0" d="M271.72,200.38c0.2,17.88,14.65,32.33,32.53,32.53C301.93,215.6,289.03,202.69,271.72,200.38z"/>
<path class="st0" d="M324.14,200c-3.65,0-7-0.89-9.85-2.49c-3.02-1.69-5.49-4.15-7.17-7.17c-1.59-2.86-2.49-6.2-2.49-9.85
	c0,3.65-0.89,7-2.49,9.85c-1.69,3.02-4.15,5.49-7.17,7.17c-2.86,1.59-6.2,2.49-9.85,2.49c3.65,0,7,0.89,9.85,2.49
	c3.02,1.69,5.49,4.15,7.17,7.17c1.59,2.86,2.49,6.2,2.49,9.85c0-3.65,0.89-7,2.49-9.85c1.69-3.02,4.15-5.49,7.17-7.17
	C317.15,200.89,320.49,200,324.14,200z"/>
<path class="st0" d="M305.01,167.09c2.32,17.31,15.22,30.22,32.53,32.53C337.34,181.74,322.89,167.29,305.01,167.09z"/>
<path class="st0" d="M304.25,167.09c-17.88,0.2-32.33,14.65-32.53,32.53C289.03,197.31,301.93,184.4,304.25,167.09z"/>
<path class="st0" d="M304.63,148.14c-28.52,0-51.72,23.26-51.72,51.86s23.2,51.86,51.72,51.86c26.8,0,48.91-20.55,51.47-46.75H400
	V194.9h-43.9C353.54,168.69,331.43,148.14,304.63,148.14z M304.63,241.65c-22.89,0-41.52-18.68-41.52-41.65s18.63-41.65,41.52-41.65
	s41.52,18.68,41.52,41.65S327.52,241.65,304.63,241.65z"/>
<path class="st0" d="M324.14,314.29c-3.65,0-7-0.89-9.85-2.49c-3.02-1.69-5.49-4.15-7.17-7.17c-1.59-2.86-2.49-6.2-2.49-9.85
	c0,3.65-0.89,7-2.49,9.85c-1.69,3.02-4.15,5.49-7.17,7.17c-2.86,1.59-6.2,2.49-9.85,2.49c3.65,0,7,0.89,9.85,2.49
	c3.02,1.69,5.49,4.15,7.17,7.17c1.59,2.86,2.49,6.2,2.49,9.85c0-3.65,0.89-7,2.49-9.85c1.69-3.02,4.15-5.49,7.17-7.17
	C317.15,315.18,320.49,314.29,324.14,314.29z"/>
<path class="st0" d="M305.01,281.37c2.32,17.31,15.22,30.22,32.53,32.53C337.34,296.03,322.89,281.58,305.01,281.37z"/>
<path class="st0" d="M304.25,281.37c-17.88,0.2-32.33,14.65-32.53,32.53C289.03,311.59,301.93,298.69,304.25,281.37z"/>
<path class="st0" d="M271.72,314.67c0.2,17.88,14.65,32.33,32.53,32.53C301.93,329.89,289.03,316.98,271.72,314.67z"/>
<path class="st0" d="M305.01,347.2c17.88-0.2,32.33-14.65,32.53-32.53C320.23,316.98,307.32,329.89,305.01,347.2z"/>
<path class="st0" d="M304.63,262.43c-28.52,0-51.72,23.26-51.72,51.86c0,28.59,23.2,51.86,51.72,51.86
	c26.8,0,48.91-20.55,51.47-46.75H400v-10.21h-43.9C353.54,282.98,331.43,262.43,304.63,262.43z M304.63,355.94
	c-22.89,0-41.52-18.68-41.52-41.65c0-22.97,18.63-41.65,41.52-41.65s41.52,18.68,41.52,41.65
	C346.15,337.25,327.52,355.94,304.63,355.94z"/>
<path class="st0" d="M227.41,111.99l16.59-26.27l-16.59-26.28h-0.17v21.17H194.9V194.9h-50.06v-49.87H90
	c-30.24,0-54.83,24.66-54.83,54.97s24.6,54.97,54.83,54.97h54.83V205.1h50.06v114.29h32.34v21.17h0.17l16.59-26.27l-16.59-26.28
	h-0.17v21.17H205.1V205.1h22.14v21.17h0.17L244.01,200l-16.59-26.28h-0.17v21.17H205.1V90.82h22.14v21.17H227.41z M134.63,244.77H90
	c-24.61,0-44.63-20.08-44.63-44.77S65.39,155.23,90,155.23h44.63V244.77z"/>
<path class="st0" d="M75.54,189.28c0,3.85,1.15,7.02,3.44,9.49c2.3,2.47,5.63,4.2,10.01,5.19s7.47,1.65,9.29,1.98
	c2.53,0.6,4.25,1.37,5.16,2.28c0.91,0.92,1.36,2.15,1.36,3.7c0,1.99-0.95,3.55-2.86,4.67s-4.41,1.68-7.52,1.68
	c-3,0-6.13-0.6-9.39-1.81c-3.26-1.21-6.14-2.84-8.65-4.9h-1.14v10.72c6.2,2.64,12.53,3.96,18.98,3.96c6.63,0,11.95-1.5,15.97-4.5
	s6.03-6.97,6.03-11.89c0-1.68-0.23-3.21-0.69-4.6c-0.46-1.39-1.15-2.65-2.08-3.78c-0.93-1.13-2.17-2.18-3.73-3.14
	s-3.92-1.83-7.09-2.6c-3.17-0.77-6.04-1.39-8.62-1.86c-2.58-0.6-4.4-1.38-5.46-2.32c-1.06-0.94-1.6-2.21-1.6-3.8
	c0-1.86,0.94-3.33,2.81-4.4s4.25-1.61,7.14-1.61c6.09,0,11.49,1.9,16.19,5.71h1.11v-10.25c-5.51-2.28-11.4-3.43-17.67-3.43
	c-6.16,0-11.2,1.44-15.12,4.32C77.5,180.96,75.54,184.69,75.54,189.28z"/>
<path d="M356.1,80.61c-2.57-26.21-24.67-46.75-51.47-46.75c-28.52,0-51.72,23.26-51.72,51.86c0,28.59,23.2,51.86,51.72,51.86
	c26.8,0,48.91-20.55,51.47-46.75H400V80.61H356.1z M304.63,127.36c-22.89,0-41.52-18.68-41.52-41.65
	c0-22.97,18.63-41.65,41.52-41.65s41.52,18.68,41.52,41.65C346.15,108.68,327.52,127.36,304.63,127.36z"/>
<path d="M110.2,221.73c4.02-3,6.03-6.97,6.03-11.89c0-1.68-0.23-3.21-0.69-4.6c-0.46-1.39-1.15-2.65-2.08-3.78
	c-0.93-1.13-2.17-2.18-3.73-3.14s-3.92-1.83-7.09-2.6c-3.17-0.77-6.04-1.39-8.62-1.86c-2.58-0.6-4.4-1.38-5.46-2.32
	c-1.06-0.94-1.6-2.21-1.6-3.8c0-1.86,0.94-3.33,2.81-4.4s4.25-1.61,7.14-1.61c6.09,0,11.49,1.9,16.19,5.71h1.11v-10.25
	c-5.51-2.28-11.4-3.43-17.67-3.43c-6.16,0-11.2,1.44-15.12,4.32c-3.92,2.88-5.88,6.61-5.88,11.2c0,3.85,1.15,7.02,3.44,9.49
	c2.3,2.47,5.63,4.2,10.01,5.19s7.47,1.65,9.29,1.98c2.53,0.6,4.25,1.37,5.16,2.28c0.91,0.92,1.36,2.15,1.36,3.7
	c0,1.99-0.95,3.55-2.86,4.67s-4.41,1.68-7.52,1.68c-3,0-6.13-0.6-9.39-1.81c-3.26-1.21-6.14-2.84-8.65-4.9h-1.14v10.72
	c6.2,2.64,12.53,3.96,18.98,3.96C100.85,226.24,106.18,224.74,110.2,221.73z"/>
<path d="M304.63,66.2c0,3.65-0.89,7-2.49,9.85c-1.69,3.02-4.15,5.49-7.17,7.17c-2.86,1.59-6.2,2.49-9.85,2.49
	c3.65,0,7,0.89,9.85,2.49c3.02,1.69,5.49,4.15,7.17,7.17c1.59,2.86,2.49,6.2,2.49,9.85c0-3.65,0.89-7,2.49-9.85
	c1.69-3.02,4.15-5.49,7.17-7.17c2.86-1.59,6.2-2.49,9.85-2.49c-3.65,0-7-0.89-9.85-2.49c-3.02-1.69-5.49-4.15-7.17-7.17
	C305.52,73.2,304.63,69.85,304.63,66.2z"/>
<path d="M304.63,148.14c-28.52,0-51.72,23.26-51.72,51.86s23.2,51.86,51.72,51.86c26.8,0,48.91-20.55,51.47-46.75H400V194.9h-43.9
	C353.54,168.69,331.43,148.14,304.63,148.14z M304.63,241.65c-22.89,0-41.52-18.68-41.52-41.65s18.63-41.65,41.52-41.65
	s41.52,18.68,41.52,41.65S327.52,241.65,304.63,241.65z"/>
<path d="M304.63,180.49c0,3.65-0.89,7-2.49,9.85c-1.69,3.02-4.15,5.49-7.17,7.17c-2.86,1.59-6.2,2.49-9.85,2.49
	c3.65,0,7,0.89,9.85,2.49c3.02,1.69,5.49,4.15,7.17,7.17c1.59,2.86,2.49,6.2,2.49,9.85c0-3.65,0.89-7,2.49-9.85
	c1.69-3.02,4.15-5.49,7.17-7.17c2.86-1.59,6.2-2.49,9.85-2.49c-3.65,0-7-0.89-9.85-2.49c-3.02-1.69-5.49-4.15-7.17-7.17
	C305.52,187.48,304.63,184.14,304.63,180.49z"/>
<path d="M304.63,262.43c-28.52,0-51.72,23.26-51.72,51.86c0,28.59,23.2,51.86,51.72,51.86c26.8,0,48.91-20.55,51.47-46.75H400
	v-10.21h-43.9C353.54,282.98,331.43,262.43,304.63,262.43z M304.63,355.94c-22.89,0-41.52-18.68-41.52-41.65
	c0-22.97,18.63-41.65,41.52-41.65s41.52,18.68,41.52,41.65C346.15,337.25,327.52,355.94,304.63,355.94z"/>
<path d="M304.63,294.78c0,3.65-0.89,7-2.49,9.85c-1.69,3.02-4.15,5.49-7.17,7.17c-2.86,1.59-6.2,2.49-9.85,2.49
	c3.65,0,7,0.89,9.85,2.49c3.02,1.69,5.49,4.15,7.17,7.17c1.59,2.86,2.49,6.2,2.49,9.85c0-3.65,0.89-7,2.49-9.85
	c1.69-3.02,4.15-5.49,7.17-7.17c2.86-1.59,6.2-2.49,9.85-2.49c-3.65,0-7-0.89-9.85-2.49c-3.02-1.69-5.49-4.15-7.17-7.17
	C305.52,301.77,304.63,298.42,304.63,294.78z"/>
<path d="M227.41,111.99l16.59-26.27l-16.59-26.28h-0.17v21.17H194.9V194.9h-50.06v-49.87H90c-30.24,0-54.83,24.66-54.83,54.97
	s24.6,54.97,54.83,54.97h54.83V205.1h50.06v114.29h32.34v21.17h0.17l16.59-26.27l-16.59-26.28h-0.17v21.17H205.1V205.1h22.14v21.17
	h0.17L244.01,200l-16.59-26.28h-0.17v21.17H205.1V90.82h22.14v21.17H227.41z M90,155.23h44.63v89.54H90
	c-24.61,0-44.63-20.08-44.63-44.77S65.39,155.23,90,155.23z"/>
<path class="st1" d="M271.72,86.09c0.2,17.88,14.65,32.33,32.53,32.53C301.93,101.31,289.03,88.41,271.72,86.09z"/>
<path class="st1" d="M305.01,118.63c17.88-0.2,32.33-14.65,32.53-32.53C320.23,88.41,307.32,101.31,305.01,118.63z"/>
<path class="st1" d="M337.54,85.33c-0.2-17.88-14.65-32.33-32.53-32.53C307.32,70.11,320.23,83.02,337.54,85.33z"/>
<path class="st1" d="M271.72,85.33c17.31-2.32,30.22-15.22,32.53-32.53C286.37,53,271.92,67.45,271.72,85.33z"/>
<path class="st1" d="M271.72,200.38c0.2,17.88,14.65,32.33,32.53,32.53C301.93,215.6,289.03,202.69,271.72,200.38z"/>
<path class="st1" d="M271.72,199.62c17.31-2.32,30.22-15.22,32.53-32.53C286.37,167.29,271.92,181.74,271.72,199.62z"/>
<path class="st1" d="M305.01,167.09c2.32,17.31,15.22,30.22,32.53,32.53C337.34,181.74,322.89,167.29,305.01,167.09z"/>
<path class="st1" d="M305.01,232.91c17.88-0.2,32.33-14.65,32.53-32.53C320.23,202.69,307.32,215.6,305.01,232.91z"/>
<path class="st1" d="M271.72,313.91c17.31-2.32,30.22-15.22,32.53-32.53C286.37,281.58,271.92,296.03,271.72,313.91z"/>
<path class="st1" d="M305.01,281.37c2.32,17.31,15.22,30.22,32.53,32.53C337.34,296.03,322.89,281.58,305.01,281.37z"/>
<path class="st1" d="M271.72,314.67c0.2,17.88,14.65,32.33,32.53,32.53C301.93,329.89,289.03,316.98,271.72,314.67z"/>
<path class="st1" d="M305.01,347.2c17.88-0.2,32.33-14.65,32.53-32.53C320.23,316.98,307.32,329.89,305.01,347.2z"/>
  </g>
</svg>