<!--Scalable Vector Graphic-->
<svg id="symbol-000016" data-svg-name="Comparison" data-svg-color="3" version="1.1" xmlns="http://www.w3.org/2000/svg" x="0px" y="0px" width="400px" height="400px" viewBox="0 0 400 400">
<g>
<path class="st0" d="M333.78,230.97h-57.74v-19.17h13.94l-20.94-36.27l-20.94,36.27h13.94v19.17H117.66v27.38h47.84v7.26h-47.84
	v77.92h216.12c3.5,0,6.35-2.85,6.35-6.35V265.6H231.42c-0.37-2.32-1.03-4.87-2.16-7.42c0.02,0.05,0.05,0.11,0.07,0.16h110.8v-21.03
	C340.13,233.82,337.28,230.97,333.78,230.97z"/>
<path class="st0" d="M66.22,169.55h44.18V91.64H59.87v71.57C59.87,166.7,62.72,169.55,66.22,169.55z"/>
<path class="st0" d="M110.4,57H66.22c-3.5,0-6.35,2.85-6.35,6.35v21.03h50.53V57z"/>
<path class="st0" d="M59.87,337.17c0,3.5,2.85,6.35,6.35,6.35h44.18V265.6H59.87V337.17z"/>
<path class="st0" d="M59.87,237.32v21.03h50.53v-27.38H66.22C62.72,230.97,59.87,233.82,59.87,237.32z"/>
<path class="st0" d="M177.04,84.38h-59.38V57h216.12c3.5,0,6.35,2.85,6.35,6.35v21.03H222.96l1.84,7.26h115.33v71.57
	c0,3.5-2.85,6.35-6.35,6.35H137.96v20.34h13.94l-20.94,36.27l-20.94-36.27h13.94v-20.34h-6.31V91.64h57.54L177.04,84.38z"/>
<path d="M224.8,91.64l-3.99-15.73c-1.35-5.32-6.14-9.05-11.63-9.05h-18.36c-5.49,0-10.28,3.73-11.63,9.05l-3.99,15.73
	h-57.54v77.92h6.31v20.34h-13.94l20.94,36.27l20.94-36.27h-13.94v-20.34h195.81c3.5,0,6.35-2.85,6.35-6.35V91.64H224.8z"/>
<path class="st1" d="M333.78,230.97h-57.74v-19.17h13.94l-20.94-36.27l-20.94,36.27h13.94v19.17H117.66v27.38h47.84v-4.36
	c0-6.63,5.37-12,12-12h20.65c19.24,0,27.62,8.15,31.19,16.36h110.8v-21.03C340.13,233.82,337.28,230.97,333.78,230.97z"/>
<path d="M231.42,265.6c-1.56-9.78-8.2-23.61-33.27-23.61h-20.65c-6.63,0-12,5.37-12,12v11.61h-47.84v77.92h216.12
	c3.5,0,6.35-2.85,6.35-6.35V265.6H231.42z"/>
<path d="M66.22,169.55h44.18V91.64H59.87v71.57C59.87,166.7,62.72,169.55,66.22,169.55z"/>
<path class="st1" d="M110.4,57H66.22c-3.5,0-6.35,2.85-6.35,6.35v21.03h50.53V57z"/>
<path d="M66.22,343.52h44.18V265.6H59.87v71.57C59.87,340.67,62.72,343.52,66.22,343.52z"/>
<path class="st1" d="M110.4,230.97H66.22c-3.5,0-6.35,2.85-6.35,6.35v21.03h50.53V230.97z"/>
<path class="st1" d="M99.69,110.11H71.63c-1.66,0-3-1.34-3-3s1.34-3,3-3h28.06c1.66,0,3,1.34,3,3S101.35,110.11,99.69,110.11z"/>
<path class="st2" d="M99.69,133.59H71.63c-1.66,0-3-1.34-3-3s1.34-3,3-3h28.06c1.66,0,3,1.34,3,3S101.35,133.59,99.69,133.59z"/>
<path class="st1" d="M99.69,157.08H71.63c-1.66,0-3-1.34-3-3s1.34-3,3-3h28.06c1.66,0,3,1.34,3,3S101.35,157.08,99.69,157.08z"/>
<path class="st1" d="M159.86,110.11H131.8c-1.66,0-3-1.34-3-3s1.34-3,3-3h28.06c1.66,0,3,1.34,3,3S161.51,110.11,159.86,110.11z"/>
<path class="st1" d="M159.86,133.59H131.8c-1.66,0-3-1.34-3-3s1.34-3,3-3h28.06c1.66,0,3,1.34,3,3S161.51,133.59,159.86,133.59z"/>
<path class="st1" d="M159.86,157.08H131.8c-1.66,0-3-1.34-3-3s1.34-3,3-3h28.06c1.66,0,3,1.34,3,3S161.51,157.08,159.86,157.08z"/>
<path class="st1" d="M272.11,110.11h-28.06c-1.66,0-3-1.34-3-3s1.34-3,3-3h28.06c1.66,0,3,1.34,3,3S273.76,110.11,272.11,110.11z"/>
<path class="st1" d="M272.11,133.59h-28.06c-1.66,0-3-1.34-3-3s1.34-3,3-3h28.06c1.66,0,3,1.34,3,3S273.76,133.59,272.11,133.59z"/>
<path class="st1" d="M272.11,157.08h-28.06c-1.66,0-3-1.34-3-3s1.34-3,3-3h28.06c1.66,0,3,1.34,3,3S273.76,157.08,272.11,157.08z"/>
<path class="st2" d="M327.11,110.11h-28.06c-1.66,0-3-1.34-3-3s1.34-3,3-3h28.06c1.66,0,3,1.34,3,3S328.77,110.11,327.11,110.11z"/>
<path class="st1" d="M327.11,133.59h-28.06c-1.66,0-3-1.34-3-3s1.34-3,3-3h28.06c1.66,0,3,1.34,3,3S328.77,133.59,327.11,133.59z"/>
<path class="st1" d="M327.11,157.08h-28.06c-1.66,0-3-1.34-3-3s1.34-3,3-3h28.06c1.66,0,3,1.34,3,3S328.77,157.08,327.11,157.08z"/>
<path class="st1" d="M100.59,284.08H72.53c-1.66,0-3-1.34-3-3s1.34-3,3-3h28.06c1.66,0,3,1.34,3,3S102.25,284.08,100.59,284.08z"/>
<path class="st2" d="M100.59,307.56H72.53c-1.66,0-3-1.34-3-3s1.34-3,3-3h28.06c1.66,0,3,1.34,3,3S102.25,307.56,100.59,307.56z"/>
<path class="st1" d="M100.59,331.04H72.53c-1.66,0-3-1.34-3-3s1.34-3,3-3h28.06c1.66,0,3,1.34,3,3S102.25,331.04,100.59,331.04z"/>
<path class="st1" d="M160.76,284.08H132.7c-1.66,0-3-1.34-3-3s1.34-3,3-3h28.06c1.66,0,3,1.34,3,3S162.42,284.08,160.76,284.08z"/>
<path class="st1" d="M160.76,307.56H132.7c-1.66,0-3-1.34-3-3s1.34-3,3-3h28.06c1.66,0,3,1.34,3,3S162.42,307.56,160.76,307.56z"/>
<path class="st1" d="M160.76,331.04H132.7c-1.66,0-3-1.34-3-3s1.34-3,3-3h28.06c1.66,0,3,1.34,3,3S162.42,331.04,160.76,331.04z"/>
<path class="st1" d="M273.01,284.08h-28.06c-1.66,0-3-1.34-3-3s1.34-3,3-3h28.06c1.66,0,3,1.34,3,3S274.67,284.08,273.01,284.08z"/>
<path class="st1" d="M273.01,307.56h-28.06c-1.66,0-3-1.34-3-3s1.34-3,3-3h28.06c1.66,0,3,1.34,3,3S274.67,307.56,273.01,307.56z"/>
<path class="st1" d="M273.01,331.04h-28.06c-1.66,0-3-1.34-3-3s1.34-3,3-3h28.06c1.66,0,3,1.34,3,3S274.67,331.04,273.01,331.04z"/>
<path class="st2" d="M328.01,284.08h-28.06c-1.66,0-3-1.34-3-3s1.34-3,3-3h28.06c1.66,0,3,1.34,3,3S329.67,284.08,328.01,284.08z"/>
<path class="st1" d="M328.01,307.56h-28.06c-1.66,0-3-1.34-3-3s1.34-3,3-3h28.06c1.66,0,3,1.34,3,3S329.67,307.56,328.01,307.56z"/>
<path class="st1" d="M328.01,331.04h-28.06c-1.66,0-3-1.34-3-3s1.34-3,3-3h28.06c1.66,0,3,1.34,3,3S329.67,331.04,328.01,331.04z"/>
<path class="st1" d="M333.78,57H117.66v27.38h59.38l2.15-8.48c1.35-5.32,6.14-9.05,11.63-9.05h18.36c5.49,0,10.28,3.73,11.63,9.05
	l2.15,8.48h117.17V63.35C340.13,59.85,337.28,57,333.78,57z"/>
<path class="st2" d="M210.59,147.7h16.06l-17.47-68.84h-18.36l-17.47,68.84h15.53l2.85-14.61h16.01L210.59,147.7z M194.48,118.99
	l0.93-4.77c1.41-6.57,2.82-14.83,4.06-21.82h0.35c1.41,6.88,2.82,15.25,4.24,21.82l0.93,4.77H194.48z"/>
<path class="st2" d="M177.49,253.99h20.65c12,0,21.71,3.6,21.71,17.16c0,5.93-2.82,12.71-7.24,14.83v0.42
	c5.47,1.91,9.88,6.99,9.88,16.1c0,14.19-10.24,20.33-22.59,20.33h-22.42V253.99z M197.79,280.89c4.94,0,7.24-2.75,7.24-6.99
	s-2.29-5.93-7.24-5.93h-5.12v12.92H197.79z M198.85,308.85c6,0,8.83-2.54,8.83-7.63c0-5.08-2.82-6.99-8.83-6.99h-6.18v14.62H198.85z
	"/>
  </g>
</svg>