<!--Scalable Vector Graphic-->
<svg id="symbol-000121" data-svg-name="DSC Driver" data-svg-color="2" version="1.1" xmlns="http://www.w3.org/2000/svg" x="0px" y="0px" width="400px" height="400px" viewBox="0 0 400 400">
  <g>
    <path class="st0" d="M250.01,215.81c0.87-4.3-0.14-8.38-2.78-11.24l-18.81-20.75L143.6,92.5c-2.32-2.51-5.59-3.75-9.09-3.74
      c-4.09,0-8.5,1.69-12.09,5c-6.65,6.11-7.94,15.49-2.87,20.93l74.33,80L88.86,271.48c-7.3,5.31-9.86,14.69-5.78,20.91
      c0.56,0.85,1.21,1.59,1.93,2.23c-0.3-0.27-0.59-0.55-0.87-0.85l18.81,20.75c2.3,2.53,5.61,3.83,9.2,3.83
      c3.39,0,7.07-1.18,10.31-3.55l120.14-87.85C246.42,224.15,249.12,220.09,250.01,215.81z M88.61,296.75c-0.27-0.1-0.54-0.22-0.8-0.34
      C88.07,296.54,88.34,296.65,88.61,296.75z M87.34,296.19c-0.28-0.14-0.55-0.3-0.81-0.47C86.79,295.89,87.06,296.05,87.34,296.19z
       M86.15,295.5c-0.38-0.26-0.75-0.53-1.09-0.84C85.4,294.96,85.77,295.24,86.15,295.5z M91.9,297.52c0.48,0.05,0.96,0.08,1.45,0.08
      C92.86,297.6,92.38,297.57,91.9,297.52z M89.12,296.93c0.28,0.09,0.56,0.17,0.85,0.24C89.69,297.1,89.4,297.02,89.12,296.93z
       M90.49,297.3c0.31,0.07,0.63,0.11,0.95,0.16C91.12,297.41,90.8,297.36,90.49,297.3z"/>
    <path class="st0" d="M291.35,276.87c0.06,0.07,0.11,0.15,0.18,0.22c-1.95-2.27-4.9-3.68-8.45-3.68h-68.36
      c-7.37,0-14.53,5.98-15.98,13.35c-0.8,4.04,0.3,7.66,2.65,10.11c-0.07-0.07-0.15-0.14-0.21-0.21l18.81,20.75
      c1.95,2.15,4.83,3.46,8.28,3.46h68.36c7.37,0,14.53-5.98,15.98-13.35c0.77-3.92-0.23-7.45-2.44-9.89L291.35,276.87z M294.05,283.99
      c0-0.18-0.02-0.35-0.03-0.53C294.03,283.64,294.04,283.81,294.05,283.99z M292.26,278.05c-0.1-0.15-0.21-0.3-0.32-0.44
      C292.05,277.75,292.16,277.9,292.26,278.05z M293.95,282.67c-0.02-0.18-0.06-0.36-0.09-0.54
      C293.89,282.31,293.93,282.49,293.95,282.67z M293.72,281.41c-0.04-0.18-0.1-0.35-0.15-0.53
      C293.62,281.06,293.68,281.23,293.72,281.41z M293.36,280.22c-0.06-0.17-0.14-0.34-0.21-0.51
      C293.22,279.88,293.3,280.04,293.36,280.22z M292.87,279.09c-0.08-0.16-0.17-0.32-0.26-0.48
      C292.7,278.77,292.79,278.93,292.87,279.09z M202.22,297.64c-0.16-0.13-0.32-0.27-0.47-0.41
      C201.9,297.37,202.06,297.51,202.22,297.64z M203.14,298.32c-0.18-0.12-0.35-0.23-0.52-0.36
      C202.79,298.08,202.96,298.2,203.14,298.32z M208.15,300.05c0.43,0.04,0.86,0.07,1.31,0.07
      C209.01,300.12,208.57,300.09,208.15,300.05z M203.57,298.59c0.19,0.11,0.38,0.21,0.57,0.31
      C203.95,298.8,203.76,298.7,203.57,298.59z M204.61,299.12c0.21,0.09,0.42,0.17,0.63,0.25
      C205.03,299.29,204.81,299.21,204.61,299.12z M205.72,299.55c0.23,0.07,0.47,0.13,0.71,0.19
      C206.19,299.68,205.95,299.62,205.72,299.55z M206.9,299.86c0.27,0.06,0.55,0.09,0.83,0.13
      C207.45,299.95,207.17,299.91,206.9,299.86z M294.02,284.9c-0.01,0.15-0.01,0.3-0.02,0.45C294.01,285.2,294.01,285.05,294.02,284.9z
      "/>
    <path class="st0" d="M275.46,165.94c0-24.8,18.6-43.4,43.4-43.4c-24.8,0-43.4-18.59-43.4-43.39c0,24.8-18.6,43.39-43.4,43.39
      C256.85,122.53,275.46,141.14,275.46,165.94z"/>
    <path class="st1" d="M250.01,215.81c0.87-4.3-0.14-8.38-2.78-11.24l-18.81-20.75c2.64,2.86,3.65,6.94,2.78,11.24
      c-0.9,4.27-3.59,8.33-7.4,11.13l-120.14,87.85c-3.25,2.38-6.92,3.55-10.31,3.55c-3.59,0-6.91-1.29-9.2-3.83l18.81,20.75
      c2.3,2.53,5.61,3.83,9.2,3.83c3.39,0,7.07-1.18,10.31-3.55l120.14-87.85C246.42,224.15,249.12,220.09,250.01,215.81z"/>
    <path class="st1" d="M310.16,297.62l-18.81-20.75c2.21,2.44,3.21,5.97,2.44,9.89c-1.45,7.37-8.61,13.35-15.98,13.35h-68.36
      c-3.45,0-6.33-1.31-8.28-3.46l18.81,20.75c1.95,2.15,4.83,3.46,8.28,3.46h68.36c7.37,0,14.53-5.98,15.98-13.35
      C313.37,303.6,312.38,300.07,310.16,297.62z"/>
    <path d="M231.21,195.06c0.87-4.3-0.14-8.38-2.78-11.24L143.6,92.5c-2.32-2.51-5.59-3.75-9.09-3.74c-4.09,0-8.5,1.69-12.09,5
      c-6.65,6.11-7.94,15.49-2.87,20.93l74.33,80L88.86,271.48c-7.3,5.31-9.86,14.69-5.78,20.91c2.26,3.44,6.08,5.21,10.27,5.21
      c3.39,0,7.07-1.18,10.31-3.55l120.14-87.85C227.62,203.39,230.31,199.33,231.21,195.06z"/>
    <path d="M283.07,273.42h-68.36c-7.37,0-14.53,5.98-15.98,13.35s3.35,13.35,10.72,13.35h68.36c7.37,0,14.53-5.98,15.98-13.35
      S290.44,273.42,283.07,273.42z"/>
    <path d="M275.46,165.94c0-24.8,18.6-43.4,43.4-43.4c-24.8,0-43.4-18.59-43.4-43.39c0,24.8-18.6,43.39-43.4,43.39
      C256.85,122.53,275.46,141.14,275.46,165.94z"/>
  </g>
</svg>