<!--Scalable Vector Graphic-->
<svg id="symbol-000131" data-svg-name="Cobbler Driver" data-svg-color="2" version="1.1" xmlns="http://www.w3.org/2000/svg" x="0px" y="0px" width="400px" height="400px" viewBox="0 0 400 400">
  <g>
    <path class="st0" d="M225.8,141.72c-14.76,0-25.84-11.06-25.84-25.83c0,14.76-11.07,25.83-25.84,25.83
      c14.76,0,25.84,11.07,25.84,25.84C199.96,152.8,211.04,141.72,225.8,141.72z"/>
    <path class="st0" d="M273.41,276.02c-19.03,18.44-44.9,29.85-73.44,29.85C141.59,305.87,94.1,258.38,94.1,200
      c0-29.01,11.73-55.32,30.7-74.46c19.2-19.38,45.8-31.41,75.18-31.41c39.08,0,73.19,21.34,91.54,52.92h29.23
      c-20.45-46.45-66.85-79-120.77-79c-36.5,0-69.58,14.9-93.49,38.94C82.72,130.87,68.02,163.75,68.02,200
      c0,72.76,59.19,131.94,131.95,131.94c35.67,0,68.02-14.27,91.76-37.37c11.68-11.37,21.29-24.86,28.16-39.87h-29.46
      C285.68,262.53,279.94,269.69,273.41,276.02z"/>
    <path class="st0" d="M112.13,220.02c0,12.74,10.37,23.11,23.11,23.11c12.74,0,23.11-10.37,23.11-23.11
      c0-12.74-10.37-23.11-23.11-23.11C122.5,196.91,112.13,207.28,112.13,220.02z M153.71,220.02c0,10.18-8.28,18.47-18.46,18.47
      c-10.18,0-18.46-8.28-18.46-18.47c0-10.18,8.28-18.46,18.46-18.46C145.42,201.56,153.71,209.84,153.71,220.02z"/>
    <path class="st0" d="M161.11,181.12v62.6h4.65v-9.81c4.22,5.6,10.93,9.23,18.46,9.23c12.74,0,23.11-10.37,23.11-23.11
      c0-12.74-10.37-23.11-23.11-23.11c-7.54,0-14.24,3.63-18.46,9.23v-25.02H161.11z M184.22,201.56c10.18,0,18.46,8.28,18.46,18.46
      c0,10.18-8.28,18.47-18.46,18.47c-10.18,0-18.46-8.28-18.46-18.47C165.76,209.84,174.04,201.56,184.22,201.56z"/>
    <path class="st0" d="M214.74,233.91c4.22,5.6,10.93,9.23,18.46,9.23c12.74,0,23.11-10.37,23.11-23.11
      c0-12.74-10.37-23.11-23.11-23.11c-7.54,0-14.24,3.63-18.46,9.23v-25.02h-4.65v62.6h4.65V233.91z M233.21,201.56
      c10.18,0,18.46,8.28,18.46,18.46c0,10.18-8.28,18.47-18.46,18.47c-10.18,0-18.46-8.28-18.46-18.47
      C214.74,209.84,223.03,201.56,233.21,201.56z"/>
    <rect x="259.08" y="181.12" class="st0" width="4.65" height="62.6"/>
    <path class="st0" d="M320.12,203.85v-5.77h-4.65v45.65h4.65v-31.3c0-2.64,7.16-10.86,13.47-10.86v-4.65
      C328.81,196.91,323.69,200.1,320.12,203.85z"/>
    <path class="st0" d="M312.71,220.02c0-12.74-10.37-23.11-23.11-23.11c-12.74,0-23.11,10.37-23.11,23.11
      c0,12.74,10.37,23.11,23.11,23.11c10.32,0,19.07-6.79,22.03-16.14h-4.94c-2.76,6.73-9.37,11.49-17.09,11.49
      c-9.39,0-17.15-7.06-18.3-16.14h41.29C312.67,221.58,312.71,220.81,312.71,220.02z M271.3,217.7c1.15-9.09,8.91-16.14,18.3-16.14
      c9.39,0,17.15,7.05,18.3,16.14H271.3z"/>
    <path class="st1" d="M273.41,276.02c-19.03,18.44-44.9,29.85-73.44,29.85C141.59,305.87,94.1,258.38,94.1,200
      c0-29.01,11.73-55.32,30.7-74.46l-18.32-18.55C82.72,130.87,68.02,163.75,68.02,200c0,72.76,59.19,131.94,131.95,131.94
      c35.67,0,68.02-14.27,91.76-37.37L273.41,276.02z"/>
    <path d="M199.96,115.9c0,14.76-11.07,25.83-25.84,25.83c14.76,0,25.84,11.07,25.84,25.84c0-14.76,11.07-25.84,25.84-25.84
      C211.04,141.72,199.96,130.66,199.96,115.9z"/>
    <path d="M199.97,94.13c39.08,0,73.19,21.34,91.54,52.92h29.23c-20.45-46.45-66.85-79-120.77-79c-36.5,0-69.58,14.9-93.49,38.94
      l18.32,18.55C143.99,106.16,170.6,94.13,199.97,94.13z"/>
    <path d="M273.41,276.02l18.32,18.55c11.68-11.37,21.29-24.86,28.16-39.87h-29.46C285.68,262.53,279.94,269.69,273.41,276.02z"/>
    <path d="M135.24,196.91c-12.74,0-23.11,10.37-23.11,23.11c0,12.74,10.37,23.11,23.11,23.11c12.74,0,23.11-10.37,23.11-23.11
      C158.35,207.28,147.99,196.91,135.24,196.91z M135.24,238.49c-10.18,0-18.46-8.28-18.46-18.47c0-10.18,8.28-18.46,18.46-18.46
      c10.18,0,18.46,8.28,18.46,18.46C153.71,230.2,145.42,238.49,135.24,238.49z"/>
    <path d="M184.22,196.91c-7.54,0-14.24,3.63-18.46,9.23v-25.02h-4.65v62.6h4.65v-9.81c4.22,5.6,10.93,9.23,18.46,9.23
      c12.74,0,23.11-10.37,23.11-23.11C207.33,207.28,196.97,196.91,184.22,196.91z M184.22,238.49c-10.18,0-18.46-8.28-18.46-18.47
      c0-10.18,8.28-18.46,18.46-18.46c10.18,0,18.46,8.28,18.46,18.46C202.69,230.2,194.41,238.49,184.22,238.49z"/>
    <path d="M233.21,196.91c-7.54,0-14.24,3.63-18.46,9.23v-25.02h-4.65v62.6h4.65v-9.81c4.22,5.6,10.93,9.23,18.46,9.23
      c12.74,0,23.11-10.37,23.11-23.11C256.32,207.28,245.95,196.91,233.21,196.91z M233.21,238.49c-10.18,0-18.46-8.28-18.46-18.47
      c0-10.18,8.28-18.46,18.46-18.46c10.18,0,18.46,8.28,18.46,18.46C251.67,230.2,243.39,238.49,233.21,238.49z"/>
    <rect x="259.08" y="181.12" width="4.65" height="62.6"/>
    <path d="M320.12,203.85v-5.77h-4.65v45.65h4.65v-31.3c0-2.64,7.16-10.86,13.47-10.86v-4.65
      C328.81,196.91,323.69,200.1,320.12,203.85z"/>
    <path d="M311.63,226.99h-4.94c-2.76,6.73-9.37,11.49-17.09,11.49c-9.39,0-17.15-7.06-18.3-16.14h41.29
      c0.08-0.76,0.12-1.54,0.12-2.32c0-12.74-10.37-23.11-23.11-23.11c-12.74,0-23.11,10.37-23.11,23.11c0,12.74,10.37,23.11,23.11,23.11
      C299.91,243.14,308.67,236.34,311.63,226.99z M289.6,201.56c9.39,0,17.15,7.05,18.3,16.14h-36.6
      C272.45,208.61,280.21,201.56,289.6,201.56z"/>
  </g>
</svg>