<!--Scalable Vector Graphic-->
<svg id="symbol-000102" data-svg-name="Ansible Tower" data-svg-color="2" version="1.1" xmlns="http://www.w3.org/2000/svg" x="0px" y="0px" width="400px" height="400px" viewBox="0 0 400 400">
  <g>
    <path class="st0" d="M179.46,148.33c-4.36,0.42-8.64,0.98-12.85,1.66c-6.92,1.12-13.62,2.58-20.05,4.36L76.64,319.32h19.1h27.18
      l72.88-171.94C190.25,147.49,184.8,147.81,179.46,148.33z"/>
    <path class="st0" d="M95.74,124.75c10.82-8.68,24.4-15.97,39.93-21.37c13.01-4.52,27.39-7.72,42.65-9.29
      c7.07-0.73,14.32-1.11,21.71-1.11s14.65,0.38,21.71,1.11c15.26,1.57,29.64,4.76,42.65,9.29c15.53,5.4,29.11,12.69,39.93,21.37
      l2.49-17.85l2.57-18.39c-10.8-9.95-25.05-18.34-41.69-24.52l-1.68,20.04c-13.28-4.77-28.02-8.14-43.72-9.8l0.57-20.6
      c-7.42-0.8-15.05-1.23-22.84-1.23s-15.42,0.42-22.84,1.23l0.58,20.6c-15.69,1.66-30.44,5.03-43.72,9.8l-1.68-20.04
      c-16.63,6.18-30.88,14.57-41.69,24.52l2.57,18.39L95.74,124.75z"/>
    <path class="st0" d="M221.27,111.15c-6.91-0.69-14.01-1.06-21.24-1.06s-14.32,0.37-21.24,1.06c-14.9,1.5-28.96,4.54-41.73,8.85
      c-15.09,5.1-28.39,11.97-39.17,20.17l3.02,21.67c10.69-7.56,23.59-13.88,38.09-18.59c12.45-4.04,26.06-6.88,40.45-8.28
      c6.7-0.65,13.57-0.99,20.57-0.99s13.87,0.34,20.57,0.99c14.39,1.4,28.01,4.24,40.45,8.28c14.5,4.7,27.4,11.03,38.09,18.59
      l3.02-21.67c-10.78-8.19-24.08-15.07-39.17-20.17C250.23,115.68,236.17,112.64,221.27,111.15z"/>
    <path class="st0" d="M323.28,318.97l-69.78-164.62c-10.33-2.85-21.37-4.9-32.9-6.02c-5.34-0.52-10.79-0.84-16.33-0.95l55.69,131.39
      l-48.14-30.57c5.65-4.66,13.02-7.39,21.29-7.39c-18.81,0-32.92-14.11-32.92-32.92c0,18.81-14.11,32.92-32.92,32.92
      c18.81,0,32.92,14.11,32.92,32.92c0-9.37,3.5-17.57,9.33-23.44l67.39,68.46l0.4,0.4h46.05L323.28,318.97z"/>
    <path class="st1" d="M253.51,154.34c-10.33-2.85-21.37-4.9-32.9-6.02c-5.34-0.52-10.79-0.84-16.33-0.95l55.69,131.39l63.31,40.2
      L253.51,154.34z"/>
    <path d="M179.46,148.33c-4.36,0.42-8.64,0.98-12.85,1.66c-6.92,1.12-13.62,2.58-20.05,4.36L76.64,319.32h19.1h27.18l72.88-171.94
      C190.25,147.49,184.8,147.81,179.46,148.33z"/>
    <path d="M95.74,124.75c10.82-8.68,24.4-15.97,39.93-21.37c13.01-4.52,27.39-7.72,42.65-9.29c7.07-0.73,14.32-1.11,21.71-1.11
      s14.65,0.38,21.71,1.11c15.26,1.57,29.64,4.76,42.65,9.29c15.53,5.4,29.11,12.69,39.93,21.37l2.49-17.85l2.57-18.39
      c-10.8-9.95-25.05-18.34-41.69-24.52l-1.68,20.04c-13.28-4.77-28.02-8.14-43.72-9.8l0.57-20.6c-7.42-0.8-15.05-1.23-22.84-1.23
      s-15.42,0.42-22.84,1.23l0.58,20.6c-15.69,1.66-30.44,5.03-43.72,9.8l-1.68-20.04c-16.63,6.18-30.88,14.57-41.69,24.52l2.57,18.39
      L95.74,124.75z"/>
    <path d="M221.27,111.15c-6.91-0.69-14.01-1.06-21.24-1.06s-14.32,0.37-21.24,1.06c-14.9,1.5-28.96,4.54-41.73,8.85
      c-15.09,5.1-28.39,11.97-39.17,20.17l3.02,21.67c10.69-7.56,23.59-13.88,38.09-18.59c12.45-4.04,26.06-6.88,40.45-8.28
      c6.7-0.65,13.57-0.99,20.57-0.99s13.87,0.34,20.57,0.99c14.39,1.4,28.01,4.24,40.45,8.28c14.5,4.7,27.4,11.03,38.09,18.59
      l3.02-21.67c-10.78-8.19-24.08-15.07-39.17-20.17C250.23,115.68,236.17,112.64,221.27,111.15z"/>
    <path d="M323.28,318.97l-63.31-40.2l-48.14-30.57c5.65-4.66,13.02-7.39,21.29-7.39c-18.81,0-32.92-14.11-32.92-32.92
      c0,18.81-14.11,32.92-32.92,32.92c18.81,0,32.92,14.11,32.92,32.92c0-9.37,3.5-17.57,9.33-23.44l67.39,68.46l0.4,0.4h46.05
      L323.28,318.97z"/>
  </g>
</svg>