<!--Scalable Vector Graphic-->
<svg id="symbol-000104" data-svg-name="Ansible Legacy" data-svg-color="2" version="1.1" xmlns="http://www.w3.org/2000/svg" x="0px" y="0px" width="400px" height="400px" viewBox="0 0 400 400">
  <g>
    <path class="st0" d="M145.48,131.07c-13.04,3.59-24.54,8.44-33.86,14.22l2.61,8.41c9.24-5.33,20.4-9.79,32.93-13.11
      c10.76-2.85,22.53-4.85,34.97-5.84c5.8-0.46,11.73-0.7,17.78-0.7s11.99,0.24,17.78,0.7c12.44,0.99,24.21,2.99,34.97,5.84
      c12.53,3.32,23.69,7.78,32.93,13.11l2.61-8.41c-9.32-5.78-20.81-10.62-33.86-14.22c-11.05-3.04-23.2-5.19-36.08-6.24
      c-5.98-0.49-12.11-0.75-18.36-0.75c-6.25,0-12.38,0.26-18.36,0.75C168.68,125.89,156.53,128.03,145.48,131.07z"/>
    <path class="st0" d="M179.35,148.33c-4.36,0.42-8.64,0.98-12.85,1.66c-6.92,1.12-13.62,2.58-20.05,4.36L76.52,319.32h19.1h27.18
      l72.88-171.94C190.14,147.49,184.69,147.81,179.35,148.33z"/>
    <path class="st0" d="M323.17,318.97l-69.78-164.62c-10.33-2.85-21.37-4.9-32.9-6.02c-5.34-0.52-10.79-0.84-16.33-0.95l55.69,131.39
      l-48.14-30.57c5.65-4.66,13.02-7.39,21.29-7.39c-18.81,0-32.92-14.11-32.92-32.92c0,18.81-14.11,32.92-32.92,32.92
      c18.81,0,32.92,14.11,32.92,32.92c0-9.37,3.5-17.57,9.33-23.44l67.39,68.46l0.4,0.4h46.05h0.23L323.17,318.97z"/>
    <path class="st0" d="M149.91,121.21c9.45-2.58,19.52-4.46,30.03-5.51c2.38-0.24,4.78-0.42,7.2-0.58V83.86
      c0-12-15.05-16.79-28.23-14.81c-8.16,1.22-21.27,8.21-18.88,22.7C141.56,100.97,145.27,111.15,149.91,121.21z"/>
    <path class="st0" d="M135.13,126.02c-5.58-11.35-10.41-23.92-11.81-36.39c-0.39-3.44-0.16-4.97-0.16-4.97
      c-0.03-0.99-0.76-1.9-1.9-2.35c-1.14-0.46-2.51-0.4-3.57,0.17c0,0-3.15,0.96-6.72,3.51c-15.89,11.34-21.76,27.91-2.39,53.65
      C116.34,134.37,125.27,129.78,135.13,126.02z"/>
    <path class="st0" d="M212.7,115.12c2.42,0.15,4.82,0.34,7.2,0.58c10.7,1.08,20.94,3,30.54,5.66c4.4-9.69,7.89-19.46,9.36-28.33
      c2.4-14.49-10.72-21.47-18.88-22.7c-13.18-1.98-28.23,2.82-28.23,14.81V115.12z"/>
    <path class="st0" d="M288.88,87.25c-3.57-2.55-6.72-3.52-6.72-3.52c-1.06-0.56-2.43-0.62-3.57-0.17c-1.14,0.46-1.87,1.36-1.9,2.36
      c0,0,0.22,1.54-0.16,4.98c-1.36,12.09-5.94,24.26-11.3,35.33c9.92,3.82,18.9,8.47,26.69,13.82
      C310.53,114.79,304.6,98.46,288.88,87.25z"/>
    <circle class="st0" cx="199.92" cy="108.7" r="4"/>
    <circle class="st0" cx="199.92" cy="94.7" r="4"/>
    <circle class="st0" cx="199.92" cy="80.7" r="4"/>
    <polygon class="st0" points="195.92,68.7 203.92,68.7 203.92,57.7 214.92,57.7 214.92,49.7 203.92,49.7 203.92,38.7 195.92,38.7 
      195.92,49.7 184.92,49.7 184.92,57.7 195.92,57.7 "/>
    <path class="st1" d="M253.39,154.34c-10.33-2.85-21.37-4.9-32.9-6.02c-5.34-0.52-10.79-0.84-16.33-0.95l55.69,131.39l63.31,40.2
      L253.39,154.34z"/>
    <path d="M145.48,131.07c-13.04,3.59-24.54,8.44-33.86,14.22l2.61,8.41c9.24-5.33,20.4-9.79,32.93-13.11
      c10.76-2.85,22.53-4.85,34.97-5.84c5.8-0.46,11.73-0.7,17.78-0.7s11.99,0.24,17.78,0.7c12.44,0.99,24.21,2.99,34.97,5.84
      c12.53,3.32,23.69,7.78,32.93,13.11l2.61-8.41c-9.32-5.78-20.81-10.62-33.86-14.22c-11.05-3.04-23.2-5.19-36.08-6.24
      c-5.98-0.49-12.11-0.75-18.36-0.75c-6.25,0-12.38,0.26-18.36,0.75C168.68,125.89,156.53,128.03,145.48,131.07z"/>
    <path d="M179.35,148.33c-4.36,0.42-8.64,0.98-12.85,1.66c-6.92,1.12-13.62,2.58-20.05,4.36L76.52,319.32h19.1h27.18l72.88-171.94
      C190.14,147.49,184.69,147.81,179.35,148.33z"/>
    <path d="M323.17,318.97l-63.31-40.2l-48.14-30.57c5.65-4.66,13.02-7.39,21.29-7.39c-18.81,0-32.92-14.11-32.92-32.92
      c0,18.81-14.11,32.92-32.92,32.92c18.81,0,32.92,14.11,32.92,32.92c0-9.37,3.5-17.57,9.33-23.44l67.39,68.46l0.4,0.4h46.05h0.23
      L323.17,318.97z"/>
    <path d="M149.91,121.21c9.45-2.58,19.52-4.46,30.03-5.51c2.38-0.24,4.78-0.42,7.2-0.58V83.86c0-12-15.05-16.79-28.23-14.81
      c-8.16,1.22-21.27,8.21-18.88,22.7C141.56,100.97,145.27,111.15,149.91,121.21z"/>
    <path d="M135.13,126.02c-5.58-11.35-10.41-23.92-11.81-36.39c-0.39-3.44-0.16-4.97-0.16-4.97c-0.03-0.99-0.76-1.9-1.9-2.35
      c-1.14-0.46-2.51-0.4-3.57,0.17c0,0-3.15,0.96-6.72,3.51c-15.89,11.34-21.76,27.91-2.39,53.65
      C116.34,134.37,125.27,129.78,135.13,126.02z"/>
    <path d="M212.7,115.12c2.42,0.15,4.82,0.34,7.2,0.58c10.7,1.08,20.94,3,30.54,5.66c4.4-9.69,7.89-19.46,9.36-28.33
      c2.4-14.49-10.72-21.47-18.88-22.7c-13.18-1.98-28.23,2.82-28.23,14.81V115.12z"/>
    <path d="M288.88,87.25c-3.57-2.55-6.72-3.52-6.72-3.52c-1.06-0.56-2.43-0.62-3.57-0.17c-1.14,0.46-1.87,1.36-1.9,2.36
      c0,0,0.22,1.54-0.16,4.98c-1.36,12.09-5.94,24.26-11.3,35.33c9.92,3.82,18.9,8.47,26.69,13.82
      C310.53,114.79,304.6,98.46,288.88,87.25z"/>
    <circle cx="199.92" cy="108.7" r="4"/>
    <circle cx="199.92" cy="94.7" r="4"/>
    <circle cx="199.92" cy="80.7" r="4"/>
    <polygon points="195.92,68.7 203.92,68.7 203.92,57.7 214.92,57.7 214.92,49.7 203.92,49.7 203.92,38.7 195.92,38.7 195.92,49.7 
      184.92,49.7 184.92,57.7 195.92,57.7 "/>
  </g>
</svg>