<!--Scalable Vector Graphic-->
<svg id="symbol-000103" data-svg-name="Ansible Pioneer" data-svg-color="2" version="1.1" xmlns="http://www.w3.org/2000/svg" x="0px" y="0px" width="400px" height="400px" viewBox="0 0 400 400">
  <g>
    <path class="st0" d="M179.46,148.33c-4.36,0.42-8.64,0.98-12.85,1.66c-6.92,1.12-13.62,2.58-20.05,4.36L76.64,319.32h46.27
      l72.88-171.94C190.25,147.49,184.8,147.81,179.46,148.33z"/>
    <path class="st0" d="M323.28,318.97l-69.78-164.62c-10.33-2.85-21.37-4.9-32.9-6.02c-5.34-0.52-10.79-0.84-16.33-0.95l55.69,131.39
      l-48.14-30.57c5.65-4.66,13.02-7.39,21.29-7.39c-18.81,0-32.92-14.11-32.92-32.92c0,18.81-14.11,32.92-32.92,32.92
      c18.81,0,32.92,14.11,32.92,32.92c0-9.37,3.5-17.57,9.33-23.44l67.39,68.46l0.4,0.4h46.05L323.28,318.97z"/>
    <path class="st0" d="M136.51,144.28c2.2-0.63,4.44-1.22,6.7-1.79c10.5-2.62,21.57-4.56,33.08-5.68c7.74-0.75,15.67-1.15,23.75-1.15
      c8.08,0,16.01,0.39,23.75,1.15c11.75,1.14,23.03,3.13,33.72,5.84c2.26,0.57,4.49,1.17,6.69,1.8c2.12,0.61,4.22,1.24,6.28,1.91
      c16.73,5.43,31.63,12.73,43.97,21.46c0,0-20.16-14.7-49.61-26.14c-2.15-0.84-4.35-1.65-6.6-2.45c0.65-3.51,1.01-7.12,1.01-10.81
      c0-32.51-26.36-58.87-58.87-58.87s-58.87,26.36-58.87,58.87c0,3.48,0.32,6.88,0.9,10.19c-2.25,0.77-4.46,1.57-6.61,2.39
      c-30.27,11.53-50.17,26.82-50.17,26.82c12.34-8.73,27.23-16.03,43.97-21.46C131.86,145.64,134.18,144.95,136.51,144.28z"/>
    <path class="st0" d="M203.7,62.72l-3.32-37.02l-3.32,37.02c1.1-0.05,2.21-0.08,3.32-0.08S202.6,62.67,203.7,62.72z"/>
    <path class="st0" d="M186.57,64.1l-12.79-34.9l6.37,36.62C182.25,65.14,184.39,64.56,186.57,64.1z"/>
    <path class="st0" d="M170.4,69.87l-21.39-30.41l15.64,33.73C166.5,71.99,168.42,70.88,170.4,69.87z"/>
    <path class="st0" d="M156.26,79.62l-28.53-23.83l23.83,28.53C153.05,82.67,154.62,81.11,156.26,79.62z"/>
    <path class="st0" d="M145.14,92.7L111.4,77.06l30.4,21.39C142.82,96.48,143.93,94.56,145.14,92.7z"/>
    <path class="st0" d="M137.76,108.21l-36.62-6.37l34.9,12.79C136.51,112.45,137.08,110.31,137.76,108.21z"/>
    <path class="st0" d="M134.58,128.43c0-1.11,0.03-2.22,0.08-3.32l-37.02,3.32l37.02,3.32C134.61,130.65,134.58,129.55,134.58,128.43z
      "/>
    <path class="st0" d="M303.11,128.43l-37.02-3.32c0.05,1.1,0.08,2.21,0.08,3.32c0,1.11-0.03,2.22-0.08,3.32L303.11,128.43z"/>
    <path class="st0" d="M264.71,114.63l34.9-12.79l-36.62,6.37C263.67,110.31,264.24,112.45,264.71,114.63z"/>
    <path class="st0" d="M258.94,98.46l30.4-21.39L255.61,92.7C256.81,94.56,257.92,96.48,258.94,98.46z"/>
    <path class="st0" d="M249.19,84.32l23.83-28.53l-28.53,23.83C246.13,81.11,247.7,82.67,249.19,84.32z"/>
    <path class="st0" d="M251.74,39.46l-21.39,30.41c1.98,1.01,3.9,2.12,5.75,3.33L251.74,39.46z"/>
    <path class="st0" d="M226.96,29.2l-12.79,34.9c2.18,0.47,4.32,1.04,6.42,1.72L226.96,29.2z"/>
    <path class="st1" d="M253.51,154.34c-10.33-2.85-21.37-4.9-32.9-6.02c-5.34-0.52-10.79-0.84-16.33-0.95l55.69,131.39l63.31,40.2
      L253.51,154.34z"/>
    <path d="M179.46,148.33c-4.36,0.42-8.64,0.98-12.85,1.66c-6.92,1.12-13.62,2.58-20.05,4.36L76.64,319.32h46.27l72.88-171.94
      C190.25,147.49,184.8,147.81,179.46,148.33z"/>
    <path d="M323.28,318.97l-63.31-40.2l-48.14-30.57c5.65-4.66,13.02-7.39,21.29-7.39c-18.81,0-32.92-14.11-32.92-32.92
      c0,18.81-14.11,32.92-32.92,32.92c18.81,0,32.92,14.11,32.92,32.92c0-9.37,3.5-17.57,9.33-23.44l67.39,68.46l0.4,0.4h46.05
      L323.28,318.97z"/>
    <path d="M136.51,144.28c2.2-0.63,4.44-1.22,6.7-1.79c10.5-2.62,21.57-4.56,33.08-5.68c7.74-0.75,15.67-1.15,23.75-1.15
      c8.08,0,16.01,0.39,23.75,1.15c11.75,1.14,23.03,3.13,33.72,5.84c2.26,0.57,4.49,1.17,6.69,1.8c2.12,0.61,4.22,1.24,6.28,1.91
      c16.73,5.43,31.63,12.73,43.97,21.46c0,0-20.16-14.7-49.61-26.14c-2.15-0.84-4.35-1.65-6.6-2.45c0.65-3.51,1.01-7.12,1.01-10.81
      c0-32.51-26.36-58.87-58.87-58.87s-58.87,26.36-58.87,58.87c0,3.48,0.32,6.88,0.9,10.19c-2.25,0.77-4.46,1.57-6.61,2.39
      c-30.27,11.53-50.17,26.82-50.17,26.82c12.34-8.73,27.23-16.03,43.97-21.46C131.86,145.64,134.18,144.95,136.51,144.28z"/>
    <path d="M203.7,62.72l-3.32-37.02l-3.32,37.02c1.1-0.05,2.21-0.08,3.32-0.08S202.6,62.67,203.7,62.72z"/>
    <path d="M186.57,64.1l-12.79-34.9l6.37,36.62C182.25,65.14,184.39,64.56,186.57,64.1z"/>
    <path d="M170.4,69.87l-21.39-30.41l15.64,33.73C166.5,71.99,168.42,70.88,170.4,69.87z"/>
    <path d="M156.26,79.62l-28.53-23.83l23.83,28.53C153.05,82.67,154.62,81.11,156.26,79.62z"/>
    <path d="M145.14,92.7L111.4,77.06l30.4,21.39C142.82,96.48,143.93,94.56,145.14,92.7z"/>
    <path d="M137.76,108.21l-36.62-6.37l34.9,12.79C136.51,112.45,137.08,110.31,137.76,108.21z"/>
    <path d="M134.58,128.43c0-1.11,0.03-2.22,0.08-3.32l-37.02,3.32l37.02,3.32C134.61,130.65,134.58,129.55,134.58,128.43z"/>
    <path d="M303.11,128.43l-37.02-3.32c0.05,1.1,0.08,2.21,0.08,3.32c0,1.11-0.03,2.22-0.08,3.32L303.11,128.43z"/>
    <path d="M264.71,114.63l34.9-12.79l-36.62,6.37C263.67,110.31,264.24,112.45,264.71,114.63z"/>
    <path d="M258.94,98.46l30.4-21.39L255.61,92.7C256.81,94.56,257.92,96.48,258.94,98.46z"/>
    <path d="M249.19,84.32l23.83-28.53l-28.53,23.83C246.13,81.11,247.7,82.67,249.19,84.32z"/>
    <path d="M251.74,39.46l-21.39,30.41c1.98,1.01,3.9,2.12,5.75,3.33L251.74,39.46z"/>
    <path d="M226.96,29.2l-12.79,34.9c2.18,0.47,4.32,1.04,6.42,1.72L226.96,29.2z"/>
  </g>
</svg>