<!--Scalable Vector Graphic-->
<svg id="symbol-000301" data-svg-name="For input" data-svg-color="3" version="1.1" xmlns="http://www.w3.org/2000/svg" x="0px" y="0px" width="400px" height="400px" viewBox="0 0 400 400">
  <g>
<path class="st0" d="M342.11,107.74l-19.69-11.12c-5.27-2.98-11.96-1.13-14.94,4.15l-7.21,12.76l-0.32,0.57V70.66
	c0-5.79-4.71-10.5-10.5-10.5H102.81c-5.79,0-10.5,4.71-10.5,10.5v12.7h-12.7c-5.79,0-10.5,4.71-10.5,10.5v244.61
	c0,5.79,4.71,10.5,10.5,10.5h186.64c5.79,0,10.5-4.71,10.5-10.5v-12.7h12.7c5.79,0,10.5-4.71,10.5-10.5V204.61l37.21-65.84
	l1.88-3.34l7.21-12.76l0,0C349.22,117.4,347.38,110.72,342.11,107.74z"/>
<path class="st1" d="M266.25,88.36H79.62c-3.03,0-5.5,2.47-5.5,5.5v244.61c0,3.03,2.47,5.5,5.5,5.5h186.64c3.03,0,5.5-2.47,5.5-5.5
	V93.86C271.75,90.83,269.29,88.36,266.25,88.36z"/>
<path class="st2" d="M266.25,83.36H79.62c-5.79,0-10.5,4.71-10.5,10.5v244.61c0,5.79,4.71,10.5,10.5,10.5h186.64
	c5.79,0,10.5-4.71,10.5-10.5V93.86C276.75,88.07,272.04,83.36,266.25,83.36z M271.75,338.47c0,3.03-2.47,5.5-5.5,5.5H79.62
	c-3.03,0-5.5-2.47-5.5-5.5V93.86c0-3.03,2.47-5.5,5.5-5.5h186.64c3.03,0,5.5,2.47,5.5,5.5V338.47z"/>
<path class="st3" d="M289.45,65.16H102.81c-3.03,0-5.5,2.47-5.5,5.5v244.61c0,3.03,2.47,5.5,5.5,5.5h186.64c3.03,0,5.5-2.47,5.5-5.5
	V70.66C294.95,67.63,292.48,65.16,289.45,65.16z"/>
<path class="st2" d="M122.38,83.91c-3.1,0-5.61,2.51-5.61,5.61s2.51,5.61,5.61,5.61c3.1,0,5.61-2.51,5.61-5.61
	S125.48,83.91,122.38,83.91z"/>
<path class="st2" d="M122.38,113c-3.1,0-5.61,2.51-5.61,5.61c0,3.1,2.51,5.61,5.61,5.61c3.1,0,5.61-2.51,5.61-5.61
	C127.99,115.51,125.48,113,122.38,113z"/>
<path class="st2" d="M122.38,142.09c-3.1,0-5.61,2.51-5.61,5.61s2.51,5.61,5.61,5.61c3.1,0,5.61-2.51,5.61-5.61
	S125.48,142.09,122.38,142.09z"/>
<path class="st2" d="M122.38,171.18c-3.1,0-5.61,2.51-5.61,5.61c0,3.1,2.51,5.61,5.61,5.61c3.1,0,5.61-2.51,5.61-5.61
	C127.99,173.69,125.48,171.18,122.38,171.18z"/>
<path class="st2" d="M122.38,200.27c-3.1,0-5.61,2.51-5.61,5.61s2.51,5.61,5.61,5.61c3.1,0,5.61-2.51,5.61-5.61
	S125.48,200.27,122.38,200.27z"/>
<path class="st2" d="M122.38,229.36c-3.1,0-5.61,2.51-5.61,5.61c0,3.1,2.51,5.61,5.61,5.61c3.1,0,5.61-2.51,5.61-5.61
	C127.99,231.87,125.48,229.36,122.38,229.36z"/>
<path class="st2" d="M122.38,258.45c-3.1,0-5.61,2.51-5.61,5.61s2.51,5.61,5.61,5.61c3.1,0,5.61-2.51,5.61-5.61
	S125.48,258.45,122.38,258.45z"/>
<path class="st2" d="M122.38,287.54c-3.1,0-5.61,2.51-5.61,5.61c0,3.1,2.51,5.61,5.61,5.61c3.1,0,5.61-2.51,5.61-5.61
	C127.99,290.05,125.48,287.54,122.38,287.54z"/>
<rect x="137.34" y="88.02" class="st2" width="129.35" height="3"/>
<rect x="137.34" y="117.11" class="st2" width="129.35" height="3"/>
<rect x="137.34" y="146.2" class="st2" width="129.35" height="3"/>
<path class="st2" d="M342.11,107.74l-19.69-11.12c-5.27-2.98-11.96-1.13-14.94,4.15l-7.21,12.76l-0.32,0.57V70.66
	c0-5.79-4.71-10.5-10.5-10.5H102.81c-5.79,0-10.5,4.71-10.5,10.5v244.61c0,5.79,4.71,10.5,10.5,10.5h186.64
	c5.79,0,10.5-4.71,10.5-10.5V204.61l37.21-65.84l1.88-3.34l7.21-12.76l0,0C349.22,117.4,347.38,110.72,342.11,107.74z
	 M265.37,175.29H137.34v3h126.33l-14.74,26.09H137.34v3h109.89l-14.74,26.09h-95.15v3h93.46l-7.63,13.51
	c-1.46,2.59-2.33,5.46-2.55,8.42l-0.31,4.16h-82.96v3h82.74l-1.71,23.12c-0.08,1.02,0.06,2.02,0.35,2.97h-81.37v3h83.03
	c0.6,0.69,1.3,1.29,2.13,1.76c2.76,1.56,6.17,1.38,8.75-0.45l24.78-17.55c2.42-1.72,4.43-3.94,5.89-6.53l3.58-6.33h1.18v-2.09
	l28.26-50.01v101.82c0,3.03-2.47,5.5-5.5,5.5H102.81c-3.03,0-5.5-2.47-5.5-5.5V70.66c0-3.03,2.47-5.5,5.5-5.5h186.64
	c3.03,0,5.5,2.47,5.5,5.5v52.28L265.37,175.29z"/>
<path class="st1" d="M314.16,104.53c0.9-1.57,2.9-2.13,4.49-1.24l19.69,11.12c1.58,0.89,2.14,2.89,1.24,4.49l-5.32,9.42l-0.27,0.48
	l-25.43-14.37L314.16,104.53z"/>
<path class="st1" d="M229.83,253.75l76.85-135.99l11.04,6.24l-77.39,136.93l-10.99-6.21C229.5,254.4,229.65,254.06,229.83,253.75z"
	/>
<polygon class="st3" points="251.6,272.15 235.81,283.33 226.83,278.25 228.25,258.96 228.31,258.54 251.93,271.89 "/>
<path class="st1" d="M255.25,268.11c-0.18,0.32-0.38,0.62-0.59,0.92l-10.99-6.21l77.38-136.93l11.04,6.24L255.25,268.11z"/>
  </g>
</svg>