<!--Scalable Vector Graphic-->
<svg id="symbol-000001" data-svg-name="Exastro" data-svg-color="2" version="1.1" xmlns="http://www.w3.org/2000/svg" x="0px" y="0px" width="400px" height="400px" viewBox="0 0 400 400">
  <g>
    <path class="st0" d="M165.27,165.28c0,0,3.77-3.4,5.76-4.87c19.2-14.05,46.35-12.47,63.69,4.86c12.4,12.4,16.72,29.82,13.06,45.76
      l27.48-27.48c-3.12-14.42-10.22-27.46-20.79-38.03c-14.55-14.55-33.9-22.56-54.47-22.56c-20.58,0-39.92,8.01-54.47,22.56
      l-70.02,70.02c-0.76,3.18-1.16,6.65-1.18,10.16c-2.89-0.68-6.12-2.8-8.8-5.48c-2.69-2.69-4.8-5.92-5.48-8.8
      c3.51-0.02,6.98-0.43,10.16-1.18l70.01-70.02c15.97-15.97,37.2-24.76,59.78-24.76s43.82,8.79,59.78,24.76
      c10.47,10.47,17.76,23.2,21.59,37.23l21.9-21.9c-5.46-12.75-13.35-24.68-23.74-35.08c-22.39-22.39-51.97-33.35-81.38-32.87
      c-28.18,0.46-56.22,11.41-77.67,32.87l-82.89,82.89L31,249.44l13.05-13.05c0.76-3.18,1.16-6.65,1.18-10.16
      c2.89,0.68,6.12,2.8,8.8,5.48c2.69,2.69,4.8,5.92,5.48,8.8h0c-3.5,0.02-6.98,0.43-10.15,1.18l-13.05,13.05l46.07-6.58
      C82.39,248.16,165.28,165.28,165.27,165.28z M45.24,225.72c-0.04-8.22-2.11-16.4-6.22-20.51c4.11,4.11,12.29,6.18,20.51,6.22
      C58.16,217.2,51.01,224.35,45.24,225.72z M71.8,242.09c-3.58-1.03-7.67-1.55-11.76-1.57c1.37-5.77,8.52-12.92,14.29-14.29
      c0.03,5.45,0.97,10.86,2.79,15.1c0.92,2.15,2.05,4.02,3.44,5.41C78.49,244.67,75.4,243.12,71.8,242.09z"/>
    <path class="st0" d="M355.94,163.62c-0.76,3.18-1.16,6.65-1.18,10.16l0.01,0.51c0.04,8.22,2.11,16.4,6.22,20.51
      c-4.11-4.11-12.29-6.17-20.51-6.22c1.37-5.77,8.52-12.92,14.29-14.29l-0.01-0.51c-2.89-0.68-6.12-2.8-8.8-5.48
      c-2.69-2.69-4.8-5.92-5.48-8.8l-0.52-0.01c-1.37,5.77-8.52,12.92-14.28,14.29c-0.03-5.45-0.97-10.86-2.79-15.1
      c-0.92-2.15-2.05-4.02-3.44-5.41c2.06,2.06,5.15,3.61,8.75,4.65c3.58,1.03,7.67,1.55,11.76,1.57l0.52,0.01
      c3.5-0.02,6.98-0.43,10.15-1.18l13.05-13.05l-46.07,6.58l-82.89,82.89c-1.81,1.81-3.76,3.39-5.76,4.86
      c-19.2,14.05-46.35,12.47-63.68-4.86c-12.4-12.4-16.72-29.82-13.06-45.76l-27.48,27.48c3.12,14.42,10.22,27.46,20.79,38.03
      c14.55,14.55,33.9,22.56,54.47,22.56c20.58,0,39.92-8.01,54.47-22.56l70.02-70.02c0.76-3.18,1.16-6.65,1.18-10.16
      c2.89,0.68,6.12,2.8,8.8,5.48c2.69,2.69,4.8,5.92,5.48,8.8c-3.51,0.02-6.98,0.43-10.16,1.18l-70,70.01
      c-15.97,15.97-37.2,24.76-59.78,24.76s-43.82-8.79-59.78-24.76c-10.47-10.47-17.76-23.2-21.59-37.23l-21.9,21.9
      c5.46,12.75,13.35,24.68,23.74,35.08c22.39,22.39,51.97,33.35,81.38,32.87c28.18-0.46,56.22-11.41,77.67-32.87l82.89-82.89
      l6.58-46.07L355.94,163.62z"/>
    <polygon class="st0" points="207.86,189.85 199.96,165.53 192.05,189.85 166.48,189.85 187.16,204.88 179.27,229.2 199.96,214.17 
      220.64,229.2 212.74,204.88 233.43,189.85 "/>
    <path class="st1" d="M165.27,165.28c0,0,3.77-3.4,5.76-4.87c19.2-14.05,46.35-12.47,63.69,4.86c12.4,12.4,16.72,29.82,13.06,45.76
      l27.48-27.48c-3.12-14.42-10.22-27.46-20.79-38.03c-14.55-14.55-33.9-22.56-54.47-22.56c-20.58,0-39.92,8.01-54.47,22.56
      l-70.02,70.02c-0.75,3.18-1.16,6.65-1.18,10.16v0.52c0.03,5.45,0.97,10.86,2.79,15.1c0.92,2.15,2.05,4.02,3.44,5.41
      c-2.07-2.06-5.16-3.61-8.76-4.65c-3.58-1.03-7.67-1.55-11.76-1.57h-0.52c-3.5,0.02-6.98,0.43-10.15,1.18l-13.05,13.05l46.07-6.58
      C82.39,248.16,165.28,165.28,165.27,165.28z"/>
    <path class="st1" d="M355.94,163.62c-0.76,3.18-1.16,6.65-1.18,10.16l0.01,0.51c0.04,8.22,2.11,16.4,6.22,20.51
      c-4.11-4.11-12.29-6.17-20.51-6.22l-0.53,0.01c-3.51,0.02-6.98,0.43-10.16,1.18l-70,70.01c-15.97,15.97-37.2,24.76-59.78,24.76
      s-43.82-8.79-59.78-24.76c-10.47-10.47-17.76-23.2-21.59-37.23l-21.9,21.9c5.46,12.75,13.35,24.68,23.74,35.08
      c22.39,22.39,51.97,33.35,81.38,32.87c28.18-0.46,56.22-11.41,77.67-32.87l82.89-82.89l6.58-46.07L355.94,163.62z"/>
    <polygon points="207.86,189.85 199.96,165.53 192.05,189.85 166.48,189.85 187.16,204.88 179.27,229.2 199.96,214.17 220.64,229.2 
      212.74,204.88 233.43,189.85 "/>
    <path d="M60.05,211.42c3.51-0.02,6.98-0.43,10.16-1.18l70.01-70.02c15.97-15.97,37.2-24.76,59.78-24.76s43.82,8.79,59.78,24.76
      c10.47,10.47,17.76,23.2,21.59,37.23l21.9-21.9c-5.46-12.75-13.35-24.68-23.74-35.08c-22.39-22.39-51.97-33.35-81.38-32.87
      c-28.18,0.46-56.22,11.41-77.67,32.87l-82.89,82.89L31,249.44l13.05-13.05c0.76-3.18,1.16-6.65,1.18-10.16
      c2.89,0.68,6.12,2.8,8.8,5.48c2.69,2.69,4.8,5.92,5.48,8.8h0.52c1.37-5.77,8.52-12.92,14.29-14.29v-0.52
      c-2.89-0.68-6.12-2.8-8.8-5.48C62.84,217.53,60.73,214.31,60.05,211.42z M45.24,225.72c-0.04-8.22-2.11-16.4-6.22-20.51
      c4.11,4.11,12.29,6.18,20.51,6.22C58.16,217.2,51.01,224.35,45.24,225.72z"/>
    <path d="M345.96,168.3c-2.69-2.69-4.8-5.92-5.48-8.8l-0.52-0.01c-1.37,5.77-8.52,12.92-14.28,14.29c-0.03-5.45-0.97-10.86-2.79-15.1
      c-0.92-2.15-2.05-4.02-3.44-5.41c2.06,2.06,5.15,3.61,8.75,4.65c3.58,1.03,7.67,1.55,11.76,1.57l0.52,0.01
      c3.5-0.02,6.98-0.43,10.15-1.18l13.05-13.05l-46.07,6.58l-82.89,82.89c-1.81,1.81-3.76,3.39-5.76,4.86
      c-19.2,14.05-46.35,12.47-63.68-4.86c-12.4-12.4-16.72-29.82-13.06-45.76l-27.48,27.48c3.12,14.42,10.22,27.46,20.79,38.03
      c14.55,14.55,33.9,22.56,54.47,22.56c20.58,0,39.92-8.01,54.47-22.56l70.02-70.02c0.76-3.18,1.16-6.65,1.18-10.16
      c2.89,0.68,6.12,2.8,8.8,5.48c2.69,2.69,4.8,5.92,5.48,8.8l0.53-0.01c1.37-5.77,8.52-12.92,14.29-14.29l-0.01-0.51
      C351.87,173.09,348.64,170.98,345.96,168.3z"/>
  </g>
</svg>