<!--Scalable Vector Graphic-->
<svg id="symbol-000012" data-svg-name="Management Console" data-svg-color="2" version="1.1" xmlns="http://www.w3.org/2000/svg" x="0px" y="0px" width="400px" height="400px" viewBox="0 0 400 400">
  <g>
    <path class="st0" d="M162.88,171.17l20.73,20.79c3.56-3.42,6.64-6.38,8.96-8.6l-20.91-20.96l-2.56-11.34l-18.66-11.34l-5.12,5.12
      l-5.12,5.12l11.34,18.66L162.88,171.17z"/>
    <path class="st0" d="M225.88,205.04l-20.46,20.46l30.66,30.56c5.65,5.65,14.81,5.65,20.46,0c5.65-5.65,5.65-14.81,0-20.46
      L225.88,205.04z"/>
    <path class="st0" d="M260.16,155.51l-2.12-1.74c-0.37-0.35-0.86-0.51-1.36-0.47c-0.5,0.05-0.95,0.31-1.25,0.71l-12.22,15.89
      c-0.34,0.47-0.89,0.74-1.47,0.72l-4.43,0.33c-0.38-0.01-0.75-0.15-1.05-0.39l-8.57-7.26c-0.35-0.28-0.58-0.69-0.64-1.13l-0.53-4.02
      c-0.06-0.44,0.05-0.89,0.31-1.26l11.44-15.54c0.52-0.71,0.42-1.7-0.22-2.3l-2.78-2.17c-0.54-0.5-1.16-0.43-2-0.27
      c-7.9,1.56-21.39,9.21-24.81,19.79c-3.02,9.31-1.97,15.87-1.97,15.87c0,5.24-1.73,10.3-3.85,12.42l-59.6,57.23
      c-0.12,0.1-0.23,0.21-0.34,0.33c-4.92,4.92-4.92,12.91-0.16,17.67c4.76,4.76,12.87,4.88,17.79-0.04c0.23-0.23,0.45-0.47,0.66-0.71
      l57.48-62.13c7.07-6.3,21.07,0.41,32.61-10.07c10.56-9.58,12.32-20.46,9.96-29.64C260.98,156.58,260.8,155.97,260.16,155.51z"/>
    <path class="st0" d="M338.37,218.69l-20.18-5.41c0.99-8.83,0.99-17.74,0-26.57l20.18-5.41c1.89-0.51,3.02-2.46,2.51-4.35
      l-7.35-27.44c-0.51-1.89-2.45-3.02-4.35-2.51l-20.16,5.4c-3.51-8.04-7.92-15.77-13.28-23.03l14.75-14.75c1.39-1.39,1.39-3.63,0-5.02
      l-20.09-20.09c-1.39-1.39-3.63-1.39-5.02,0l-14.75,14.75c-7.26-5.37-14.99-9.78-23.03-13.28l5.4-20.16
      c0.51-1.89-0.62-3.84-2.51-4.35l-27.44-7.35c-1.89-0.51-3.84,0.62-4.35,2.51l-5.41,20.18c-8.83-0.99-17.74-0.99-26.57,0l-5.41-20.18
      c-0.51-1.89-2.46-3.02-4.35-2.51l-27.44,7.35c-1.89,0.51-3.02,2.45-2.51,4.35l5.4,20.16c-8.04,3.51-15.77,7.92-23.03,13.28
      l-14.75-14.75c-1.39-1.39-3.64-1.39-5.02,0l-20.09,20.09c-1.39,1.39-1.39,3.64,0,5.02l14.75,14.75
      c-5.37,7.26-9.78,14.99-13.28,23.03l-20.16-5.4c-1.89-0.51-3.84,0.62-4.35,2.51l-7.35,27.44c-0.51,1.89,0.62,3.84,2.51,4.35
      l20.18,5.41c-0.99,8.83-0.99,17.74,0,26.57l-20.18,5.41c-1.89,0.51-3.02,2.45-2.51,4.35l7.35,27.44c0.51,1.89,2.45,3.02,4.35,2.51
      l20.16-5.4c3.51,8.04,7.92,15.78,13.28,23.03l-14.75,14.75c-1.39,1.39-1.39,3.64,0,5.02l20.09,20.09c1.39,1.39,3.64,1.39,5.02,0
      l14.75-14.75c7.26,5.37,14.99,9.78,23.03,13.28l-5.4,20.16c-0.51,1.89,0.62,3.84,2.51,4.35l27.44,7.35
      c1.89,0.51,3.84-0.62,4.35-2.51l5.41-20.18c8.83,0.99,17.74,0.99,26.57,0l5.41,20.18c0.51,1.89,2.45,3.02,4.35,2.51l27.44-7.35
      c1.89-0.51,3.02-2.46,2.51-4.35l-5.4-20.16c8.04-3.51,15.78-7.92,23.03-13.28l14.75,14.75c1.39,1.39,3.64,1.39,5.02,0l20.09-20.09
      c1.39-1.39,1.39-3.64,0-5.02l-14.75-14.75c5.37-7.26,9.78-14.99,13.28-23.03l20.16,5.4c1.89,0.51,3.84-0.62,4.35-2.51l7.35-27.44
      C341.39,221.15,340.26,219.2,338.37,218.69z M200,301.2c-55.89,0-101.2-45.31-101.2-101.2S144.11,98.8,200,98.8
      c55.89,0,101.2,45.31,101.2,101.2S255.89,301.2,200,301.2z"/>
    <path class="st1" d="M162.88,171.17l20.73,20.79c3.56-3.42,6.64-6.38,8.96-8.6l-20.91-20.96l-2.56-11.34l-18.66-11.34l-5.12,5.12
      l-5.12,5.12l11.34,18.66L162.88,171.17z"/>
    <path class="st1" d="M225.88,205.04l30.66,30.56c5.65,5.65,5.65,14.81,0,20.46c-5.65,5.65-14.81,5.65-20.46,0l-30.66-30.56
      L225.88,205.04z"/>
    <path d="M260.16,155.51l-2.12-1.74c-0.37-0.35-0.86-0.51-1.36-0.47c-0.5,0.05-0.95,0.31-1.25,0.71l-12.22,15.89
      c-0.34,0.47-0.89,0.74-1.47,0.72l-4.43,0.33c-0.38-0.01-0.75-0.15-1.05-0.39l-8.57-7.26c-0.35-0.28-0.58-0.69-0.64-1.13l-0.53-4.02
      c-0.06-0.44,0.05-0.89,0.31-1.26l11.44-15.54c0.52-0.71,0.42-1.7-0.22-2.3l-2.78-2.17c-0.54-0.5-1.16-0.43-2-0.27
      c-7.9,1.56-21.39,9.21-24.81,19.79c-3.02,9.31-1.97,15.87-1.97,15.87c0,5.24-1.73,10.3-3.85,12.42l-59.6,57.23
      c-0.12,0.1-0.23,0.21-0.34,0.33c-4.92,4.92-4.92,12.91-0.16,17.67s12.87,4.88,17.79-0.04c0.23-0.23,0.45-0.47,0.66-0.71l57.48-62.13
      c7.07-6.3,21.07,0.41,32.61-10.07c10.56-9.58,12.32-20.46,9.96-29.64C260.98,156.58,260.8,155.97,260.16,155.51z"/>
    <path d="M338.37,218.69l-20.18-5.41c0.99-8.83,0.99-17.74,0-26.57l20.18-5.41c1.89-0.51,3.02-2.46,2.51-4.35l-7.35-27.44
      c-0.51-1.89-2.45-3.02-4.35-2.51l-20.16,5.4c-3.51-8.04-7.92-15.77-13.28-23.03l14.75-14.75c1.39-1.39,1.39-3.63,0-5.02
      l-20.09-20.09c-1.39-1.39-3.63-1.39-5.02,0l-14.75,14.75c-7.26-5.37-14.99-9.78-23.03-13.28l5.4-20.16
      c0.51-1.89-0.62-3.84-2.51-4.35l-27.44-7.35c-1.89-0.51-3.84,0.62-4.35,2.51l-5.41,20.18c-8.83-0.99-17.74-0.99-26.57,0l-5.41-20.18
      c-0.51-1.89-2.46-3.02-4.35-2.51l-27.44,7.35c-1.89,0.51-3.02,2.45-2.51,4.35l5.4,20.16c-8.04,3.51-15.77,7.92-23.03,13.28
      l-14.75-14.75c-1.39-1.39-3.64-1.39-5.02,0l-20.09,20.09c-1.39,1.39-1.39,3.64,0,5.02l14.75,14.75
      c-5.37,7.26-9.78,14.99-13.28,23.03l-20.16-5.4c-1.89-0.51-3.84,0.62-4.35,2.51l-7.35,27.44c-0.51,1.89,0.62,3.84,2.51,4.35
      l20.18,5.41c-0.99,8.83-0.99,17.74,0,26.57l-20.18,5.41c-1.89,0.51-3.02,2.45-2.51,4.35l7.35,27.44c0.51,1.89,2.45,3.02,4.35,2.51
      l20.16-5.4c3.51,8.04,7.92,15.78,13.28,23.03l-14.75,14.75c-1.39,1.39-1.39,3.64,0,5.02l20.09,20.09c1.39,1.39,3.64,1.39,5.02,0
      l14.75-14.75c7.26,5.37,14.99,9.78,23.03,13.28l-5.4,20.16c-0.51,1.89,0.62,3.84,2.51,4.35l27.44,7.35
      c1.89,0.51,3.84-0.62,4.35-2.51l5.41-20.18c8.83,0.99,17.74,0.99,26.57,0l5.41,20.18c0.51,1.89,2.45,3.02,4.35,2.51l27.44-7.35
      c1.89-0.51,3.02-2.46,2.51-4.35l-5.4-20.16c8.04-3.51,15.78-7.92,23.03-13.28l14.75,14.75c1.39,1.39,3.64,1.39,5.02,0l20.09-20.09
      c1.39-1.39,1.39-3.64,0-5.02l-14.75-14.75c5.37-7.26,9.78-14.99,13.28-23.03l20.16,5.4c1.89,0.51,3.84-0.62,4.35-2.51l7.35-27.44
      C341.39,221.15,340.26,219.2,338.37,218.69z M200,301.2c-55.89,0-101.2-45.31-101.2-101.2c0-55.89,45.31-101.2,101.2-101.2
      c55.89,0,101.2,45.31,101.2,101.2C301.2,255.89,255.89,301.2,200,301.2z"/>
  </g>
</svg>