<!--Scalable Vector Graphic-->
<svg id="symbol-000303" data-svg-name="For view" data-svg-color="3" version="1.1" xmlns="http://www.w3.org/2000/svg" x="0px" y="0px" width="400px" height="400px" viewBox="0 0 400 400">
  <g>
<path class="st0" d="M347.49,284.14l-45.09-79.79c13.18-14.42,20.42-33.03,20.42-52.52c0-21.5-8.75-40.99-22.87-55.11V70.66
	c0-5.79-4.71-10.5-10.5-10.5H102.81c-5.79,0-10.5,4.71-10.5,10.5v12.7h-12.7c-5.79,0-10.5,4.71-10.5,10.5v244.61
	c0,5.79,4.71,10.5,10.5,10.5h186.64c5.79,0,10.5-4.71,10.5-10.5v-12.7h12.7c5.79,0,10.5-4.71,10.5-10.5V296.3l6.3,11.14
	c2.27,4.02,6.48,6.28,10.8,6.28c2.06,0,4.15-0.52,6.07-1.6l19.69-11.13C348.74,297.64,350.84,290.08,347.49,284.14z"/>
<path class="st1" d="M266.25,88.36H79.62c-3.03,0-5.5,2.47-5.5,5.5v244.61c0,3.03,2.47,5.5,5.5,5.5h186.64c3.03,0,5.5-2.47,5.5-5.5
	V93.86C271.75,90.83,269.29,88.36,266.25,88.36z"/>
<path class="st2" d="M266.25,83.36H79.62c-5.79,0-10.5,4.71-10.5,10.5v244.61c0,5.79,4.71,10.5,10.5,10.5h186.64
	c5.79,0,10.5-4.71,10.5-10.5V93.86C276.75,88.07,272.04,83.36,266.25,83.36z M271.75,338.47c0,3.03-2.47,5.5-5.5,5.5H79.62
	c-3.03,0-5.5-2.47-5.5-5.5V93.86c0-3.03,2.47-5.5,5.5-5.5h186.64c3.03,0,5.5,2.47,5.5,5.5V338.47z"/>
<path class="st3" d="M297.45,315.27c0,4.4-3.6,8-8,8H102.81c-4.4,0-8-3.6-8-8V70.66c0-4.4,3.6-8,8-8h186.64c4.4,0,8,3.6,8,8V315.27z
	"/>
<path class="st2" d="M289.45,325.77H102.81c-5.79,0-10.5-4.71-10.5-10.5V70.66c0-5.79,4.71-10.5,10.5-10.5h186.64
	c5.79,0,10.5,4.71,10.5,10.5v244.61C299.95,321.06,295.24,325.77,289.45,325.77z M102.81,65.16c-3.03,0-5.5,2.47-5.5,5.5v244.61
	c0,3.03,2.47,5.5,5.5,5.5h186.64c3.03,0,5.5-2.47,5.5-5.5V70.66c0-3.03-2.47-5.5-5.5-5.5H102.81z"/>
<circle class="st2" cx="122.38" cy="89.52" r="5.61"/>
<circle class="st2" cx="122.38" cy="118.61" r="5.61"/>
<circle class="st2" cx="122.38" cy="147.7" r="5.61"/>
<circle class="st2" cx="122.38" cy="176.78" r="5.61"/>
<circle class="st2" cx="122.38" cy="205.87" r="5.61"/>
<circle class="st2" cx="122.38" cy="234.96" r="5.61"/>
<circle class="st2" cx="122.38" cy="264.05" r="5.61"/>
<circle class="st2" cx="122.38" cy="293.14" r="5.61"/>
<rect x="137.34" y="88.02" class="st2" width="129.35" height="3"/>
<rect x="137.34" y="117.11" class="st2" width="129.35" height="3"/>
<rect x="137.34" y="146.2" class="st2" width="129.35" height="3"/>
<rect x="137.34" y="175.29" class="st2" width="129.35" height="3"/>
<rect x="137.34" y="204.38" class="st2" width="129.35" height="3"/>
<rect x="137.34" y="233.46" class="st2" width="129.35" height="3"/>
<rect x="137.34" y="262.55" class="st2" width="129.35" height="3"/>
<rect x="137.34" y="291.64" class="st2" width="129.35" height="3"/>
<path class="st2" d="M347.49,284.14l-45.09-79.79c13.18-14.42,20.42-33.03,20.42-52.52c0-42.99-34.97-77.96-77.96-77.96
	s-77.96,34.97-77.96,77.96s34.97,77.96,77.96,77.96c5.5,0,11.05-0.6,16.5-1.78l44.89,79.43c2.27,4.02,6.48,6.28,10.8,6.28
	c2.06,0,4.15-0.52,6.07-1.6l19.69-11.13C348.74,297.64,350.84,290.08,347.49,284.14z"/>
<path class="st1" d="M334.26,279.18l-0.27-0.48l-25.43,14.37l5.59,9.89c0.9,1.57,2.9,2.13,4.49,1.24l19.69-11.12
	c1.58-0.89,2.14-2.89,1.24-4.49L334.26,279.18z"/>
<path class="st1" d="M332.1,275.37c0,0-35.51-62.79-41.13-72.67c13.85-12.56,22.55-30.7,22.55-50.87
	c0-37.92-30.74-68.66-68.66-68.66s-68.66,30.74-68.66,68.66s30.74,68.66,68.66,68.66c7.27,0,14.28-1.14,20.86-3.24l40.96,72.49
	L332.1,275.37z M188.23,151.82c0-31.28,25.35-56.63,56.63-56.63s56.63,25.35,56.63,56.63c0,31.28-25.35,56.63-56.63,56.63
	S188.23,183.1,188.23,151.82z"/>
<ellipse transform="matrix(0.7071 -0.7071 0.7071 0.7071 -35.6372 217.608)" class="st2" cx="244.86" cy="151.82" rx="56.63" ry="56.63"/>
<path class="st3" d="M244.86,201.88c-15.28,0-28.95-6.85-38.13-17.65h64v-3.94h-67.03c-5.6-8.08-8.89-17.89-8.89-28.47
	c0-0.74,0.02-1.47,0.06-2.2h72.77v-3.94h-72.44c1.48-12.08,7.25-22.83,15.76-30.67h59.77v-3.94h-54.91
	c8.19-5.85,18.21-9.3,29.04-9.3c27.64,0,50.05,22.41,50.05,50.05C294.91,179.47,272.5,201.88,244.86,201.88z"/>
  </g>
</svg>