<!--Scalable Vector Graphic-->
<svg id="symbol-000105" data-svg-name="Ansible LegacyRole" data-svg-color="2" version="1.1" xmlns="http://www.w3.org/2000/svg" x="0px" y="0px" width="400px" height="400px" viewBox="0 0 400 400">
  <g>
    <path class="st0" d="M334.5,222.7c0-2.3-2.28-5.15-7.68-8.15c-10.04,4.9-25.23,8.79-42.97,11.65l-1-2.37l-1.01-2.38l-8.8-20.77
      c-14.63-1.97-30.85-3.33-47.97-3.99l12.47,29.41l1.04,2.44l1.03,2.44c-4.68,0.3-9.38,0.54-14.09,0.73l-0.1,0l-0.1,0
      c-5.26-0.21-10.59-0.35-15.95-0.43c-0.79-0.8-1.54-1.65-2.24-2.54c-0.64-0.81-1.24-1.64-1.8-2.52c-3.33-5.17-5.24-11.44-5.24-18.34
      c0,6.9-1.9,13.16-5.24,18.33c-0.56,0.87-1.16,1.71-1.8,2.51c-0.7,0.89-1.45,1.73-2.24,2.53c-5.41,0.07-10.8,0.21-16.12,0.42l-0.1,0
      l-0.1,0c-4.75-0.19-9.51-0.44-14.23-0.75l1.03-2.43l1.04-2.44l12.45-29.37c-9.88,0.39-19.46,1.01-28.61,1.84
      c-6.71,0.61-13.18,1.34-19.37,2.17l-8.76,20.66l-1.01,2.38l-1,2.36c-17.63-2.88-32.7-6.77-42.64-11.67c-4.61,2.52-7,4.94-7.68,7.02
      v3.24c0,4.49,8.36,9.75,22.35,14.04l7.83,2.4l-7.83,2.38c-14.26,4.33-22.78,9.63-22.78,14.17v2h0.21c0,2.3,2.28,5.15,7.68,8.15
      c7.29-3.55,17.28-6.57,29-9.06l-1.2,2.82l-1.2,2.83l-4.79,11.3c2.67,0.68,5.55,1.36,8.65,2.02c2.78,0.59,5.69,1.14,8.66,1.68
      c8.01,1.43,16.68,2.64,25.86,3.64l10.94-25.8l1.11-2.61l1.1-2.59c7.64-0.61,15.42-1.07,23.19-1.38l0.1,0l0.1,0
      c5.56,0.22,11.2,0.36,16.85,0.44c0.74,0.81,1.45,1.65,2.1,2.53c0.6,0.81,1.16,1.64,1.68,2.51c3.03,5.02,4.75,11,4.75,17.56
      c0-6.56,1.72-12.54,4.75-17.56c0.52-0.86,1.08-1.7,1.68-2.51c0.66-0.88,1.36-1.73,2.1-2.53c0.53-0.01,1.07-0.01,1.6-0.02l2.43,2.47
      l2.41,2.44l28.24,28.69c6.32-0.45,12.46-0.99,18.39-1.63c1.42-0.15,2.83-0.31,4.23-0.47c11.03-1.29,21.29-2.92,30.44-4.85
      c3.05-0.65,5.87-1.31,8.51-1.98l-4.77-11.27l-1.2-2.84l-1.19-2.82c11.7,2.5,21.67,5.53,28.91,9.1c4.61-2.52,7-4.94,7.68-7.02v-3.24
      c0-4.5-8.36-9.75-22.35-14.04l-7.83-2.4l7.83-2.38c14.26-4.33,22.77-9.63,22.77-14.17v-2H334.5z M223.64,255.77l-3.74-2.37
      l-3.78-2.4c3.08-0.08,6.15-0.17,9.2-0.29l0.1,0l0.1,0c7.72,0.31,15.45,0.77,23.04,1.39l1.1,2.59l1.11,2.61l9.1,21.47L223.64,255.77z
      "/>
    <path class="st0" d="M204.17,147.38l8.45,19.95c16.2,0.33,32.36,1.28,47.47,2.83l-6.7-15.81c-10.33-2.85-21.37-4.9-32.9-6.02
      C215.15,147.81,209.7,147.49,204.17,147.38z"/>
    <path class="st0" d="M315.89,301.8c-4.16,1.37-8.77,2.64-13.77,3.8c-8.59,2-18.3,3.7-28.73,5.09c-1.33,0.18-2.67,0.35-4.02,0.51
      l7.44,7.56l0.4,0.4h46.05h0.23l-0.31-0.2L315.89,301.8z"/>
    <path class="st0" d="M288.22,145.29c-9.32-5.78-20.81-10.62-33.86-14.22c-11.05-3.04-23.2-5.19-36.08-6.24
      c-5.98-0.49-12.11-0.75-18.36-0.75c-6.25,0-12.38,0.26-18.36,0.75c-12.88,1.05-25.03,3.2-36.08,6.24
      c-13.04,3.59-24.54,8.44-33.86,14.22l2.61,8.41c9.24-5.33,20.4-9.79,32.93-13.11c10.76-2.85,22.53-4.85,34.97-5.84
      c5.8-0.46,11.73-0.7,17.78-0.7s11.99,0.24,17.78,0.7c12.44,0.99,24.21,2.99,34.97,5.84c12.53,3.32,23.69,7.78,32.93,13.11
      L288.22,145.29z"/>
    <path class="st0" d="M149.91,121.21c9.45-2.58,19.52-4.46,30.03-5.51c2.38-0.24,4.78-0.42,7.2-0.58V83.86
      c0-12-15.05-16.79-28.23-14.81c-8.16,1.22-21.27,8.21-18.88,22.7C141.56,100.97,145.27,111.15,149.91,121.21z"/>
    <path class="st0" d="M135.13,126.02c-5.58-11.35-10.41-23.92-11.81-36.39c-0.39-3.44-0.16-4.97-0.16-4.97
      c-0.03-0.99-0.76-1.9-1.9-2.35c-1.14-0.46-2.51-0.4-3.57,0.17c0,0-3.15,0.96-6.72,3.51c-15.89,11.34-21.76,27.91-2.39,53.65
      C116.34,134.37,125.27,129.78,135.13,126.02z"/>
    <path class="st0" d="M212.7,115.12c2.42,0.15,4.82,0.34,7.2,0.58c10.7,1.08,20.94,3,30.54,5.66c4.4-9.69,7.89-19.46,9.36-28.33
      c2.4-14.49-10.72-21.47-18.88-22.7c-13.18-1.98-28.23,2.82-28.23,14.81V115.12z"/>
    <path class="st0" d="M288.88,87.25c-3.57-2.55-6.72-3.52-6.72-3.52c-1.06-0.56-2.43-0.62-3.57-0.17c-1.14,0.46-1.87,1.36-1.9,2.36
      c0,0,0.22,1.54-0.16,4.98c-1.36,12.09-5.94,24.26-11.3,35.33c9.92,3.82,18.9,8.47,26.69,13.82
      C310.53,114.79,304.6,98.46,288.88,87.25z"/>
    <circle class="st0" cx="199.92" cy="108.7" r="4"/>
    <circle class="st0" cx="199.92" cy="94.7" r="4"/>
    <circle class="st0" cx="199.92" cy="80.7" r="4"/>
    <polygon class="st0" points="195.92,68.7 203.92,68.7 203.92,57.7 214.92,57.7 214.92,49.7 203.92,49.7 203.92,38.7 195.92,38.7 
      195.92,49.7 184.92,49.7 184.92,57.7 195.92,57.7 "/>
    <path class="st0" d="M83.97,301.75l-7.45,17.57h19.1h27.18l3.67-8.65c-9.11-1.21-17.66-2.67-25.4-4.35
      C94.78,304.95,89.03,303.42,83.97,301.75z"/>
    <path class="st0" d="M166.5,149.99c-6.92,1.12-13.62,2.58-20.05,4.36l-6.71,15.82c6.17-0.64,12.52-1.17,18.97-1.6
      c9.35-0.63,18.92-1.04,28.5-1.24l8.46-19.95c-5.54,0.11-10.99,0.43-16.33,0.95C174.99,148.75,170.71,149.31,166.5,149.99z"/>
    <path class="st0" d="M331.56,270.77c-0.73,0.48-1.51,0.94-2.33,1.4c-0.83,0.46-1.7,0.92-2.61,1.36c-5.27,2.57-11.98,4.87-19.78,6.9
      c-9.92,2.57-21.59,4.7-34.33,6.36c-2.88,0.38-5.82,0.73-8.8,1.06c-5.16,0.57-10.46,1.07-15.85,1.49
      c-15.51,1.22-31.81,1.84-47.86,1.84c-21.69,0-43.81-1.14-63.86-3.35c-9.11-1.01-17.79-2.24-25.81-3.69
      c-6.2-1.12-12.01-2.37-17.31-3.75c-7.85-2.05-14.59-4.37-19.87-6.97c-0.91-0.45-1.78-0.91-2.61-1.37c-0.83-0.47-1.61-0.94-2.34-1.43
      c-0.99-0.66-1.9-1.33-2.71-2.01v3.99v3.32v4.57v3.2c0,3.63,5.67,8.64,20.43,13.44c4.73,1.54,10.39,3.05,17.1,4.49
      c0.21,0.04,0.41,0.09,0.62,0.14c7.59,1.61,15.93,2.99,24.83,4.16c21.28,2.79,45.84,4.28,71.52,4.28c23.08,0,45.26-1.21,64.96-3.47
      c2.17-0.25,4.3-0.51,6.41-0.79c8.88-1.16,17.19-2.54,24.76-4.13c0.07-0.02,0.15-0.03,0.22-0.04c6.92-1.46,12.73-3.01,17.58-4.58
      c14.86-4.81,20.57-9.84,20.57-13.48v-2v-5.3v-7.79c-0.07,0.06-0.14,0.12-0.21,0.17C333.47,269.47,332.56,270.13,331.56,270.77z"/>
    <path class="st0" d="M68.44,211.62c0.73-0.48,1.51-0.94,2.33-1.4c0.83-0.46,1.7-0.92,2.61-1.36c12.25-5.97,32.25-10.49,55.67-13.46
      c6.21-0.79,12.67-1.47,19.28-2.03c9.29-0.8,18.89-1.38,28.59-1.73c7.67-0.28,15.4-0.43,23.08-0.43c7.62,0,15.3,0.14,22.92,0.42
      c16.59,0.61,32.92,1.86,47.87,3.75c23.64,2.99,43.81,7.55,56.07,13.6c0.91,0.45,1.78,0.91,2.61,1.37c0.83,0.47,1.61,0.94,2.34,1.43
      c0.99,0.66,1.9,1.33,2.71,2.01v-3.99v-3.32v-4.58v-3.2c0-4.83-10.02-12.11-38.14-18.06c-10.15-2.15-21.64-3.91-34.05-5.26
      c-14.75-1.61-30.81-2.63-47.55-3.01c-4.87-0.11-9.79-0.17-14.76-0.17c-5.02,0-10,0.06-14.92,0.18c-9.78,0.22-19.32,0.67-28.51,1.32
      c-6.55,0.46-12.91,1.03-19.04,1.7c-12.35,1.35-23.78,3.1-33.88,5.24c-28.12,5.95-38.14,13.23-38.14,18.06v2v5.3v7.79
      c0.07-0.06,0.14-0.12,0.21-0.17C66.53,212.93,67.44,212.27,68.44,211.62z"/>
    <path class="st1" d="M334.71,224.7v-2h-0.21c0-2.3-2.28-5.15-7.68-8.15c-10.04,4.9-25.23,8.79-42.97,11.65l-1-2.37l-1.01-2.38
      l-8.8-20.77c-14.63-1.97-30.85-3.33-47.97-3.99l12.47,29.41l1.04,2.44l1.03,2.44c-4.68,0.3-9.38,0.54-14.09,0.73l-0.1,0l-0.1,0
      c-5.26-0.21-10.59-0.35-15.95-0.43c5.89,5.95,14.16,9.54,23.64,9.54c-8.27,0-15.63,2.73-21.29,7.39l4.4,2.79
      c3.08-0.08,6.15-0.17,9.2-0.29l0.1,0l0.1,0c7.72,0.31,15.45,0.77,23.04,1.39l1.1,2.59l1.11,2.61l9.1,21.47l6.06,3.85
      c11.03-1.29,21.29-2.92,30.44-4.85c3.05-0.65,5.87-1.31,8.51-1.98l-4.77-11.27l-1.2-2.84l-1.19-2.82c11.7,2.5,21.67,5.53,28.91,9.1
      c4.61-2.52,7-4.94,7.68-7.02v-3.24c0-4.5-8.36-9.75-22.35-14.04l-7.83-2.4l7.83-2.38C326.2,234.54,334.71,229.24,334.71,224.7z"/>
    <path class="st1" d="M65.71,221.46v3.24c0,4.49,8.36,9.75,22.35,14.04l7.83,2.4l-7.83,2.38c-14.26,4.33-22.78,9.63-22.78,14.17v2
      h0.21c0,2.3,2.28,5.15,7.68,8.15c7.29-3.55,17.28-6.57,29-9.06l13.85-32.69c-17.63-2.88-32.7-6.77-42.64-11.67
      C68.78,216.96,66.4,219.38,65.71,221.46z"/>
    <path class="st1" d="M167.16,240.81c9.48,0,17.76-3.58,23.65-9.54c-5.41,0.07-10.8,0.21-16.12,0.42l-0.1,0l-0.1,0
      c-4.75-0.19-9.51-0.44-14.23-0.75l-8.96,21.13c7.64-0.61,15.42-1.07,23.19-1.38l0.1,0l0.1,0c5.56,0.22,11.2,0.36,16.85,0.44
      C185.62,244.71,177.04,240.81,167.16,240.81z"/>
    <path d="M208.62,251.14c0.53-0.01,1.07-0.01,1.6-0.02l-0.8-0.82C209.14,250.57,208.88,250.85,208.62,251.14z"/>
    <path class="st1" d="M260.09,170.15l-6.7-15.81c-10.33-2.85-21.37-4.9-32.9-6.02c-5.34-0.52-10.79-0.84-16.33-0.95l8.45,19.95
      C228.82,167.65,244.98,168.6,260.09,170.15z"/>
    <path class="st1" d="M302.12,305.6l21.05,13.36l-7.28-17.17C311.73,303.17,307.12,304.44,302.12,305.6z"/>
    <path d="M217.7,134.76c12.44,0.99,24.21,2.99,34.97,5.84c12.53,3.32,23.69,7.78,32.93,13.11l2.61-8.41
      c-9.32-5.78-20.81-10.62-33.86-14.22c-11.05-3.04-23.2-5.19-36.08-6.24c-5.98-0.49-12.11-0.75-18.36-0.75
      c-6.25,0-12.38,0.26-18.36,0.75c-12.88,1.05-25.03,3.2-36.08,6.24c-13.04,3.59-24.54,8.44-33.86,14.22l2.61,8.41
      c9.24-5.33,20.4-9.79,32.93-13.11c10.76-2.85,22.53-4.85,34.97-5.84c5.8-0.46,11.73-0.7,17.78-0.7S211.91,134.3,217.7,134.76z"/>
    <path d="M149.91,121.21c9.45-2.58,19.52-4.46,30.03-5.51c2.38-0.24,4.78-0.42,7.2-0.58V83.86c0-12-15.05-16.79-28.23-14.81
      c-8.16,1.22-21.27,8.21-18.88,22.7C141.56,100.97,145.27,111.15,149.91,121.21z"/>
    <path d="M135.13,126.02c-5.58-11.35-10.41-23.92-11.81-36.39c-0.39-3.44-0.16-4.97-0.16-4.97c-0.03-0.99-0.76-1.9-1.9-2.35
      c-1.14-0.46-2.51-0.4-3.57,0.17c0,0-3.15,0.96-6.72,3.51c-15.89,11.34-21.76,27.91-2.39,53.65
      C116.34,134.37,125.27,129.78,135.13,126.02z"/>
    <path d="M212.7,115.12c2.42,0.15,4.82,0.34,7.2,0.58c10.7,1.08,20.94,3,30.54,5.66c4.4-9.69,7.89-19.46,9.36-28.33
      c2.4-14.49-10.72-21.47-18.88-22.7c-13.18-1.98-28.23,2.82-28.23,14.81V115.12z"/>
    <path d="M288.88,87.25c-3.57-2.55-6.72-3.52-6.72-3.52c-1.06-0.56-2.43-0.62-3.57-0.17c-1.14,0.46-1.87,1.36-1.9,2.36
      c0,0,0.22,1.54-0.16,4.98c-1.36,12.09-5.94,24.26-11.3,35.33c9.92,3.82,18.9,8.47,26.69,13.82
      C310.53,114.79,304.6,98.46,288.88,87.25z"/>
    <circle cx="199.92" cy="108.7" r="4"/>
    <circle cx="199.92" cy="94.7" r="4"/>
    <circle cx="199.92" cy="80.7" r="4"/>
    <polygon points="195.92,68.7 203.92,68.7 203.92,57.7 214.92,57.7 214.92,49.7 203.92,49.7 203.92,38.7 195.92,38.7 195.92,49.7 
      184.92,49.7 184.92,57.7 195.92,57.7 "/>
    <path d="M83.97,301.75l-7.45,17.57h19.1h27.18l3.67-8.65c-9.11-1.21-17.66-2.67-25.4-4.35C94.78,304.95,89.03,303.42,83.97,301.75z"
      />
    <path d="M126.8,200.7l-8.76,20.66l-1.01,2.38l-1,2.36l-13.85,32.69l-1.2,2.82l-1.2,2.83l-4.79,11.3c2.67,0.68,5.55,1.36,8.65,2.02
      c2.78,0.59,5.69,1.14,8.66,1.68c8.01,1.43,16.68,2.64,25.86,3.64l10.94-25.8l1.11-2.61l1.1-2.59l8.96-21.13l1.03-2.43l1.04-2.44
      l12.45-29.37c-9.88,0.39-19.46,1.01-28.61,1.84C139.46,199.14,132.99,199.87,126.8,200.7z"/>
    <path d="M166.5,149.99c-6.92,1.12-13.62,2.58-20.05,4.36l-6.71,15.82c6.17-0.64,12.52-1.17,18.97-1.6
      c9.35-0.63,18.92-1.04,28.5-1.24l8.46-19.95c-5.54,0.11-10.99,0.43-16.33,0.95C174.99,148.75,170.71,149.31,166.5,149.99z"/>
    <path d="M302.12,305.6c-8.59,2-18.3,3.7-28.73,5.09c-1.33,0.18-2.67,0.35-4.02,0.51l7.44,7.56l0.4,0.4h46.05h0.23l-0.31-0.2
      L302.12,305.6z"/>
    <path d="M209.36,231.28c-0.79-0.8-1.54-1.65-2.24-2.54c-0.64-0.81-1.24-1.64-1.8-2.52c-3.33-5.17-5.24-11.44-5.24-18.34
      c0,6.9-1.9,13.16-5.24,18.33c-0.56,0.87-1.16,1.71-1.8,2.51c-0.7,0.89-1.45,1.73-2.24,2.53c-5.89,5.96-14.17,9.54-23.65,9.54
      c9.88,0,18.46,3.9,24.38,10.32c0.74,0.81,1.45,1.65,2.1,2.53c0.6,0.81,1.16,1.64,1.68,2.51c3.03,5.02,4.75,11,4.75,17.56
      c0-6.56,1.72-12.54,4.75-17.56c0.52-0.86,1.08-1.7,1.68-2.51c0.66-0.88,1.36-1.73,2.1-2.53c0.26-0.28,0.53-0.57,0.8-0.84l0.8,0.82
      l2.43,2.47l2.41,2.44l28.24,28.69c6.32-0.45,12.46-0.99,18.39-1.63c1.42-0.15,2.83-0.31,4.23-0.47l-6.06-3.85l-36.22-23l-3.74-2.37
      l-3.78-2.4l-4.4-2.79c5.65-4.66,13.02-7.39,21.29-7.39C223.53,240.81,215.25,237.23,209.36,231.28z"/>
    <path class="st1" d="M331.56,270.77c-0.73,0.48-1.51,0.94-2.33,1.4c-0.83,0.46-1.7,0.92-2.61,1.36c-5.27,2.57-11.98,4.87-19.78,6.9
      c-9.92,2.57-21.59,4.7-34.33,6.36c-2.88,0.38-5.82,0.73-8.8,1.06c-5.16,0.57-10.46,1.07-15.85,1.49
      c-15.51,1.22-31.81,1.84-47.86,1.84c-21.69,0-43.81-1.14-63.86-3.35c-9.11-1.01-17.79-2.24-25.81-3.69
      c-6.2-1.12-12.01-2.37-17.31-3.75c-7.85-2.05-14.59-4.37-19.87-6.97c-0.91-0.45-1.78-0.91-2.61-1.37c-0.83-0.47-1.61-0.94-2.34-1.43
      c-0.99-0.66-1.9-1.33-2.71-2.01v3.99v3.32v4.57v3.2c0,3.63,5.67,8.64,20.43,13.44c4.73,1.54,10.39,3.05,17.1,4.49
      c0.21,0.04,0.41,0.09,0.62,0.14c7.59,1.61,15.93,2.99,24.83,4.16c21.28,2.79,45.84,4.28,71.52,4.28c23.08,0,45.26-1.21,64.96-3.47
      c2.17-0.25,4.3-0.51,6.41-0.79c8.88-1.16,17.19-2.54,24.76-4.13c0.07-0.02,0.15-0.03,0.22-0.04c6.92-1.46,12.73-3.01,17.58-4.58
      c14.86-4.81,20.57-9.84,20.57-13.48v-2v-5.3v-7.79c-0.07,0.06-0.14,0.12-0.21,0.17C333.47,269.47,332.56,270.13,331.56,270.77z"/>
    <path d="M296.36,180.64c-10.15-2.15-21.64-3.91-34.05-5.26c-14.75-1.61-30.81-2.63-47.55-3.01c-4.87-0.11-9.79-0.17-14.76-0.17
      c-5.02,0-10,0.06-14.92,0.18c-9.78,0.22-19.32,0.67-28.51,1.32c-6.55,0.46-12.91,1.03-19.04,1.7c-12.35,1.35-23.78,3.1-33.88,5.24
      c-28.12,5.95-38.14,13.23-38.14,18.06v2v5.3v7.79c0.07-0.06,0.14-0.12,0.21-0.17c0.82-0.68,1.73-1.34,2.72-1.99
      c0.73-0.48,1.51-0.94,2.33-1.4c0.83-0.46,1.7-0.92,2.61-1.36c12.25-5.97,32.25-10.49,55.67-13.46c6.21-0.79,12.67-1.47,19.28-2.03
      c9.29-0.8,18.89-1.38,28.59-1.73c7.67-0.28,15.4-0.43,23.08-0.43c7.62,0,15.3,0.14,22.92,0.42c16.59,0.61,32.92,1.86,47.87,3.75
      c23.64,2.99,43.81,7.55,56.07,13.6c0.91,0.45,1.78,0.91,2.61,1.37c0.83,0.47,1.61,0.94,2.34,1.43c0.99,0.66,1.9,1.33,2.71,2.01
      v-3.99v-3.32v-4.58v-3.2C334.5,193.87,324.48,186.59,296.36,180.64z"/>
  </g>
</svg>