<!--Scalable Vector Graphic-->
<svg id="symbol-000141" data-svg-name="Terraform" data-svg-color="3" version="1.1" xmlns="http://www.w3.org/2000/svg" x="0px" y="0px" width="400px" height="400px" viewBox="0 0 400 400">
<g>
	<path class="st0" d="M341.86,117.61c-0.04-1.2-0.92-2.26-2.06-2.6c0,0-74.3-20.78-74.3-20.78c-1.32-0.37-2.72,0.26-3.31,1.49
		c0,0-7.87,16.23-7.87,16.23l-2.32-19.68c-0.14-1.12-0.96-2.09-2.05-2.4c0,0-67.21-18.79-67.21-18.79
		c-3.71-1.48-6.72,8.99-8.39,10.77c-0.15-0.77-3.91-14.07-4.57-14.07c-0.33-0.32-0.76-0.53-1.19-0.66c0,0-61.06-17.07-61.06-17.07
		c-1.23-0.34-2.53,0.17-3.19,1.26c0,0-33.11,54.79-33.11,54.79c-0.51,0.86-0.54,1.96-0.05,2.84c27.25,46.19,8.49,34.63,59.87,52.14
		l-25.8,47.21c-0.26,0.52-0.41,1.11-0.32,1.7c0.02,1.47,9.41,15.06,9.94,16.39l-14.18-5.55c-1.33-0.52-2.84,0.03-3.52,1.28
		L58.48,292.9c-0.6,1.13-0.38,2.57,0.57,3.45c0.76,0.5,25.36,23.65,26.22,23.89c0,0,64.85,29.55,64.85,29.55
		c1.35,0.64,3.09-0.01,3.73-1.35c0,0,32.68-68.06,32.68-68.06c0.38-0.79,0.37-1.7-0.01-2.48c0,0-6.52-13.21-6.52-13.21l9.71,3.83
		c1.34,0.55,2.98-0.1,3.6-1.41c0,0,29.78-62.02,29.78-62.02c0.29-0.6,0.36-1.28,0.19-1.92c0,0-2.92-11.58-2.92-11.58
		c1.69,0.32,6.28,2.94,7.93,1.62c0.89,0.17,6.55-12.95,7.05-13.64l3.02,16.63c0.18,1.01,0.9,1.84,1.87,2.18l68.25,23.3
		c1.37,0.48,2.97-0.24,3.53-1.58c0,0,25.56-60.49,25.56-60.49C338.04,158.34,341.69,118.91,341.86,117.61z"/>
<path class="st0" d="M277.78,252.41c0.35,23.69-19.27,43.32-42.97,42.97c23.7-0.35,43.32,19.27,42.97,42.97
	c-0.35-23.7,19.27-43.32,42.97-42.97C297.05,295.73,277.42,276.11,277.78,252.41z"/>
<path class="st2" d="M341.81,117.22c-0.16-1.05-1.01-1.9-2.01-2.2c0,0-74.3-20.78-74.3-20.78c-1.32-0.37-2.72,0.26-3.31,1.49
	l-7.87,16.23l-2.32-19.68c-0.14-1.12-0.96-2.09-2.05-2.4c0,0-67.21-18.79-67.21-18.79c-3.71-1.48-6.72,8.99-8.39,10.77
	c-0.15-0.77-3.91-14.07-4.57-14.07c-0.33-0.32-0.76-0.53-1.19-0.66c0,0-61.06-17.07-61.06-17.07c-1.23-0.34-2.53,0.17-3.19,1.26
	l-33.11,54.79c-0.51,0.86-0.54,1.96-0.05,2.84c27.25,46.19,8.49,34.63,59.87,52.14l-25.8,47.21c-0.26,0.52-0.41,1.11-0.32,1.7
	c0.02,1.47,9.41,15.06,9.94,16.39c0,0-14.18-5.55-14.18-5.55c-1.33-0.52-2.84,0.03-3.52,1.28L58.48,292.9
	c-0.6,1.13-0.38,2.57,0.57,3.45c0.76,0.5,25.36,23.65,26.22,23.89c0,0,64.85,29.55,64.85,29.55c1.35,0.64,3.09-0.01,3.73-1.35
	c0,0,32.68-68.06,32.68-68.06c0.38-0.79,0.37-1.7-0.01-2.48c0,0-6.52-13.21-6.52-13.21l9.71,3.83c0.34,0.11,0.68,0.2,1.04,0.2
	c1.07,0,2.09-0.64,2.56-1.61c0,0,29.78-62.02,29.78-62.02c1.14-1.34-2.71-11.98-2.73-13.5c1.69,0.32,6.28,2.94,7.93,1.62
	c0.89,0.17,6.55-12.95,7.05-13.64c0,0,3.02,16.63,3.02,16.63c0.18,1.01,0.9,1.84,1.87,2.18l68.25,23.3
	c1.37,0.49,2.97-0.24,3.53-1.58c0,0,25.56-60.49,25.56-60.49c0.43-0.7,4.1-40.77,4.31-41.59
	C341.87,117.75,341.87,117.48,341.81,117.22z M332.16,157.8l-19.41,45.95l0.67-19.39l20.96-48.64L332.16,157.8z M111.77,208.17
	c5.76-10.55,26.95-49.32,32.32-59.14c12.36,4.09,50.56,16.74,63.49,21.03c-4.91,9.9-25.79,51.96-31.09,62.66L111.77,208.17
	L111.77,208.17z M77.93,105.97l30.14-49.87c0,0,55.55,15.53,55.55,15.53c0,0-29.24,52.48-29.24,52.48
	C133.46,123.82,78.83,106.26,77.93,105.97z M245.11,94.42l-27.93,56.3c-12.01-3.86-51.67-16.6-62.96-20.23
	c7.1-12.99,22.25-40.71,29.15-53.33L245.11,94.42z M335.15,119.6L335.15,119.6c0,0-26.12,60.63-26.12,60.63
	c-2.53-0.81-70.61-22.69-70.52-22.66c7.92-16.33,19.86-40.97,27.75-57.24L335.15,119.6z M147.6,130.78
	c-1.52,1.54,4.49,13.33,4.76,15.02l-6.81-2.26l-6.68-15.85l28.16-50.54l3.46,11.74L147.6,130.78z M124.34,236.19
	c1.4,0.55,39.36,15.41,41.86,16.39c-7.35,14.8-27.19,54.8-34.8,70.13l-66.48-29.78l36.01-65.9
	C104.23,228.32,121.46,235.07,124.34,236.19z M136.12,325.95l32.61-65.71c0.02-0.04,1.4-2.81,1.38-2.78
	c1.32,2.67,9.23,18.69,10.71,21.7l-30.24,62.98L136.12,325.95z M181.01,236.36c3.71-7.47,26.54-53.49,29.69-59.83
	c1.89,7.5,4.9,19.43,6.82,27.03l-26.65,55.5L181.01,236.36z M226.79,177.76l-5.18-23.23l25.86-52.11l2.25,19.02l-17.74,36.61
	c-0.14,0.34-0.24,0.71-0.27,1.08c-0.09,0.83,1.83,10.14,1.9,10.95l-5.82,12.13L226.79,177.76z"/>
	<path d="M134.38,124.11c0,0,29.24-52.48,29.24-52.48c0,0-55.55-15.53-55.55-15.53l-30.14,49.87
		C78.75,106.24,133.55,123.85,134.38,124.11z"/>
	<path d="M183.37,77.16c-6.83,12.49-22.13,40.49-29.15,53.33c11.06,3.55,51.2,16.45,62.96,20.23l27.93-56.3L183.37,77.16z"/>
	<path d="M144.09,149.03c-5.22,9.56-26.71,48.88-32.32,59.14l64.72,24.55c5.44-10.96,26.05-52.5,31.09-62.66
		C207.58,170.06,149.1,150.69,144.09,149.03z"/>
	<path class="st1" d="M152.36,145.8l-4.9-12.61c-0.09-0.22-0.14-0.44-0.17-0.67c-0.09-0.6,0.04-1.21,0.32-1.74
		c0,0,22.89-41.89,22.89-41.89l-3.46-11.74l-28.16,50.54l6.68,15.85L152.36,145.8z"/>
	<path class="st1" d="M231.75,159.8c-0.1-0.6,0-1.21,0.23-1.77c0,0,17.74-36.61,17.74-36.61l-2.25-19.02l-25.86,52.11
		c0.71,3.21,5.59,25.06,6.17,27.67l5.82-12.13C233.61,170.06,231.75,159.8,231.75,159.8z"/>
	<path class="st1" d="M213.12,186.13c-0.52-2.06-1.89-7.47-2.42-9.6c-3.03,6.11-26.12,52.64-29.69,59.83l9.87,22.7l26.65-55.5
		C216.91,201.13,213.66,188.25,213.12,186.13z"/>
	<path class="st1" d="M170.28,257.81l-0.17-0.35c0,0-1.33,2.68-1.38,2.78c0,0-32.61,65.71-32.61,65.71l14.46,16.2l30.24-62.98
		C179.44,276.37,171.46,260.19,170.28,257.81z"/>
	<path class="st1" d="M163.44,258.16c0.75-1.5,2.02-4.07,2.77-5.57c-17.21-6.74-48.36-18.93-65.27-25.55l-36.01,65.9l66.48,29.78
		C137.34,310.74,157.87,269.36,163.44,258.16z"/>
	<polygon class="st1" points="312.75,203.74 332.16,157.8 334.38,135.71 313.42,184.35 	"/>
	<path class="st1" d="M335.15,119.6l-68.9-19.27c-7.88,16.26-19.84,40.92-27.75,57.24c1.01,0.33,67.3,21.63,70.52,22.66
		C309.03,180.23,335.15,119.6,335.15,119.6L335.15,119.6z"/>
<path class="st1" d="M277.78,252.41c0.35,23.69-19.27,43.32-42.97,42.97c23.7-0.35,43.32,19.27,42.97,42.97c-0.35-23.7,19.27-43.32,42.97-42.97
	C297.05,295.73,277.42,276.11,277.78,252.41z"/>
</g>
</svg>