<!--Scalable Vector Graphic-->
<svg id="symbol-000014" data-svg-name="Symphony" data-svg-color="2" version="1.1" xmlns="http://www.w3.org/2000/svg" x="0px" y="0px" width="400px" height="400px" viewBox="0 0 400 400">
  <g>
<polygon class="st0" points="254.84,278.91 59.12,278.91 59.12,301.59 254.84,301.59 254.84,323.31 340.88,290.25 254.84,257.19 "/>
	<path class="st0" d="M71.38,150.25c0,3.66,1.09,6.67,3.27,9.02s5.35,4,9.51,4.93s7.1,1.56,8.83,1.88c2.41,0.57,4.04,1.3,4.9,2.17
		c0.86,0.87,1.29,2.04,1.29,3.51c0,1.89-0.9,3.37-2.71,4.44s-4.19,1.6-7.15,1.6c-2.85,0-5.83-0.57-8.92-1.72
		c-3.1-1.15-5.84-2.7-8.22-4.66h-1.09v10.18c5.9,2.51,11.91,3.77,18.04,3.77c6.3,0,11.36-1.43,15.18-4.28
		c3.82-2.85,5.73-6.62,5.73-11.3c0-1.6-0.22-3.05-0.65-4.37c-0.44-1.32-1.1-2.52-1.98-3.59s-2.06-2.07-3.54-2.99
		c-1.48-0.92-3.72-1.74-6.74-2.47c-3.01-0.73-5.74-1.32-8.19-1.77c-2.45-0.57-4.18-1.31-5.19-2.2s-1.52-2.1-1.52-3.61
		c0-1.77,0.89-3.16,2.67-4.18c1.78-1.02,4.04-1.53,6.78-1.53c5.79,0,10.92,1.81,15.39,5.43h1.05v-9.74
		c-5.24-2.17-10.83-3.26-16.79-3.26c-5.85,0-10.64,1.37-14.37,4.1C73.24,142.34,71.38,145.89,71.38,150.25z"/>
	<polygon class="st0" points="292.67,184.49 326.19,184.49 326.19,176.51 303.14,176.51 303.14,162.59 324.56,162.59 324.56,154.64 
		303.14,154.64 303.14,144.36 326.19,144.36 326.19,136.38 292.67,136.38 	"/>
	<path class="st0" d="M200,132.64c-13.84,0-25.32,10.12-27.44,23.37c-0.23,1.44-0.36,2.92-0.36,4.43c0,1.51,0.12,2.99,0.36,4.43
		c2.12,13.25,13.6,23.37,27.44,23.37s25.32-10.12,27.44-23.37c0.23-1.44,0.36-2.92,0.36-4.43c0-1.51-0.12-2.99-0.36-4.43
		C225.32,142.76,213.84,132.64,200,132.64z"/>
	<path class="st0" d="M314.88,108.61h-51.69V156h-14.66c-2.24-24.87-23.14-44.43-48.53-44.43s-46.29,19.56-48.53,44.43h-14.66
		v-47.39H85.12c-28.5,0-51.69,23.25-51.69,51.82s23.19,51.82,51.69,51.82h51.69v-47.39h14.66c2.24,24.87,23.14,44.43,48.53,44.43
		s46.29-19.56,48.53-44.43h14.66v47.39h51.69c28.5,0,51.69-23.25,51.69-51.82S343.38,108.61,314.88,108.61z M127.95,203.4H85.12
		c-23.62,0-42.83-19.27-42.83-42.97s19.21-42.97,42.83-42.97h42.83V203.4z M239.63,164.86c-2.2,19.98-19.13,35.58-39.63,35.58
		s-37.43-15.59-39.63-35.58c-0.16-1.46-0.25-2.93-0.25-4.43s0.09-2.97,0.25-4.43c2.2-19.98,19.13-35.58,39.63-35.58
		s37.43,15.59,39.63,35.58c0.16,1.46,0.25,2.93,0.25,4.43S239.79,163.41,239.63,164.86z M314.88,203.4h-42.83v-85.93h42.83
		c23.62,0,42.83,19.27,42.83,42.97S338.5,203.4,314.88,203.4z"/>
	<path d="M314.88,108.61h-51.69V156h-14.66c-2.24-24.87-23.14-44.43-48.53-44.43s-46.29,19.56-48.53,44.43h-14.66v-47.39H85.12
		c-28.5,0-51.69,23.25-51.69,51.82s23.19,51.82,51.69,51.82h51.69v-47.39h14.66c2.24,24.87,23.14,44.43,48.53,44.43
		s46.29-19.56,48.53-44.43h14.66v47.39h51.69c28.5,0,51.69-23.25,51.69-51.82S343.38,108.61,314.88,108.61z M127.95,117.47v85.93
		H85.12c-23.62,0-42.83-19.27-42.83-42.97s19.21-42.97,42.83-42.97H127.95z M239.88,160.43c0,1.5-0.09,2.97-0.25,4.43
		c-2.2,19.98-19.13,35.58-39.63,35.58s-37.43-15.59-39.63-35.58c-0.16-1.46-0.25-2.93-0.25-4.43s0.09-2.97,0.25-4.43
		c2.2-19.98,19.13-35.58,39.63-35.58s37.43,15.59,39.63,35.58C239.79,157.46,239.88,158.94,239.88,160.43z M272.05,203.4v-85.93
		h42.83c23.62,0,42.83,19.27,42.83,42.97s-19.21,42.97-42.83,42.97H272.05z"/>
	<path d="M104.31,181.09c3.82-2.85,5.73-6.62,5.73-11.3c0-1.6-0.22-3.05-0.65-4.37c-0.44-1.32-1.1-2.52-1.98-3.59
		s-2.06-2.07-3.54-2.99c-1.48-0.92-3.72-1.74-6.74-2.47c-3.01-0.73-5.74-1.32-8.19-1.77c-2.45-0.57-4.18-1.31-5.19-2.2
		s-1.52-2.1-1.52-3.61c0-1.77,0.89-3.16,2.67-4.18c1.78-1.02,4.04-1.53,6.78-1.53c5.79,0,10.92,1.81,15.39,5.43h1.05v-9.74
		c-5.24-2.17-10.83-3.26-16.79-3.26c-5.85,0-10.64,1.37-14.37,4.1c-3.72,2.74-5.59,6.28-5.59,10.65c0,3.66,1.09,6.67,3.27,9.02
		s5.35,4,9.51,4.93s7.1,1.56,8.83,1.88c2.41,0.57,4.04,1.3,4.9,2.17c0.86,0.87,1.29,2.04,1.29,3.51c0,1.89-0.9,3.37-2.71,4.44
		s-4.19,1.6-7.15,1.6c-2.85,0-5.83-0.57-8.92-1.72c-3.1-1.15-5.84-2.7-8.22-4.66h-1.09v10.18c5.9,2.51,11.91,3.77,18.04,3.77
		C95.43,185.37,100.49,183.94,104.31,181.09z"/>
	<polygon points="292.67,184.49 326.19,184.49 326.19,176.51 303.14,176.51 303.14,162.59 324.56,162.59 324.56,154.64 
		303.14,154.64 303.14,144.36 326.19,144.36 326.19,136.38 292.67,136.38 	"/>
<path class="st1" d="M200,188.23c13.84,0,25.32-10.12,27.44-23.37c0.23-1.44,0.36-2.92,0.36-4.43c0-1.51-0.12-2.99-0.36-4.43
	c-2.12-13.25-13.6-23.37-27.44-23.37s-25.32,10.12-27.44,23.37c-0.23,1.44-0.36,2.92-0.36,4.43c0,1.51,0.12,2.99,0.36,4.43
	C174.68,178.11,186.16,188.23,200,188.23z"/>
<polygon class="st1" points="340.88,290.25 254.84,257.19 254.84,278.91 59.12,278.91 59.12,301.59 254.84,301.59 254.84,323.31 "/>
  </g>
</svg>