<!--Scalable Vector Graphic-->
<svg id="symbol-000111" data-svg-name="OpenStack Driver" data-svg-color="2" version="1.1" xmlns="http://www.w3.org/2000/svg" x="0px" y="0px" width="400px" height="400px" viewBox="0 0 400 400">
  <g>
    <path class="st0" d="M208.41,274.44c-3.67,3.67-9.62,3.67-13.28,0l-69.56-69.56c-3.67-3.67-3.67-9.62,0-13.28l6.9-6.9l43.34-43.34
      l-34.36-34.36l-43.34,43.34l-34.2,34.2c-7.34,7.34-7.34,19.23,0,26.57L188.9,336.09c7.34,7.34,19.23,7.34,26.57,0l34.2-34.2
      l-34.36-34.36L208.41,274.44z"/>
    <path class="st0" d="M336.09,188.9L211.1,63.91c-7.34-7.34-19.23-7.34-26.57,0l-34.2,34.2l34.36,34.36l6.9-6.9
      c3.67-3.67,9.62-3.67,13.28,0l69.56,69.56c3.67,3.67,3.67,9.62,0,13.28l-6.9,6.9l-43.34,43.34l34.36,34.36l43.34-43.34l34.2-34.2
      C343.43,208.13,343.43,196.24,336.09,188.9z"/>
    <path class="st0" d="M200,242.53c0-24.3,18.23-42.53,42.53-42.53c-24.3,0-42.53-18.22-42.53-42.52c0,24.3-18.23,42.52-42.53,42.52
      C181.77,200,200,218.23,200,242.53z"/>
    <path class="st1" d="M215.31,267.54l-6.9,6.9c-3.67,3.67-9.62,3.67-13.28,0l-69.56-69.56c-3.67-3.67-3.67-9.62,0-13.28l6.9-6.9
      l43.34-43.34l-34.36-34.36l-43.34,43.34l-34.2,34.2c-7.34,7.34-7.34,19.23,0,26.57L188.9,336.09c7.34,7.34,19.23,7.34,26.57,0
      l34.2-34.2L215.31,267.54z"/>
    <path d="M336.1,188.9L211.1,63.91c-7.34-7.34-19.23-7.34-26.57,0l-34.2,34.2l34.36,34.36l6.9-6.9c3.67-3.67,9.62-3.67,13.28,0
      l69.56,69.56c3.67,3.67,3.67,9.62,0,13.28l-6.9,6.9l-43.34,43.34l34.36,34.36l43.34-43.34l34.2-34.2
      C343.43,208.13,343.43,196.24,336.1,188.9z"/>
    <path d="M200,157.48c0,24.3-18.23,42.52-42.53,42.52c24.3,0,42.53,18.23,42.53,42.53c0-24.3,18.23-42.53,42.53-42.53
      C218.23,200,200,181.78,200,157.48z"/>
  </g>
</svg>