<!--Scalable Vector Graphic-->
<svg id="symbol-000302" data-svg-name="For subst" data-svg-color="3" version="1.1" xmlns="http://www.w3.org/2000/svg" x="0px" y="0px" width="400px" height="400px" viewBox="0 0 400 400">
  <g>
<path class="st0" d="M341.55,194.56l-5.65-1.51c0.02-1.16,0.02-2.33,0-3.49l5.65-1.51c5.69-1.53,9.08-7.4,7.55-13.09l-4.51-16.84
	c-1.25-4.66-5.49-7.92-10.32-7.92c-0.93,0-1.86,0.12-2.77,0.36l-5.63,1.51c-0.56-1.03-1.15-2.04-1.75-3.04l4.12-4.12
	c2.02-2.02,3.13-4.7,3.13-7.55s-1.11-5.54-3.13-7.55l-12.33-12.33c-2.02-2.02-4.7-3.13-7.55-3.13c-2.85,0-5.54,1.11-7.55,3.13
	l-0.93,0.93V70.66c0-5.79-4.71-10.5-10.5-10.5H102.73c-5.79,0-10.5,4.71-10.5,10.5v12.7h-12.7c-5.79,0-10.5,4.71-10.5,10.5v244.61
	c0,5.79,4.71,10.5,10.5,10.5h186.64c5.79,0,10.5-4.71,10.5-10.5v-12.7h12.7c5.79,0,10.5-4.71,10.5-10.5v-51.08l0.93,0.93
	c2.02,2.02,4.7,3.13,7.55,3.13s5.54-1.11,7.55-3.13l12.33-12.33c4.17-4.17,4.17-10.94,0-15.11l-4.12-4.12c0.6-1,1.19-2.01,1.75-3.04
	l5.63,1.51c0.9,0.24,1.83,0.36,2.77,0.36c4.83,0,9.07-3.26,10.32-7.92l4.51-16.84C350.63,201.95,347.24,196.08,341.55,194.56z"/>
<path class="st1" d="M266.17,88.36H79.53c-3.03,0-5.5,2.47-5.5,5.5v244.61c0,3.03,2.47,5.5,5.5,5.5h186.64c3.03,0,5.5-2.47,5.5-5.5
	V93.86C271.67,90.83,269.2,88.36,266.17,88.36z"/>
<path class="st2" d="M266.17,83.36H79.53c-5.79,0-10.5,4.71-10.5,10.5v244.61c0,5.79,4.71,10.5,10.5,10.5h186.64
	c5.79,0,10.5-4.71,10.5-10.5V93.86C276.67,88.07,271.96,83.36,266.17,83.36z M271.67,338.47c0,3.03-2.47,5.5-5.5,5.5H79.53
	c-3.03,0-5.5-2.47-5.5-5.5V93.86c0-3.03,2.47-5.5,5.5-5.5h186.64c3.03,0,5.5,2.47,5.5,5.5V338.47z"/>
<path class="st3" d="M297.37,315.27c0,4.4-3.6,8-8,8H102.73c-4.4,0-8-3.6-8-8V70.66c0-4.4,3.6-8,8-8h186.64c4.4,0,8,3.6,8,8V315.27z
	"/>
<path class="st2" d="M289.37,325.77H102.73c-5.79,0-10.5-4.71-10.5-10.5V70.66c0-5.79,4.71-10.5,10.5-10.5h186.64
	c5.79,0,10.5,4.71,10.5,10.5v244.61C299.87,321.06,295.16,325.77,289.37,325.77z M102.73,65.16c-3.03,0-5.5,2.47-5.5,5.5v244.61
	c0,3.03,2.47,5.5,5.5,5.5h186.64c3.03,0,5.5-2.47,5.5-5.5V70.66c0-3.03-2.47-5.5-5.5-5.5H102.73z"/>
<circle class="st2" cx="122.3" cy="89.52" r="5.61"/>
<circle class="st2" cx="122.3" cy="118.61" r="5.61"/>
<circle class="st2" cx="122.3" cy="147.7" r="5.61"/>
<circle class="st2" cx="122.3" cy="176.78" r="5.61"/>
<circle class="st2" cx="122.3" cy="205.87" r="5.61"/>
<circle class="st2" cx="122.3" cy="234.96" r="5.61"/>
<circle class="st2" cx="122.3" cy="264.05" r="5.61"/>
<circle class="st2" cx="122.3" cy="293.14" r="5.61"/>
<rect x="137.26" y="88.02" class="st2" width="129.35" height="3"/>
<rect x="137.26" y="117.11" class="st2" width="129.35" height="3"/>
<rect x="137.26" y="146.2" class="st2" width="129.35" height="3"/>
<rect x="137.26" y="175.29" class="st2" width="129.35" height="3"/>
<rect x="137.26" y="204.38" class="st2" width="129.35" height="3"/>
<rect x="137.26" y="233.46" class="st2" width="129.35" height="3"/>
<rect x="137.26" y="262.55" class="st2" width="129.35" height="3"/>
<rect x="137.26" y="291.64" class="st2" width="129.35" height="3"/>
<path class="st2" d="M341.55,194.56l-5.65-1.51c0.02-1.16,0.02-2.33,0-3.49l5.65-1.51c5.69-1.53,9.08-7.4,7.55-13.09l-4.51-16.84
	c-1.25-4.66-5.49-7.92-10.32-7.92c-0.93,0-1.86,0.12-2.77,0.36l-5.63,1.51c-0.56-1.03-1.15-2.04-1.75-3.04l4.12-4.12
	c2.02-2.02,3.13-4.7,3.13-7.55s-1.11-5.54-3.13-7.55l-12.33-12.33c-2.02-2.02-4.7-3.13-7.55-3.13c-2.85,0-5.54,1.11-7.55,3.13
	l-4.12,4.12c-1-0.6-2.01-1.19-3.04-1.75l1.51-5.63c0.74-2.76,0.36-5.64-1.07-8.11c-1.43-2.47-3.73-4.24-6.49-4.98l-16.84-4.51
	c-0.9-0.24-1.83-0.36-2.77-0.36c0,0,0,0,0,0c-4.83,0-9.07,3.26-10.32,7.92l-1.51,5.65c-0.58-0.01-1.17-0.02-1.75-0.02
	c-0.58,0-1.16,0.01-1.75,0.02l-1.51-5.65c-1.25-4.66-5.49-7.92-10.32-7.92c0,0,0,0,0,0c-0.93,0-1.86,0.12-2.77,0.37l-16.84,4.51
	c-5.69,1.52-9.08,7.39-7.55,13.08l1.51,5.63c-1.03,0.56-2.04,1.15-3.04,1.75l-4.12-4.12c-2.02-2.02-4.7-3.13-7.55-3.13
	c-2.85,0-5.54,1.11-7.55,3.13l-12.33,12.33c-4.17,4.17-4.17,10.94,0,15.11l4.12,4.12c-0.6,1-1.19,2.01-1.75,3.04l-5.63-1.51
	c-0.9-0.24-1.83-0.36-2.77-0.36c-4.83,0-9.07,3.26-10.32,7.92l-4.51,16.84c-1.52,5.69,1.86,11.56,7.55,13.08l5.65,1.51
	c-0.02,1.16-0.02,2.33,0,3.5l-5.65,1.51c-2.76,0.74-5.06,2.51-6.49,4.98c-1.43,2.47-1.81,5.35-1.07,8.11l4.51,16.84
	c1.25,4.66,5.49,7.92,10.32,7.92c0.93,0,1.86-0.12,2.77-0.36l5.63-1.51c0.56,1.03,1.15,2.04,1.75,3.04l-4.12,4.12
	c-2.02,2.02-3.13,4.7-3.13,7.55s1.11,5.54,3.13,7.55l12.33,12.33c2.02,2.02,4.7,3.13,7.55,3.13c2.85,0,5.54-1.11,7.55-3.13
	l4.12-4.12c1,0.6,2.01,1.19,3.04,1.75l-1.51,5.63c-0.74,2.76-0.36,5.64,1.07,8.11c1.43,2.47,3.73,4.24,6.49,4.98l16.84,4.51
	c0.9,0.24,1.83,0.36,2.77,0.36c4.83,0,9.07-3.26,10.32-7.92l1.51-5.65c0.58,0.01,1.17,0.02,1.75,0.02s1.16-0.01,1.75-0.02l1.51,5.65
	c1.25,4.66,5.49,7.92,10.32,7.92c0.93,0,1.86-0.12,2.76-0.36l16.85-4.51c5.69-1.53,9.08-7.39,7.55-13.08l-1.51-5.63
	c1.03-0.56,2.04-1.15,3.04-1.75l4.12,4.12c2.02,2.02,4.7,3.13,7.55,3.13s5.54-1.11,7.55-3.13l12.33-12.33
	c4.17-4.17,4.17-10.94,0-15.11l-4.12-4.12c0.6-1,1.19-2.01,1.75-3.04l5.63,1.51c0.9,0.24,1.83,0.36,2.77,0.36
	c4.83,0,9.07-3.26,10.32-7.92l4.51-16.84C350.63,201.95,347.24,196.08,341.55,194.56z"/>
<path class="st1" d="M339.35,202.77l-12.39-3.32c0.61-5.42,0.61-10.89,0-16.31l12.39-3.32c1.16-0.31,1.85-1.51,1.54-2.67
	l-4.51-16.84c-0.31-1.16-1.51-1.85-2.67-1.54l-12.37,3.32c-2.15-4.93-4.86-9.68-8.15-14.14l9.05-9.05c0.85-0.85,0.85-2.23,0-3.08
	l-12.33-12.33c-0.85-0.85-2.23-0.85-3.08,0l-9.05,9.05c-4.45-3.29-9.2-6-14.14-8.15l3.32-12.37c0.31-1.16-0.38-2.36-1.54-2.67
	l-16.84-4.51c-1.16-0.31-2.36,0.38-2.67,1.54l-3.32,12.39c-5.42-0.61-10.89-0.61-16.31,0l-3.32-12.39
	c-0.31-1.16-1.51-1.85-2.67-1.54l-16.84,4.51c-1.16,0.31-1.85,1.51-1.54,2.67l3.32,12.37c-4.93,2.15-9.68,4.86-14.14,8.15
	l-9.05-9.05c-0.85-0.85-2.23-0.85-3.08,0l-12.33,12.33c-0.85,0.85-0.85,2.23,0,3.08l9.05,9.05c-3.29,4.45-6,9.2-8.15,14.14
	l-12.37-3.32c-1.16-0.31-2.36,0.38-2.67,1.54l-4.51,16.84c-0.31,1.16,0.38,2.36,1.54,2.67l12.39,3.32c-0.61,5.42-0.61,10.89,0,16.31
	l-12.39,3.32c-1.16,0.31-1.85,1.51-1.54,2.67l4.51,16.84c0.31,1.16,1.51,1.85,2.67,1.54l12.37-3.32c2.15,4.93,4.86,9.68,8.15,14.14
	l-9.05,9.05c-0.85,0.85-0.85,2.23,0,3.08l12.33,12.33c0.85,0.85,2.23,0.85,3.08,0l9.05-9.05c4.45,3.3,9.2,6,14.14,8.15l-3.32,12.37
	c-0.31,1.16,0.38,2.36,1.54,2.67l16.84,4.51c1.16,0.31,2.36-0.38,2.67-1.54l3.32-12.39c5.42,0.61,10.89,0.61,16.31,0l3.32,12.39
	c0.31,1.16,1.51,1.85,2.67,1.54l16.84-4.51c1.16-0.31,1.85-1.51,1.54-2.67l-3.32-12.37c4.93-2.15,9.68-4.86,14.14-8.15l9.05,9.05
	c0.85,0.85,2.23,0.85,3.08,0l12.33-12.33c0.85-0.85,0.85-2.23,0-3.08l-9.05-9.05c3.29-4.45,6-9.2,8.15-14.14l12.37,3.32
	c1.16,0.31,2.36-0.38,2.67-1.54l4.51-16.84C341.2,204.28,340.51,203.08,339.35,202.77z"/>
<circle class="st3" cx="254.41" cy="191.29" r="39.73"/>
  </g>
</svg>