<!--Scalable Vector Graphic-->
<svg id="symbol-000205" data-svg-name="File control management" data-svg-color="3" version="1.1" xmlns="http://www.w3.org/2000/svg" x="0px" y="0px" width="400px" height="400px" viewBox="0 0 400 400">
  <g>
    <path class="st0" d="M329.79,206.79c-0.06-0.05-0.14-0.08-0.21-0.12c-0.25-0.17-0.52-0.31-0.82-0.4L267,187.61v-35.6
      c0-0.95-0.45-1.84-1.21-2.41c-0.07-0.05-0.14-0.08-0.21-0.12c-0.25-0.17-0.52-0.31-0.82-0.4l-63.89-19.31
      c-0.57-0.17-1.17-0.17-1.74,0l-15.64,4.73V95.52v-23h-23H99.92V54.61L70.51,84.02l29.42,29.42V95.52h60.57v45.93l-25.25,7.63
      c-0.3,0.09-0.57,0.23-0.82,0.4c-0.07,0.04-0.14,0.07-0.21,0.12c-0.76,0.57-1.21,1.46-1.21,2.41v34.6l-61.76,18.66
      c-0.3,0.09-0.57,0.23-0.82,0.39c-0.07,0.04-0.15,0.07-0.21,0.12c-0.76,0.57-1.21,1.46-1.21,2.41v39v36.83v39
      c0,1.32,0.87,2.49,2.13,2.87l64,19.36c0.08,0.02,0.16,0.04,0.24,0.05c0.06,0.01,0.11,0.03,0.17,0.04c0.15,0.02,0.3,0.04,0.46,0.04
      s0.31-0.01,0.46-0.04c0.06-0.01,0.11-0.03,0.17-0.04c0.08-0.02,0.16-0.03,0.24-0.05l63.13-19.1l63.13,19.1
      c0.08,0.02,0.16,0.04,0.24,0.05c0.06,0.01,0.11,0.03,0.17,0.04c0.15,0.02,0.3,0.04,0.46,0.04s0.31-0.01,0.46-0.04
      c0.06-0.01,0.11-0.03,0.17-0.04c0.08-0.02,0.16-0.03,0.24-0.05l64-19.36c1.27-0.38,2.13-1.55,2.13-2.87v-38V247.2v-38
      C331,208.25,330.55,207.36,329.79,206.79z"/>
    <polygon class="st0" points="262.92,109.13 245,109.13 245,95.52 327.89,95.52 327.89,72.52 245,72.52 222,72.52 222,95.52 
      222,109.13 204.08,109.13 233.5,138.54 "/>
    <polygon points="200,132.65 136.11,151.95 136,188.84 72.11,208.15 72,323.03 136.05,342.39 136,266.45 200.13,247.2 200,171.37 
      263.89,151.95 "/>
    <polygon class="st1" points="264,152.01 200,171.37 200.13,247.2 136,266.56 136,342.39 200.02,323.04 263.98,342.39 327.95,323.04 
      327.84,209.22 263.98,189.93 "/>
    <path class="st2" d="M329.79,206.79c-0.06-0.05-0.14-0.08-0.21-0.12c-0.25-0.17-0.52-0.31-0.82-0.4L267,187.61v-35.6
      c0-0.95-0.45-1.84-1.21-2.41c-0.07-0.05-0.14-0.08-0.21-0.12c-0.25-0.17-0.52-0.31-0.82-0.4l-63.89-19.31
      c-0.57-0.17-1.17-0.17-1.74,0l-63.89,19.31c-0.3,0.09-0.57,0.23-0.82,0.4c-0.07,0.04-0.14,0.07-0.21,0.12
      c-0.76,0.57-1.21,1.46-1.21,2.41v34.6l-61.76,18.66c-0.3,0.09-0.57,0.23-0.82,0.39c-0.07,0.04-0.15,0.07-0.21,0.12
      c-0.76,0.57-1.21,1.46-1.21,2.41v39v36.83v39c0,1.32,0.87,2.49,2.13,2.87l64,19.36c0.08,0.02,0.16,0.04,0.24,0.05
      c0.06,0.01,0.11,0.03,0.17,0.04c0.15,0.02,0.3,0.04,0.46,0.04s0.31-0.01,0.46-0.04c0.06-0.01,0.11-0.03,0.17-0.04
      c0.08-0.02,0.16-0.03,0.24-0.05l63.13-19.1l63.13,19.1c0.08,0.02,0.16,0.04,0.24,0.05c0.06,0.01,0.11,0.03,0.17,0.04
      c0.15,0.02,0.3,0.04,0.46,0.04s0.31-0.01,0.46-0.04c0.06-0.01,0.11-0.03,0.17-0.04c0.08-0.02,0.16-0.03,0.24-0.05l64-19.36
      c1.27-0.38,2.13-1.55,2.13-2.87v-38V247.2v-38C331,208.25,330.55,207.36,329.79,206.79z M139,223.41v-30.53v-6.27v-30.56l58,17.55
      v30.54v1.84v3.23v2.95v0.09v30.9l-51.09-15.44l-0.18-0.05l-6.73-2.03v-2.09V223.41z M325,243.14l-49.44-14.94L325,213.24V243.14z
       M136,230.97l3,0.91l50.49,15.27L139,262.41l-3,0.91l-3-0.91l-50.52-15.27L133,231.88L136,230.97z M261,231.88l1.99-0.6l0.15,0.04
      c0.28,0.08,0.58,0.13,0.87,0.13s0.58-0.04,0.87-0.13l0.15-0.04l1.99,0.6l50.52,15.27L267,262.41l-3,0.91l-3-0.91l-50.49-15.26
      L261,231.88z M261,187.61v6.27v30.53v0.11v1.09l-8.39,2.53l-0.18,0.05L203,243.14v-29.9v-0.09v-4.95v-1.23v-1.84V173.6l58-17.55
      V187.61z M75,243.14v-30.9l51.09,15.46L75,243.14z M317.52,209.15L267,224.41v-30.53L317.52,209.15z M200,135.78l53.52,16.17
      L200,168.13l-53.52-16.17L200,135.78z M133,192.88v30.53l-50.52-15.27L133,192.88z M75,288.07v-6.27v-30.56l58,17.55v30.56v4.04
      v2.23v32.73l-58-17.55V288.07z M139,305.62v-2.23v-4.04v-30.56l58-17.55v30.56v3.23v3.04v32.73l-58,17.55V305.62z M203,289.07v-5.04
      v-1.23v-31.56l58,17.55v31.56v4.04v2.23v31.73l-58-17.55V289.07z M325,320.81l-58,17.55v-31.73v-2.23v-4.04v-31.56l58-17.55v31.56
      v6.27V320.81z"/>
    <polygon points="327.89,95.52 327.89,72.52 245,72.52 222,72.52 222,95.52 222,109.13 204.08,109.13 233.5,138.54 262.92,109.13 
      245,109.13 245,95.52 "/>
    <polygon points="99.92,72.52 99.92,54.61 70.51,84.02 99.92,113.44 99.92,95.52 160.5,95.52 160.5,151.52 183.5,151.52 183.5,72.52 
      "/>
  </g>
</svg>